<svg width="1410" height="386" viewBox="0 0 1410 386" fill="none" xmlns="http://www.w3.org/2000/svg">
<path d="M0.627991 193C0.627991 86.5492 86.9235 0 193.374 0C299.825 0 386.121 86.5492 386.121 193C386.121 299.451 299.825 386 193.374 386C86.9235 386 0.627991 299.451 0.627991 193Z" fill="#FAFF7F"/>
<path d="M147.114 223.888L147.105 146.68L224.212 146.672M201.094 277.928L201.086 200.72L278.192 200.712" stroke="#18181B" stroke-width="65.4701" stroke-linecap="round" stroke-linejoin="round"/>
<path d="M609.721 147.319C609.721 140.324 608.281 134.152 605.401 128.803C602.726 123.454 599.023 119.031 594.291 115.533C589.559 112.036 584.108 109.361 577.936 107.51C571.764 105.658 565.283 104.732 558.494 104.732C552.528 104.732 546.87 105.555 541.521 107.201C536.172 108.641 531.338 110.801 527.017 113.682C522.903 116.562 519.611 120.162 517.142 124.482C514.673 128.597 513.439 133.432 513.439 138.987V140.838C513.439 146.804 514.673 151.948 517.142 156.268C519.611 160.383 523.211 163.983 527.943 167.069C532.88 169.949 538.95 172.418 546.15 174.475C553.351 176.327 561.786 177.973 571.455 179.413C594.086 182.91 610.75 189.596 621.448 199.472C632.146 209.141 637.495 222.205 637.495 238.663V242.367C637.495 251.624 635.849 260.162 632.557 267.98C629.471 275.592 624.74 282.176 618.362 287.73C612.19 293.285 604.475 297.605 595.217 300.691C585.959 303.777 575.261 305.32 563.123 305.32C549.339 305.32 537.098 303.366 526.4 299.457C515.908 295.342 507.061 289.788 499.861 282.793C492.866 275.592 487.517 267.26 483.814 257.796C480.11 248.127 478.259 237.635 478.259 226.32V217.062H504.181V224.468C504.181 243.395 509.324 257.591 519.611 267.054C530.103 276.518 544.607 281.25 563.123 281.25C579.17 281.25 591.205 277.752 599.229 270.757C607.458 263.557 611.573 254.093 611.573 242.367V240.515C611.573 229.2 607.355 220.559 598.92 214.593C590.691 208.627 577.216 204.306 558.494 201.632C547.59 200.192 537.715 198.031 528.869 195.151C520.228 192.065 512.822 188.156 506.65 183.425C500.478 178.487 495.746 172.624 492.454 165.835C489.163 159.045 487.517 151.022 487.517 141.764V138.061C487.517 129.626 489.265 121.911 492.763 114.916C496.26 107.921 501.095 101.852 507.267 96.7088C513.645 91.5655 521.154 87.6566 529.795 84.9821C538.641 82.1018 548.31 80.6617 558.803 80.6617C570.941 80.6617 581.742 82.4104 591.205 85.9079C600.875 89.4053 609.001 94.1371 615.584 100.103C622.168 105.864 627.105 112.756 630.397 120.779C633.895 128.597 635.643 136.826 635.643 145.467V158.428H609.721V147.319ZM704.246 301H680.175V84.9821H704.246V175.71H707.949C712.681 165.835 719.264 158.017 727.699 152.256C736.34 146.496 746.832 143.616 759.176 143.616C775.84 143.616 789.316 149.17 799.602 160.28C810.095 171.184 815.341 187.642 815.341 209.655V301H791.27V214.593C791.27 198.546 787.67 186.511 780.469 178.487C773.269 170.463 763.496 166.452 751.153 166.452C736.546 166.452 725.025 171.492 716.59 181.573C708.36 191.448 704.246 204.718 704.246 221.382V301ZM980.226 275.078H976.522C971.585 285.364 964.693 292.976 955.846 297.914C947.206 302.852 938.051 305.32 928.381 305.32C918.3 305.32 908.94 303.675 900.299 300.383C891.658 296.885 884.046 291.845 877.463 285.262C871.085 278.472 866.045 270.243 862.342 260.574C858.638 250.904 856.787 239.692 856.787 226.937V221.999C856.787 209.45 858.638 198.34 862.342 188.671C866.045 179.001 871.085 170.875 877.463 164.292C884.046 157.502 891.658 152.359 900.299 148.862C908.94 145.364 918.095 143.616 927.764 143.616C938.256 143.616 947.72 145.981 956.155 150.713C964.796 155.239 971.585 162.337 976.522 172.006H980.226V147.936H1004.3V269.523C1004.3 275.695 1007.07 278.781 1012.63 278.781H1020.34V301H1003.99C996.993 301 991.232 298.737 986.706 294.211C982.386 289.685 980.226 283.924 980.226 276.929V275.078ZM930.85 282.484C938.051 282.484 944.634 281.147 950.6 278.472C956.772 275.798 962.018 271.992 966.339 267.054C970.659 262.117 974.054 256.253 976.522 249.464C978.991 242.469 980.226 234.755 980.226 226.32V222.616C980.226 214.387 978.991 206.878 976.522 200.089C974.054 193.094 970.556 187.128 966.03 182.19C961.71 177.253 956.464 173.447 950.292 170.772C944.325 167.892 937.845 166.452 930.85 166.452C923.649 166.452 917.066 167.789 911.1 170.463C905.134 173.138 899.888 176.944 895.361 181.882C891.041 186.613 887.647 192.477 885.178 199.472C882.709 206.261 881.475 213.77 881.475 221.999V226.937C881.475 244.424 886.001 258.105 895.053 267.98C904.311 277.649 916.243 282.484 930.85 282.484ZM1205.29 301H1181.22V191.139C1181.22 183.939 1179.57 178.076 1176.28 173.549C1172.99 168.818 1167.74 166.452 1160.54 166.452C1153.75 166.452 1148.2 169.023 1143.88 174.167C1139.76 179.104 1137.7 186.819 1137.7 197.311V301H1113.63V189.905C1113.63 183.116 1111.78 177.561 1108.08 173.241C1104.38 168.715 1099.44 166.452 1093.27 166.452C1085.86 166.452 1080.1 169.126 1075.98 174.475C1072.08 179.824 1070.12 186.819 1070.12 195.46V301H1046.05V147.936H1070.12V164.6H1073.82C1076.5 157.4 1080.41 152.153 1085.55 148.862C1090.69 145.364 1096.76 143.616 1103.76 143.616C1111.16 143.616 1117.23 145.57 1121.97 149.479C1126.9 153.388 1130.3 158.428 1132.15 164.6H1135.85C1142.85 150.61 1153.96 143.616 1169.18 143.616C1180.7 143.616 1189.55 147.319 1195.72 154.725C1202.1 161.926 1205.29 171.389 1205.29 183.116V301ZM1265.56 362.719H1241.49V147.936H1265.56V172.006H1269.26C1274.61 162.749 1282.02 155.754 1291.48 151.022C1300.94 146.084 1311.23 143.616 1322.34 143.616C1331.8 143.616 1340.75 145.364 1349.19 148.862C1357.62 152.359 1365.03 157.4 1371.41 163.983C1377.99 170.566 1383.13 178.693 1386.84 188.362C1390.74 198.031 1392.7 209.038 1392.7 221.382V227.554C1392.7 240.104 1390.85 251.213 1387.14 260.882C1383.44 270.552 1378.3 278.678 1371.71 285.262C1365.34 291.845 1357.83 296.885 1349.19 300.383C1340.55 303.675 1331.39 305.32 1321.72 305.32C1316.78 305.32 1311.74 304.703 1306.6 303.469C1301.46 302.44 1296.52 300.794 1291.79 298.531C1287.26 296.062 1283.04 293.182 1279.14 289.891C1275.23 286.393 1271.93 282.278 1269.26 277.547H1265.56V362.719ZM1316.78 282.484C1324.19 282.484 1330.98 281.25 1337.15 278.781C1343.32 276.107 1348.67 272.403 1353.2 267.672C1357.93 262.94 1361.53 257.179 1364 250.39C1366.67 243.601 1368.01 235.989 1368.01 227.554V221.382C1368.01 213.153 1366.67 205.746 1364 199.163C1361.53 192.374 1357.93 186.613 1353.2 181.882C1348.67 176.944 1343.22 173.138 1336.84 170.463C1330.67 167.789 1323.99 166.452 1316.78 166.452C1309.58 166.452 1302.9 167.892 1296.73 170.772C1290.55 173.447 1285.1 177.253 1280.37 182.19C1275.84 187.128 1272.24 193.094 1269.57 200.089C1266.89 206.878 1265.56 214.387 1265.56 222.616V226.32C1265.56 234.755 1266.89 242.469 1269.57 249.464C1272.24 256.253 1275.84 262.117 1280.37 267.054C1285.1 271.992 1290.55 275.798 1296.73 278.472C1302.9 281.147 1309.58 282.484 1316.78 282.484Z" fill="#18181B"/>
</svg>
