<svg width="443" height="532" viewBox="0 0 443 532" fill="none" xmlns="http://www.w3.org/2000/svg">
<path d="M0.333374 32C0.333374 14.3269 14.6603 0 32.3334 0H411C428.673 0 443 14.3269 443 32V500C443 517.673 428.673 532 411 532H32.3334C14.6602 532 0.333374 517.673 0.333374 500V32Z" fill="#F5F3FF"/>
<path d="M34.251 52V34.5455H40.4726C41.8249 34.5455 42.947 34.7784 43.8391 35.2443C44.7368 35.7102 45.4072 36.3551 45.8504 37.179C46.2936 37.9972 46.5152 38.9432 46.5152 40.017C46.5152 41.0852 46.2908 42.0256 45.8419 42.8381C45.3987 43.6449 44.7283 44.2727 43.8305 44.7216C42.9385 45.1705 41.8163 45.3949 40.4641 45.3949H35.751V43.1278H40.2254C41.0777 43.1278 41.7709 43.0057 42.305 42.7614C42.8447 42.517 43.2396 42.1619 43.4896 41.696C43.7396 41.2301 43.8646 40.6705 43.8646 40.017C43.8646 39.358 43.7368 38.7869 43.4811 38.304C43.2311 37.821 42.8362 37.4517 42.2964 37.196C41.7624 36.9347 41.0606 36.804 40.1913 36.804H36.8845V52H34.251ZM42.8675 44.125L47.18 52H44.18L39.9527 44.125H42.8675ZM54.9932 52.2642C53.7034 52.2642 52.5926 51.9886 51.6608 51.4375C50.7347 50.8807 50.0187 50.0994 49.5131 49.0938C49.0131 48.0824 48.7631 46.8977 48.7631 45.5398C48.7631 44.1989 49.0131 43.017 49.5131 41.9943C50.0187 40.9716 50.7233 40.1733 51.6267 39.5994C52.5358 39.0256 53.5983 38.7386 54.8142 38.7386C55.5528 38.7386 56.2687 38.8608 56.9619 39.1051C57.6551 39.3494 58.2773 39.733 58.8284 40.2557C59.3795 40.7784 59.8142 41.4574 60.1324 42.2926C60.4506 43.1222 60.6097 44.1307 60.6097 45.3182V46.2216H50.2034V44.3125H58.1125C58.1125 43.642 57.9761 43.0483 57.7034 42.5312C57.4307 42.0085 57.0472 41.5966 56.5528 41.2955C56.0642 40.9943 55.4903 40.8438 54.8312 40.8438C54.1153 40.8438 53.4903 41.0199 52.9562 41.3722C52.4278 41.7187 52.0187 42.1733 51.729 42.7358C51.4449 43.2926 51.3028 43.8977 51.3028 44.5511V46.0426C51.3028 46.9176 51.4562 47.6619 51.7631 48.2756C52.0756 48.8892 52.5102 49.358 53.067 49.6818C53.6239 50 54.2744 50.1591 55.0187 50.1591C55.5017 50.1591 55.942 50.0909 56.3398 49.9545C56.7375 49.8125 57.0812 49.6023 57.371 49.3239C57.6608 49.0455 57.8824 48.7017 58.0358 48.2926L60.4477 48.7273C60.2545 49.4375 59.9079 50.0597 59.4079 50.5938C58.9136 51.1222 58.2915 51.5341 57.5415 51.8295C56.7972 52.1193 55.9477 52.2642 54.9932 52.2642ZM74.2609 38.9091L69.5138 52H66.7865L62.0308 38.9091H64.7666L68.082 48.983H68.2183L71.5251 38.9091H74.2609ZM76.6558 52V38.9091H79.2041V52H76.6558ZM77.9427 36.8892C77.4996 36.8892 77.1189 36.7415 76.8007 36.446C76.4882 36.1449 76.332 35.7869 76.332 35.3722C76.332 34.9517 76.4882 34.5937 76.8007 34.2983C77.1189 33.9972 77.4996 33.8466 77.9427 33.8466C78.3859 33.8466 78.7638 33.9972 79.0763 34.2983C79.3945 34.5937 79.5535 34.9517 79.5535 35.3722C79.5535 35.7869 79.3945 36.1449 79.0763 36.446C78.7638 36.7415 78.3859 36.8892 77.9427 36.8892ZM88.2744 52.2642C86.9847 52.2642 85.8739 51.9886 84.942 51.4375C84.0159 50.8807 83.3 50.0994 82.7943 49.0938C82.2943 48.0824 82.0443 46.8977 82.0443 45.5398C82.0443 44.1989 82.2943 43.017 82.7943 41.9943C83.3 40.9716 84.0045 40.1733 84.9079 39.5994C85.817 39.0256 86.8795 38.7386 88.0954 38.7386C88.8341 38.7386 89.55 38.8608 90.2432 39.1051C90.9364 39.3494 91.5585 39.733 92.1097 40.2557C92.6608 40.7784 93.0954 41.4574 93.4136 42.2926C93.7318 43.1222 93.8909 44.1307 93.8909 45.3182V46.2216H83.4847V44.3125H91.3937C91.3937 43.642 91.2574 43.0483 90.9847 42.5312C90.7119 42.0085 90.3284 41.5966 89.8341 41.2955C89.3454 40.9943 88.7716 40.8438 88.1125 40.8438C87.3966 40.8438 86.7716 41.0199 86.2375 41.3722C85.7091 41.7187 85.3 42.1733 85.0102 42.7358C84.7261 43.2926 84.5841 43.8977 84.5841 44.5511V46.0426C84.5841 46.9176 84.7375 47.6619 85.0443 48.2756C85.3568 48.8892 85.7915 49.358 86.3483 49.6818C86.9051 50 87.5557 50.1591 88.3 50.1591C88.7829 50.1591 89.2233 50.0909 89.621 49.9545C90.0187 49.8125 90.3625 49.6023 90.6523 49.3239C90.942 49.0455 91.1636 48.7017 91.317 48.2926L93.729 48.7273C93.5358 49.4375 93.1892 50.0597 92.6892 50.5938C92.1949 51.1222 91.5727 51.5341 90.8227 51.8295C90.0784 52.1193 89.229 52.2642 88.2744 52.2642ZM99.5329 52L95.6807 38.9091H98.3142L100.88 48.5227H101.007L103.581 38.9091H106.215L108.772 48.4801H108.899L111.448 38.9091H114.081L110.237 52H107.638L104.979 42.5483H104.783L102.124 52H99.5329ZM127.931 52.2472C126.76 52.2472 125.752 52.0341 124.905 51.608C124.064 51.1818 123.416 50.6023 122.962 49.8693C122.507 49.1307 122.28 48.2955 122.28 47.3636C122.28 46.6534 122.428 46.0227 122.723 45.4716C123.019 44.9148 123.431 44.4006 123.959 43.929C124.487 43.4574 125.098 42.983 125.791 42.5057L128.604 40.5199C129.081 40.2074 129.453 39.8778 129.72 39.5312C129.987 39.179 130.121 38.7443 130.121 38.2273C130.121 37.8182 129.945 37.4261 129.593 37.0511C129.24 36.6761 128.769 36.4886 128.178 36.4886C127.769 36.4886 127.408 36.5881 127.095 36.7869C126.789 36.9858 126.547 37.2415 126.371 37.554C126.201 37.8608 126.115 38.1847 126.115 38.5256C126.115 38.9233 126.223 39.3239 126.439 39.7273C126.661 40.1307 126.945 40.5483 127.291 40.9801C127.638 41.4062 128.002 41.8494 128.382 42.3097L136.487 52H133.607L126.899 44.1165C126.337 43.4517 125.814 42.8267 125.331 42.2415C124.848 41.6506 124.456 41.054 124.155 40.4517C123.86 39.8438 123.712 39.1875 123.712 38.483C123.712 37.6818 123.894 36.9716 124.257 36.3523C124.627 35.7273 125.141 35.2386 125.8 34.8864C126.459 34.5341 127.232 34.358 128.118 34.358C129.016 34.358 129.786 34.5341 130.428 34.8864C131.076 35.233 131.573 35.696 131.919 36.2756C132.272 36.8494 132.448 37.4773 132.448 38.1591C132.448 38.9886 132.24 39.7216 131.826 40.358C131.416 40.9886 130.851 41.5682 130.13 42.0966L126.627 44.679C125.945 45.179 125.47 45.6733 125.203 46.1619C124.942 46.6449 124.811 47.0227 124.811 47.2955C124.811 47.7955 124.939 48.2585 125.195 48.6847C125.456 49.1108 125.82 49.4517 126.286 49.7074C126.757 49.9631 127.309 50.0909 127.939 50.0909C128.587 50.0909 129.218 49.9517 129.831 49.6733C130.451 49.3892 131.01 48.983 131.51 48.4545C132.016 47.9261 132.416 47.2926 132.712 46.554C133.007 45.8153 133.155 44.9886 133.155 44.0739H135.456C135.456 45.1989 135.328 46.1506 135.073 46.929C134.817 47.7017 134.507 48.3324 134.144 48.821C133.786 49.304 133.448 49.6818 133.13 49.9545C133.027 50.0455 132.931 50.1364 132.84 50.2273C132.749 50.3182 132.652 50.4091 132.55 50.5C131.959 51.0966 131.243 51.5369 130.402 51.821C129.567 52.1051 128.743 52.2472 127.931 52.2472ZM146.514 52H143.719L150 34.5455H153.043L159.324 52H156.529L151.594 37.7159H151.458L146.514 52ZM146.983 45.1648H156.051V47.3807H146.983V45.1648ZM166.943 52.2642C165.676 52.2642 164.586 51.9773 163.671 51.4034C162.762 50.8239 162.063 50.0256 161.574 49.0085C161.086 47.9915 160.841 46.8267 160.841 45.5142C160.841 44.1847 161.091 43.0114 161.591 41.9943C162.091 40.9716 162.796 40.1733 163.705 39.5994C164.614 39.0256 165.685 38.7386 166.918 38.7386C167.912 38.7386 168.799 38.9233 169.577 39.2926C170.355 39.6562 170.983 40.1676 171.461 40.8267C171.943 41.4858 172.23 42.2557 172.321 43.1364H169.841C169.705 42.5227 169.392 41.9943 168.904 41.5511C168.421 41.108 167.773 40.8864 166.961 40.8864C166.25 40.8864 165.628 41.0739 165.094 41.4489C164.566 41.8182 164.154 42.3466 163.858 43.0341C163.563 43.7159 163.415 44.5227 163.415 45.4545C163.415 46.4091 163.56 47.233 163.85 47.9261C164.139 48.6193 164.549 49.1562 165.077 49.5369C165.611 49.9176 166.239 50.108 166.961 50.108C167.443 50.108 167.881 50.0199 168.273 49.8438C168.671 49.6619 169.003 49.4034 169.27 49.0682C169.543 48.733 169.733 48.3295 169.841 47.858H172.321C172.23 48.7045 171.955 49.4602 171.495 50.125C171.034 50.7898 170.418 51.3125 169.645 51.6932C168.878 52.0739 167.978 52.2642 166.943 52.2642ZM181.157 38.9091V40.9545H174.007V38.9091H181.157ZM175.924 35.7727H178.473V48.1562C178.473 48.6506 178.546 49.0227 178.694 49.2727C178.842 49.517 179.032 49.6847 179.265 49.7756C179.504 49.8608 179.762 49.9034 180.041 49.9034C180.245 49.9034 180.424 49.8892 180.578 49.8608C180.731 49.8324 180.85 49.8097 180.936 49.7926L181.396 51.8977C181.248 51.9545 181.038 52.0114 180.765 52.0682C180.492 52.1307 180.152 52.1648 179.742 52.1705C179.072 52.1818 178.447 52.0625 177.867 51.8125C177.288 51.5625 176.819 51.1761 176.461 50.6534C176.103 50.1307 175.924 49.4744 175.924 48.6847V35.7727Z" fill="black"/>
<rect x="32.3334" y="88" width="373" height="294" rx="23.2525" fill="white"/>
<path d="M46.2849 113.66C46.2849 107.912 50.9443 103.252 56.692 103.252C62.4397 103.252 67.0991 107.912 67.0991 113.66C67.0991 119.407 62.4397 124.067 56.692 124.067C50.9443 124.067 46.2849 119.407 46.2849 113.66Z" fill="#F87171"/>
<path d="M80.1079 113.66C80.1079 107.912 84.7673 103.252 90.515 103.252C96.2627 103.252 100.922 107.912 100.922 113.66C100.922 119.407 96.2627 124.067 90.515 124.067C84.7673 124.067 80.1079 119.407 80.1079 113.66Z" fill="#FACC15"/>
<path d="M113.931 113.66C113.931 107.912 118.59 103.252 124.338 103.252C130.086 103.252 134.745 107.912 134.745 113.66C134.745 119.407 130.086 124.067 124.338 124.067C118.59 124.067 113.931 119.407 113.931 113.66Z" fill="#4ADE80"/>
<path d="M147.754 113.66C147.754 107.193 152.996 101.952 159.462 101.952H379.674C386.14 101.952 391.382 107.193 391.382 113.66C391.382 120.126 386.14 125.368 379.674 125.368H159.462C152.996 125.368 147.754 120.126 147.754 113.66Z" fill="#F5F5F5"/>
<rect x="46.2849" y="139.319" width="345.097" height="228.73" rx="9.30101" fill="#F5F5F5"/>
<rect width="42.9292" height="228.73" transform="translate(46.2849 139.319)" fill="#E5E5E5"/>
<path d="M46.2849 144.522C46.2849 141.649 48.6146 139.319 51.4885 139.319H84.0106C86.8844 139.319 89.2141 141.649 89.2141 144.522C89.2141 147.396 86.8844 149.726 84.0106 149.726H51.4884C48.6146 149.726 46.2849 147.396 46.2849 144.522Z" fill="#E5E5E5"/>
<path d="M46.2849 162.735C46.2849 159.861 48.6146 157.531 51.4885 157.531H84.0106C86.8844 157.531 89.2141 159.861 89.2141 162.735C89.2141 165.609 86.8844 167.938 84.0106 167.938H51.4884C48.6146 167.938 46.2849 165.609 46.2849 162.735Z" fill="#E5E5E5"/>
<path d="M46.2849 180.947C46.2849 178.073 48.6146 175.744 51.4885 175.744H84.0106C86.8844 175.744 89.2141 178.073 89.2141 180.947C89.2141 183.821 86.8844 186.151 84.0106 186.151H51.4884C48.6146 186.151 46.2849 183.821 46.2849 180.947Z" fill="#E5E5E5"/>
<path d="M110.028 220.024C110.028 217.15 112.358 214.82 115.232 214.82H172.158C175.032 214.82 177.362 217.15 177.362 220.024C177.362 222.898 175.032 225.227 172.158 225.227H115.232C112.358 225.227 110.028 222.898 110.028 220.024Z" fill="#E5E5E5"/>
<path d="M185.167 220.024C185.167 217.15 187.497 214.82 190.37 214.82H247.297C250.17 214.82 252.5 217.15 252.5 220.024C252.5 222.898 250.17 225.227 247.297 225.227H190.37C187.497 225.227 185.167 222.898 185.167 220.024Z" fill="#E5E5E5"/>
<path d="M260.305 220.024C260.305 217.15 262.635 214.82 265.509 214.82H322.435C325.309 214.82 327.639 217.15 327.639 220.024C327.639 222.898 325.309 225.227 322.435 225.227H265.509C262.635 225.227 260.305 222.898 260.305 220.024Z" fill="#E5E5E5"/>
<path d="M110.028 253.684C110.028 250.81 112.358 248.48 115.232 248.48H172.158C175.032 248.48 177.362 250.81 177.362 253.684C177.362 256.557 175.032 258.887 172.158 258.887H115.232C112.358 258.887 110.028 256.557 110.028 253.684Z" fill="#E5E5E5"/>
<path d="M185.167 253.684C185.167 250.81 187.497 248.48 190.37 248.48H247.297C250.17 248.48 252.5 250.81 252.5 253.684C252.5 256.557 250.17 258.887 247.297 258.887H190.37C187.497 258.887 185.167 256.557 185.167 253.684Z" fill="#E5E5E5"/>
<path d="M260.305 253.684C260.305 250.81 262.635 248.48 265.509 248.48H322.435C325.309 248.48 327.639 250.81 327.639 253.684C327.639 256.557 325.309 258.887 322.435 258.887H265.509C262.635 258.887 260.305 256.557 260.305 253.684Z" fill="#E5E5E5"/>
<path d="M110.028 287.343C110.028 284.469 112.358 282.14 115.232 282.14H172.158C175.032 282.14 177.362 284.469 177.362 287.343C177.362 290.217 175.032 292.547 172.158 292.547H115.232C112.358 292.547 110.028 290.217 110.028 287.343Z" fill="#E5E5E5"/>
<path d="M185.167 287.343C185.167 284.469 187.497 282.14 190.37 282.14H247.297C250.17 282.14 252.5 284.469 252.5 287.343C252.5 290.217 250.17 292.547 247.297 292.547H190.37C187.497 292.547 185.167 290.217 185.167 287.343Z" fill="#E5E5E5"/>
<path d="M260.305 287.343C260.305 284.469 262.635 282.14 265.509 282.14H322.435C325.309 282.14 327.639 284.469 327.639 287.343C327.639 290.217 325.309 292.547 322.435 292.547H265.509C262.635 292.547 260.305 290.217 260.305 287.343Z" fill="#E5E5E5"/>
<rect width="42.9292" height="228.73" transform="translate(348.453 139.319)" fill="#E5E5E5"/>
<path d="M348.453 144.522C348.453 141.649 350.782 139.319 353.656 139.319H386.178C389.052 139.319 391.382 141.649 391.382 144.522C391.382 147.396 389.052 149.726 386.178 149.726H353.656C350.782 149.726 348.453 147.396 348.453 144.522Z" fill="#E5E5E5"/>
<path d="M348.453 162.735C348.453 159.861 350.782 157.531 353.656 157.531H386.178C389.052 157.531 391.382 159.861 391.382 162.735C391.382 165.609 389.052 167.938 386.178 167.938H353.656C350.782 167.938 348.453 165.609 348.453 162.735Z" fill="#E5E5E5"/>
<path d="M348.453 180.947C348.453 178.073 350.782 175.744 353.656 175.744H386.178C389.052 175.744 391.382 178.073 391.382 180.947C391.382 183.821 389.052 186.151 386.178 186.151H353.656C350.782 186.151 348.453 183.821 348.453 180.947Z" fill="#E5E5E5"/>
<path d="M34.6913 418.455L39.0095 430.699H39.18L43.4981 418.455H45.3447L40.0038 433H38.1856L32.8447 418.455H34.6913ZM47.3831 433V422.091H49.0592V433H47.3831ZM48.2354 420.273C47.9087 420.273 47.6269 420.161 47.3902 419.939C47.1582 419.716 47.0422 419.449 47.0422 419.136C47.0422 418.824 47.1582 418.556 47.3902 418.334C47.6269 418.111 47.9087 418 48.2354 418C48.5621 418 48.8414 418.111 49.0734 418.334C49.3102 418.556 49.4285 418.824 49.4285 419.136C49.4285 419.449 49.3102 419.716 49.0734 419.939C48.8414 420.161 48.5621 420.273 48.2354 420.273ZM56.703 433.227C55.6519 433.227 54.7452 432.995 53.9829 432.531C53.2253 432.062 52.6405 431.409 52.2286 430.571C51.8214 429.728 51.6178 428.748 51.6178 427.631C51.6178 426.513 51.8214 425.528 52.2286 424.676C52.6405 423.819 53.2135 423.152 53.9474 422.673C54.686 422.19 55.5477 421.949 56.5326 421.949C57.1008 421.949 57.6619 422.044 58.2158 422.233C58.7698 422.422 59.2741 422.73 59.7286 423.156C60.1832 423.578 60.5454 424.136 60.8153 424.832C61.0851 425.528 61.2201 426.385 61.2201 427.403V428.114H52.811V426.665H59.5155C59.5155 426.049 59.3924 425.5 59.1462 425.017C58.9048 424.534 58.5591 424.153 58.1093 423.874C57.6642 423.594 57.1387 423.455 56.5326 423.455C55.865 423.455 55.2873 423.62 54.7996 423.952C54.3167 424.278 53.945 424.705 53.6846 425.23C53.4242 425.756 53.294 426.319 53.294 426.92V427.886C53.294 428.71 53.436 429.409 53.7201 429.982C54.0089 430.55 54.409 430.983 54.9204 431.281C55.4317 431.575 56.026 431.722 56.703 431.722C57.1434 431.722 57.5411 431.66 57.8962 431.537C58.2561 431.409 58.5662 431.22 58.8266 430.969C59.087 430.713 59.2883 430.396 59.4303 430.017L61.0496 430.472C60.8792 431.021 60.5927 431.504 60.1903 431.92C59.7878 432.332 59.2906 432.654 58.6988 432.886C58.1069 433.114 57.4417 433.227 56.703 433.227ZM66.2414 433L62.9175 422.091H64.6789L67.0369 430.443H67.1505L69.48 422.091H71.2698L73.5709 430.415H73.6846L76.0425 422.091H77.8039L74.48 433H72.8323L70.4459 424.619H70.2755L67.8891 433H66.2414ZM88.855 433.256C88.1637 433.256 87.5364 433.125 86.9729 432.865C86.4095 432.6 85.962 432.219 85.6306 431.722C85.2992 431.22 85.1334 430.614 85.1334 429.903C85.1334 429.278 85.2566 428.772 85.5028 428.384C85.749 427.991 86.078 427.683 86.49 427.46C86.9019 427.238 87.3565 427.072 87.8536 426.963C88.3555 426.849 88.8598 426.759 89.3664 426.693C90.0293 426.608 90.5667 426.544 90.9786 426.501C91.3953 426.454 91.6983 426.376 91.8877 426.267C92.0818 426.158 92.1789 425.969 92.1789 425.699V425.642C92.1789 424.941 91.9871 424.397 91.6036 424.009C91.2248 423.62 90.6495 423.426 89.8778 423.426C89.0776 423.426 88.4502 423.601 87.9957 423.952C87.5411 424.302 87.2215 424.676 87.0369 425.074L85.4459 424.506C85.73 423.843 86.1088 423.327 86.5823 422.957C87.0605 422.583 87.5814 422.323 88.1448 422.176C88.713 422.025 89.2717 421.949 89.8209 421.949C90.1713 421.949 90.5738 421.991 91.0283 422.077C91.4876 422.157 91.9303 422.325 92.3565 422.581C92.7873 422.837 93.1448 423.223 93.4289 423.739C93.713 424.255 93.855 424.946 93.855 425.812V433H92.1789V431.523H92.0937C91.98 431.759 91.7906 432.013 91.5255 432.283C91.2603 432.553 90.9076 432.782 90.4673 432.972C90.0269 433.161 89.4895 433.256 88.855 433.256ZM89.1107 431.75C89.7736 431.75 90.3323 431.62 90.7869 431.359C91.2461 431.099 91.5918 430.763 91.8238 430.351C92.0605 429.939 92.1789 429.506 92.1789 429.051V427.517C92.1079 427.602 91.9516 427.68 91.7101 427.751C91.4734 427.818 91.1988 427.877 90.8863 427.929C90.5785 427.976 90.2779 428.019 89.9843 428.057C89.6955 428.09 89.4611 428.118 89.2812 428.142C88.8456 428.199 88.4384 428.291 88.0596 428.419C87.6855 428.542 87.3825 428.729 87.1505 428.98C86.9232 429.226 86.8096 429.562 86.8096 429.989C86.8096 430.571 87.025 431.011 87.4559 431.31C87.8915 431.603 88.4431 431.75 89.1107 431.75ZM98.5905 426.438V433H96.9143V422.091H98.5337V423.795H98.6757C98.9314 423.241 99.3196 422.796 99.8405 422.46C100.361 422.119 101.034 421.949 101.858 421.949C102.596 421.949 103.242 422.1 103.796 422.403C104.35 422.702 104.781 423.156 105.089 423.767C105.397 424.373 105.551 425.14 105.551 426.068V433H103.875V426.182C103.875 425.325 103.652 424.657 103.207 424.179C102.762 423.696 102.151 423.455 101.375 423.455C100.84 423.455 100.361 423.571 99.9399 423.803C99.5232 424.035 99.1942 424.373 98.9527 424.818C98.7112 425.263 98.5905 425.803 98.5905 426.438ZM111.824 433.256C111.132 433.256 110.505 433.125 109.942 432.865C109.378 432.6 108.931 432.219 108.599 431.722C108.268 431.22 108.102 430.614 108.102 429.903C108.102 429.278 108.225 428.772 108.472 428.384C108.718 427.991 109.047 427.683 109.459 427.46C109.871 427.238 110.325 427.072 110.822 426.963C111.324 426.849 111.829 426.759 112.335 426.693C112.998 426.608 113.535 426.544 113.947 426.501C114.364 426.454 114.667 426.376 114.856 426.267C115.051 426.158 115.148 425.969 115.148 425.699V425.642C115.148 424.941 114.956 424.397 114.572 424.009C114.194 423.62 113.618 423.426 112.847 423.426C112.046 423.426 111.419 423.601 110.964 423.952C110.51 424.302 110.19 424.676 110.006 425.074L108.415 424.506C108.699 423.843 109.078 423.327 109.551 422.957C110.029 422.583 110.55 422.323 111.114 422.176C111.682 422.025 112.24 421.949 112.79 421.949C113.14 421.949 113.543 421.991 113.997 422.077C114.456 422.157 114.899 422.325 115.325 422.581C115.756 422.837 116.114 423.223 116.398 423.739C116.682 424.255 116.824 424.946 116.824 425.812V433H115.148V431.523H115.062C114.949 431.759 114.759 432.013 114.494 432.283C114.229 432.553 113.876 432.782 113.436 432.972C112.996 433.161 112.458 433.256 111.824 433.256ZM112.079 431.75C112.742 431.75 113.301 431.62 113.756 431.359C114.215 431.099 114.561 430.763 114.793 430.351C115.029 429.939 115.148 429.506 115.148 429.051V427.517C115.077 427.602 114.92 427.68 114.679 427.751C114.442 427.818 114.168 427.877 113.855 427.929C113.547 427.976 113.247 428.019 112.953 428.057C112.664 428.09 112.43 428.118 112.25 428.142C111.814 428.199 111.407 428.291 111.028 428.419C110.654 428.542 110.351 428.729 110.119 428.98C109.892 429.226 109.778 429.562 109.778 429.989C109.778 430.571 109.994 431.011 110.425 431.31C110.86 431.603 111.412 431.75 112.079 431.75ZM121.559 418.455V433H119.883V418.455H121.559ZM125.709 437.091C125.425 437.091 125.171 437.067 124.949 437.02C124.726 436.977 124.572 436.935 124.487 436.892L124.913 435.415C125.32 435.519 125.68 435.557 125.993 435.528C126.305 435.5 126.582 435.36 126.824 435.109C127.07 434.863 127.295 434.463 127.499 433.909L127.811 433.057L123.777 422.091H125.595L128.606 430.784H128.72L131.731 422.091H133.55L128.919 434.591C128.711 435.154 128.453 435.621 128.145 435.99C127.837 436.364 127.48 436.641 127.072 436.821C126.67 437.001 126.215 437.091 125.709 437.091ZM143.489 424.534L141.984 424.96C141.889 424.709 141.749 424.465 141.565 424.229C141.385 423.987 141.138 423.788 140.826 423.632C140.513 423.476 140.113 423.398 139.626 423.398C138.958 423.398 138.402 423.552 137.957 423.859C137.516 424.162 137.296 424.548 137.296 425.017C137.296 425.434 137.448 425.763 137.751 426.004C138.054 426.246 138.527 426.447 139.171 426.608L140.79 427.006C141.766 427.242 142.493 427.605 142.971 428.092C143.449 428.575 143.688 429.198 143.688 429.96C143.688 430.585 143.508 431.144 143.148 431.636C142.793 432.129 142.296 432.517 141.657 432.801C141.018 433.085 140.274 433.227 139.427 433.227C138.314 433.227 137.393 432.986 136.664 432.503C135.935 432.02 135.473 431.314 135.279 430.386L136.87 429.989C137.021 430.576 137.308 431.016 137.729 431.31C138.155 431.603 138.712 431.75 139.398 431.75C140.18 431.75 140.8 431.584 141.259 431.253C141.723 430.917 141.955 430.514 141.955 430.045C141.955 429.667 141.823 429.349 141.557 429.094C141.292 428.833 140.885 428.639 140.336 428.511L138.518 428.085C137.519 427.848 136.785 427.482 136.316 426.984C135.852 426.482 135.62 425.855 135.62 425.102C135.62 424.487 135.793 423.942 136.138 423.469C136.489 422.995 136.965 422.624 137.566 422.354C138.172 422.084 138.859 421.949 139.626 421.949C140.705 421.949 141.553 422.186 142.168 422.659C142.789 423.133 143.229 423.758 143.489 424.534ZM146.211 433V422.091H147.887V433H146.211ZM147.063 420.273C146.737 420.273 146.455 420.161 146.218 419.939C145.986 419.716 145.87 419.449 145.87 419.136C145.87 418.824 145.986 418.556 146.218 418.334C146.455 418.111 146.737 418 147.063 418C147.39 418 147.67 418.111 147.902 418.334C148.138 418.556 148.257 418.824 148.257 419.136C148.257 419.449 148.138 419.716 147.902 419.939C147.67 420.161 147.39 420.273 147.063 420.273ZM158.685 424.534L157.179 424.96C157.084 424.709 156.945 424.465 156.76 424.229C156.58 423.987 156.334 423.788 156.021 423.632C155.709 423.476 155.309 423.398 154.821 423.398C154.153 423.398 153.597 423.552 153.152 423.859C152.712 424.162 152.491 424.548 152.491 425.017C152.491 425.434 152.643 425.763 152.946 426.004C153.249 426.246 153.722 426.447 154.366 426.608L155.986 427.006C156.961 427.242 157.688 427.605 158.166 428.092C158.644 428.575 158.883 429.198 158.883 429.96C158.883 430.585 158.704 431.144 158.344 431.636C157.989 432.129 157.491 432.517 156.852 432.801C156.213 433.085 155.47 433.227 154.622 433.227C153.509 433.227 152.588 432.986 151.859 432.503C151.13 432.02 150.668 431.314 150.474 430.386L152.065 429.989C152.217 430.576 152.503 431.016 152.925 431.31C153.351 431.603 153.907 431.75 154.594 431.75C155.375 431.75 155.995 431.584 156.454 431.253C156.918 430.917 157.15 430.514 157.15 430.045C157.15 429.667 157.018 429.349 156.753 429.094C156.488 428.833 156.08 428.639 155.531 428.511L153.713 428.085C152.714 427.848 151.98 427.482 151.511 426.984C151.047 426.482 150.815 425.855 150.815 425.102C150.815 424.487 150.988 423.942 151.334 423.469C151.684 422.995 152.16 422.624 152.761 422.354C153.367 422.084 154.054 421.949 154.821 421.949C155.9 421.949 156.748 422.186 157.364 422.659C157.984 423.133 158.424 423.758 158.685 424.534ZM171.463 433.227C170.478 433.227 169.614 432.993 168.871 432.524C168.132 432.055 167.555 431.4 167.138 430.557C166.726 429.714 166.52 428.729 166.52 427.602C166.52 426.466 166.726 425.474 167.138 424.626C167.555 423.779 168.132 423.121 168.871 422.652C169.614 422.183 170.478 421.949 171.463 421.949C172.448 421.949 173.31 422.183 174.049 422.652C174.792 423.121 175.37 423.779 175.782 424.626C176.198 425.474 176.407 426.466 176.407 427.602C176.407 428.729 176.198 429.714 175.782 430.557C175.37 431.4 174.792 432.055 174.049 432.524C173.31 432.993 172.448 433.227 171.463 433.227ZM171.463 431.722C172.211 431.722 172.827 431.53 173.31 431.146C173.793 430.763 174.15 430.259 174.382 429.634C174.614 429.009 174.73 428.331 174.73 427.602C174.73 426.873 174.614 426.194 174.382 425.564C174.15 424.934 173.793 424.425 173.31 424.037C172.827 423.649 172.211 423.455 171.463 423.455C170.715 423.455 170.1 423.649 169.617 424.037C169.134 424.425 168.776 424.934 168.544 425.564C168.312 426.194 168.196 426.873 168.196 427.602C168.196 428.331 168.312 429.009 168.544 429.634C168.776 430.259 169.134 430.763 169.617 431.146C170.1 431.53 170.715 431.722 171.463 431.722ZM178.965 433V422.091H180.584V423.739H180.698C180.897 423.199 181.257 422.761 181.778 422.425C182.298 422.089 182.886 421.92 183.539 421.92C183.662 421.92 183.816 421.923 184.001 421.928C184.185 421.932 184.325 421.939 184.42 421.949V423.653C184.363 423.639 184.233 423.618 184.029 423.589C183.83 423.556 183.619 423.54 183.397 423.54C182.867 423.54 182.393 423.651 181.976 423.874C181.565 424.091 181.238 424.394 180.996 424.783C180.76 425.166 180.641 425.604 180.641 426.097V433H178.965ZM196.463 433.227C195.441 433.227 194.56 432.986 193.821 432.503C193.083 432.02 192.514 431.355 192.117 430.507C191.719 429.66 191.52 428.691 191.52 427.602C191.52 426.494 191.724 425.517 192.131 424.669C192.543 423.817 193.116 423.152 193.85 422.673C194.588 422.19 195.45 421.949 196.435 421.949C197.202 421.949 197.893 422.091 198.509 422.375C199.124 422.659 199.629 423.057 200.022 423.568C200.415 424.08 200.658 424.676 200.753 425.358H199.077C198.949 424.861 198.665 424.42 198.225 424.037C197.789 423.649 197.202 423.455 196.463 423.455C195.81 423.455 195.237 423.625 194.745 423.966C194.257 424.302 193.876 424.778 193.601 425.393C193.331 426.004 193.196 426.722 193.196 427.545C193.196 428.388 193.329 429.122 193.594 429.747C193.864 430.372 194.243 430.857 194.73 431.203C195.223 431.549 195.8 431.722 196.463 431.722C196.899 431.722 197.294 431.646 197.649 431.494C198.005 431.343 198.305 431.125 198.551 430.841C198.798 430.557 198.973 430.216 199.077 429.818H200.753C200.658 430.462 200.424 431.042 200.05 431.558C199.681 432.07 199.191 432.477 198.58 432.78C197.974 433.078 197.268 433.227 196.463 433.227ZM204.88 426.438V433H203.203V418.455H204.88V423.795H205.022C205.277 423.232 205.661 422.785 206.172 422.453C206.688 422.117 207.375 421.949 208.232 421.949C208.975 421.949 209.626 422.098 210.185 422.396C210.744 422.69 211.177 423.142 211.485 423.753C211.797 424.359 211.953 425.131 211.953 426.068V433H210.277V426.182C210.277 425.315 210.052 424.645 209.603 424.172C209.157 423.694 208.54 423.455 207.749 423.455C207.2 423.455 206.707 423.571 206.272 423.803C205.841 424.035 205.5 424.373 205.249 424.818C205.003 425.263 204.88 425.803 204.88 426.438ZM218.23 433.256C217.539 433.256 216.911 433.125 216.348 432.865C215.784 432.6 215.337 432.219 215.006 431.722C214.674 431.22 214.508 430.614 214.508 429.903C214.508 429.278 214.632 428.772 214.878 428.384C215.124 427.991 215.453 427.683 215.865 427.46C216.277 427.238 216.731 427.072 217.229 426.963C217.731 426.849 218.235 426.759 218.741 426.693C219.404 426.608 219.942 426.544 220.354 426.501C220.77 426.454 221.073 426.376 221.263 426.267C221.457 426.158 221.554 425.969 221.554 425.699V425.642C221.554 424.941 221.362 424.397 220.979 424.009C220.6 423.62 220.025 423.426 219.253 423.426C218.453 423.426 217.825 423.601 217.371 423.952C216.916 424.302 216.597 424.676 216.412 425.074L214.821 424.506C215.105 423.843 215.484 423.327 215.957 422.957C216.436 422.583 216.956 422.323 217.52 422.176C218.088 422.025 218.647 421.949 219.196 421.949C219.546 421.949 219.949 421.991 220.403 422.077C220.863 422.157 221.305 422.325 221.731 422.581C222.162 422.837 222.52 423.223 222.804 423.739C223.088 424.255 223.23 424.946 223.23 425.812V433H221.554V431.523H221.469C221.355 431.759 221.166 432.013 220.9 432.283C220.635 432.553 220.283 432.782 219.842 432.972C219.402 433.161 218.865 433.256 218.23 433.256ZM218.486 431.75C219.149 431.75 219.707 431.62 220.162 431.359C220.621 431.099 220.967 430.763 221.199 430.351C221.436 429.939 221.554 429.506 221.554 429.051V427.517C221.483 427.602 221.327 427.68 221.085 427.751C220.848 427.818 220.574 427.877 220.261 427.929C219.954 427.976 219.653 428.019 219.359 428.057C219.07 428.09 218.836 428.118 218.656 428.142C218.221 428.199 217.813 428.291 217.435 428.419C217.061 428.542 216.757 428.729 216.525 428.98C216.298 429.226 216.185 429.562 216.185 429.989C216.185 430.571 216.4 431.011 216.831 431.31C217.266 431.603 217.818 431.75 218.486 431.75ZM231.034 422.091V423.511H225.38V422.091H231.034ZM227.028 419.477H228.704V429.875C228.704 430.348 228.773 430.704 228.91 430.94C229.052 431.172 229.232 431.329 229.45 431.409C229.672 431.485 229.907 431.523 230.153 431.523C230.338 431.523 230.489 431.513 230.608 431.494C230.726 431.471 230.821 431.452 230.892 431.438L231.233 432.943C231.119 432.986 230.96 433.028 230.757 433.071C230.553 433.118 230.295 433.142 229.983 433.142C229.509 433.142 229.045 433.04 228.59 432.837C228.141 432.633 227.767 432.323 227.468 431.906C227.175 431.49 227.028 430.964 227.028 430.33V419.477ZM241.652 433L238.328 422.091H240.089L242.447 430.443H242.561L244.89 422.091H246.68L248.981 430.415H249.095L251.453 422.091H253.214L249.89 433H248.242L245.856 424.619H245.686L243.299 433H241.652ZM255.43 433V422.091H257.106V433H255.43ZM256.282 420.273C255.956 420.273 255.674 420.161 255.437 419.939C255.205 419.716 255.089 419.449 255.089 419.136C255.089 418.824 255.205 418.556 255.437 418.334C255.674 418.111 255.956 418 256.282 418C256.609 418 256.888 418.111 257.12 418.334C257.357 418.556 257.475 418.824 257.475 419.136C257.475 419.449 257.357 419.716 257.12 419.939C256.888 420.161 256.609 420.273 256.282 420.273ZM264.92 422.091V423.511H259.267V422.091H264.92ZM260.915 419.477H262.591V429.875C262.591 430.348 262.659 430.704 262.797 430.94C262.939 431.172 263.119 431.329 263.337 431.409C263.559 431.485 263.793 431.523 264.04 431.523C264.224 431.523 264.376 431.513 264.494 431.494C264.613 431.471 264.707 431.452 264.778 431.438L265.119 432.943C265.006 432.986 264.847 433.028 264.643 433.071C264.44 433.118 264.182 433.142 263.869 433.142C263.396 433.142 262.932 433.04 262.477 432.837C262.027 432.633 261.653 432.323 261.355 431.906C261.061 431.49 260.915 430.964 260.915 430.33V419.477ZM269.352 426.438V433H267.676V418.455H269.352V423.795H269.494C269.75 423.232 270.133 422.785 270.645 422.453C271.161 422.117 271.847 421.949 272.704 421.949C273.448 421.949 274.099 422.098 274.658 422.396C275.216 422.69 275.65 423.142 275.957 423.753C276.27 424.359 276.426 425.131 276.426 426.068V433H274.75V426.182C274.75 425.315 274.525 424.645 274.075 424.172C273.63 423.694 273.012 423.455 272.222 423.455C271.672 423.455 271.18 423.571 270.744 423.803C270.313 424.035 269.972 424.373 269.722 424.818C269.475 425.263 269.352 425.803 269.352 426.438ZM285.117 437.091V422.091H286.737V423.824H286.936C287.059 423.634 287.229 423.393 287.447 423.099C287.67 422.801 287.987 422.536 288.399 422.304C288.815 422.067 289.379 421.949 290.089 421.949C291.008 421.949 291.817 422.179 292.518 422.638C293.219 423.097 293.766 423.748 294.159 424.591C294.552 425.434 294.748 426.428 294.748 427.574C294.748 428.729 294.552 429.731 294.159 430.578C293.766 431.421 293.221 432.074 292.525 432.538C291.829 432.998 291.027 433.227 290.117 433.227C289.417 433.227 288.856 433.111 288.434 432.879C288.013 432.643 287.688 432.375 287.461 432.077C287.234 431.774 287.059 431.523 286.936 431.324H286.794V437.091H285.117ZM286.765 427.545C286.765 428.369 286.886 429.096 287.127 429.726C287.369 430.351 287.722 430.841 288.186 431.196C288.65 431.546 289.218 431.722 289.89 431.722C290.591 431.722 291.176 431.537 291.644 431.168C292.118 430.794 292.473 430.292 292.71 429.662C292.951 429.027 293.072 428.322 293.072 427.545C293.072 426.778 292.954 426.087 292.717 425.472C292.485 424.851 292.132 424.361 291.659 424.001C291.19 423.637 290.6 423.455 289.89 423.455C289.208 423.455 288.635 423.627 288.171 423.973C287.707 424.314 287.357 424.792 287.12 425.408C286.884 426.018 286.765 426.731 286.765 427.545ZM301.879 433.227C300.828 433.227 299.921 432.995 299.159 432.531C298.401 432.062 297.816 431.409 297.404 430.571C296.997 429.728 296.794 428.748 296.794 427.631C296.794 426.513 296.997 425.528 297.404 424.676C297.816 423.819 298.389 423.152 299.123 422.673C299.862 422.19 300.724 421.949 301.708 421.949C302.277 421.949 302.838 422.044 303.392 422.233C303.946 422.422 304.45 422.73 304.904 423.156C305.359 423.578 305.721 424.136 305.991 424.832C306.261 425.528 306.396 426.385 306.396 427.403V428.114H297.987V426.665H304.691C304.691 426.049 304.568 425.5 304.322 425.017C304.081 424.534 303.735 424.153 303.285 423.874C302.84 423.594 302.314 423.455 301.708 423.455C301.041 423.455 300.463 423.62 299.975 423.952C299.492 424.278 299.121 424.705 298.86 425.23C298.6 425.756 298.47 426.319 298.47 426.92V427.886C298.47 428.71 298.612 429.409 298.896 429.982C299.185 430.55 299.585 430.983 300.096 431.281C300.608 431.575 301.202 431.722 301.879 431.722C302.319 431.722 302.717 431.66 303.072 431.537C303.432 431.409 303.742 431.22 304.002 430.969C304.263 430.713 304.464 430.396 304.606 430.017L306.225 430.472C306.055 431.021 305.769 431.504 305.366 431.92C304.964 432.332 304.466 432.654 303.875 432.886C303.283 433.114 302.617 433.227 301.879 433.227ZM308.946 433V422.091H310.565V423.739H310.679C310.877 423.199 311.237 422.761 311.758 422.425C312.279 422.089 312.866 421.92 313.519 421.92C313.643 421.92 313.796 421.923 313.981 421.928C314.166 421.932 314.305 421.939 314.4 421.949V423.653C314.343 423.639 314.213 423.618 314.01 423.589C313.811 423.556 313.6 423.54 313.377 423.54C312.847 423.54 312.374 423.651 311.957 423.874C311.545 424.091 311.218 424.394 310.977 424.783C310.74 425.166 310.622 425.604 310.622 426.097V433H308.946ZM324.114 424.534L322.609 424.96C322.514 424.709 322.374 424.465 322.19 424.229C322.01 423.987 321.763 423.788 321.451 423.632C321.138 423.476 320.738 423.398 320.251 423.398C319.583 423.398 319.027 423.552 318.582 423.859C318.141 424.162 317.921 424.548 317.921 425.017C317.921 425.434 318.073 425.763 318.376 426.004C318.679 426.246 319.152 426.447 319.796 426.608L321.415 427.006C322.391 427.242 323.118 427.605 323.596 428.092C324.074 428.575 324.313 429.198 324.313 429.96C324.313 430.585 324.133 431.144 323.773 431.636C323.418 432.129 322.921 432.517 322.282 432.801C321.643 433.085 320.899 433.227 320.052 433.227C318.939 433.227 318.018 432.986 317.289 432.503C316.56 432.02 316.098 431.314 315.904 430.386L317.495 429.989C317.646 430.576 317.933 431.016 318.354 431.31C318.78 431.603 319.337 431.75 320.023 431.75C320.805 431.75 321.425 431.584 321.884 431.253C322.348 430.917 322.58 430.514 322.58 430.045C322.58 429.667 322.448 429.349 322.182 429.094C321.917 428.833 321.51 428.639 320.961 428.511L319.143 428.085C318.144 427.848 317.41 427.482 316.941 426.984C316.477 426.482 316.245 425.855 316.245 425.102C316.245 424.487 316.418 423.942 316.763 423.469C317.114 422.995 317.59 422.624 318.191 422.354C318.797 422.084 319.484 421.949 320.251 421.949C321.33 421.949 322.178 422.186 322.793 422.659C323.414 423.133 323.854 423.758 324.114 424.534ZM331.268 433.227C330.283 433.227 329.419 432.993 328.676 432.524C327.937 432.055 327.359 431.4 326.943 430.557C326.531 429.714 326.325 428.729 326.325 427.602C326.325 426.466 326.531 425.474 326.943 424.626C327.359 423.779 327.937 423.121 328.676 422.652C329.419 422.183 330.283 421.949 331.268 421.949C332.253 421.949 333.115 422.183 333.853 422.652C334.597 423.121 335.174 423.779 335.586 424.626C336.003 425.474 336.211 426.466 336.211 427.602C336.211 428.729 336.003 429.714 335.586 430.557C335.174 431.4 334.597 432.055 333.853 432.524C333.115 432.993 332.253 433.227 331.268 433.227ZM331.268 431.722C332.016 431.722 332.632 431.53 333.115 431.146C333.598 430.763 333.955 430.259 334.187 429.634C334.419 429.009 334.535 428.331 334.535 427.602C334.535 426.873 334.419 426.194 334.187 425.564C333.955 424.934 333.598 424.425 333.115 424.037C332.632 423.649 332.016 423.455 331.268 423.455C330.52 423.455 329.904 423.649 329.421 424.037C328.938 424.425 328.581 424.934 328.349 425.564C328.117 426.194 328.001 426.873 328.001 427.602C328.001 428.331 328.117 429.009 328.349 429.634C328.581 430.259 328.938 430.763 329.421 431.146C329.904 431.53 330.52 431.722 331.268 431.722ZM340.446 426.438V433H338.77V422.091H340.389V423.795H340.531C340.787 423.241 341.175 422.796 341.696 422.46C342.217 422.119 342.889 421.949 343.713 421.949C344.452 421.949 345.098 422.1 345.652 422.403C346.206 422.702 346.637 423.156 346.945 423.767C347.252 424.373 347.406 425.14 347.406 426.068V433H345.73V426.182C345.73 425.325 345.507 424.657 345.062 424.179C344.617 423.696 344.007 423.455 343.23 423.455C342.695 423.455 342.217 423.571 341.795 423.803C341.379 424.035 341.05 424.373 340.808 424.818C340.567 425.263 340.446 425.803 340.446 426.438ZM353.679 433.256C352.988 433.256 352.361 433.125 351.797 432.865C351.234 432.6 350.786 432.219 350.455 431.722C350.123 431.22 349.958 430.614 349.958 429.903C349.958 429.278 350.081 428.772 350.327 428.384C350.573 427.991 350.902 427.683 351.314 427.46C351.726 427.238 352.181 427.072 352.678 426.963C353.18 426.849 353.684 426.759 354.191 426.693C354.853 426.608 355.391 426.544 355.803 426.501C356.22 426.454 356.523 426.376 356.712 426.267C356.906 426.158 357.003 425.969 357.003 425.699V425.642C357.003 424.941 356.811 424.397 356.428 424.009C356.049 423.62 355.474 423.426 354.702 423.426C353.902 423.426 353.274 423.601 352.82 423.952C352.365 424.302 352.046 424.676 351.861 425.074L350.27 424.506C350.554 423.843 350.933 423.327 351.407 422.957C351.885 422.583 352.406 422.323 352.969 422.176C353.537 422.025 354.096 421.949 354.645 421.949C354.996 421.949 355.398 421.991 355.853 422.077C356.312 422.157 356.755 422.325 357.181 422.581C357.612 422.837 357.969 423.223 358.253 423.739C358.537 424.255 358.679 424.946 358.679 425.812V433H357.003V431.523H356.918C356.804 431.759 356.615 432.013 356.35 432.283C356.085 432.553 355.732 432.782 355.291 432.972C354.851 433.161 354.314 433.256 353.679 433.256ZM353.935 431.75C354.598 431.75 355.157 431.62 355.611 431.359C356.07 431.099 356.416 430.763 356.648 430.351C356.885 429.939 357.003 429.506 357.003 429.051V427.517C356.932 427.602 356.776 427.68 356.534 427.751C356.298 427.818 356.023 427.877 355.711 427.929C355.403 427.976 355.102 428.019 354.809 428.057C354.52 428.09 354.285 428.118 354.105 428.142C353.67 428.199 353.263 428.291 352.884 428.419C352.51 428.542 352.207 428.729 351.975 428.98C351.747 429.226 351.634 429.562 351.634 429.989C351.634 430.571 351.849 431.011 352.28 431.31C352.716 431.603 353.267 431.75 353.935 431.75ZM369.466 424.534L367.96 424.96C367.865 424.709 367.726 424.465 367.541 424.229C367.361 423.987 367.115 423.788 366.802 423.632C366.49 423.476 366.09 423.398 365.602 423.398C364.935 423.398 364.378 423.552 363.933 423.859C363.493 424.162 363.273 424.548 363.273 425.017C363.273 425.434 363.424 425.763 363.727 426.004C364.03 426.246 364.504 426.447 365.148 426.608L366.767 427.006C367.742 427.242 368.469 427.605 368.947 428.092C369.426 428.575 369.665 429.198 369.665 429.96C369.665 430.585 369.485 431.144 369.125 431.636C368.77 432.129 368.273 432.517 367.633 432.801C366.994 433.085 366.251 433.227 365.403 433.227C364.291 433.227 363.37 432.986 362.641 432.503C361.911 432.02 361.45 431.314 361.256 430.386L362.847 429.989C362.998 430.576 363.284 431.016 363.706 431.31C364.132 431.603 364.688 431.75 365.375 431.75C366.156 431.75 366.776 431.584 367.236 431.253C367.7 430.917 367.932 430.514 367.932 430.045C367.932 429.667 367.799 429.349 367.534 429.094C367.269 428.833 366.862 428.639 366.312 428.511L364.494 428.085C363.495 427.848 362.761 427.482 362.293 426.984C361.829 426.482 361.597 425.855 361.597 425.102C361.597 424.487 361.769 423.942 362.115 423.469C362.465 422.995 362.941 422.624 363.543 422.354C364.149 422.084 364.835 421.949 365.602 421.949C366.682 421.949 367.529 422.186 368.145 422.659C368.765 423.133 369.205 423.758 369.466 424.534ZM382.671 422.091V423.511H376.79V422.091H382.671ZM378.551 433V420.585C378.551 419.96 378.698 419.439 378.992 419.023C379.285 418.606 379.666 418.294 380.135 418.085C380.604 417.877 381.099 417.773 381.62 417.773C382.032 417.773 382.368 417.806 382.628 417.872C382.889 417.938 383.083 418 383.211 418.057L382.728 419.506C382.642 419.477 382.524 419.442 382.372 419.399C382.226 419.357 382.032 419.335 381.79 419.335C381.236 419.335 380.836 419.475 380.59 419.754C380.348 420.034 380.228 420.443 380.228 420.983V433H378.551ZM389.002 433.227C388.018 433.227 387.153 432.993 386.41 432.524C385.671 432.055 385.094 431.4 384.677 430.557C384.265 429.714 384.059 428.729 384.059 427.602C384.059 426.466 384.265 425.474 384.677 424.626C385.094 423.779 385.671 423.121 386.41 422.652C387.153 422.183 388.018 421.949 389.002 421.949C389.987 421.949 390.849 422.183 391.588 422.652C392.331 423.121 392.909 423.779 393.321 424.626C393.737 425.474 393.946 426.466 393.946 427.602C393.946 428.729 393.737 429.714 393.321 430.557C392.909 431.4 392.331 432.055 391.588 432.524C390.849 432.993 389.987 433.227 389.002 433.227ZM389.002 431.722C389.751 431.722 390.366 431.53 390.849 431.146C391.332 430.763 391.689 430.259 391.921 429.634C392.153 429.009 392.269 428.331 392.269 427.602C392.269 426.873 392.153 426.194 391.921 425.564C391.689 424.934 391.332 424.425 390.849 424.037C390.366 423.649 389.751 423.455 389.002 423.455C388.254 423.455 387.639 423.649 387.156 424.037C386.673 424.425 386.315 424.934 386.083 425.564C385.851 426.194 385.735 426.873 385.735 427.602C385.735 428.331 385.851 429.009 386.083 429.634C386.315 430.259 386.673 430.763 387.156 431.146C387.639 431.53 388.254 431.722 389.002 431.722ZM396.504 433V422.091H398.124V423.739H398.237C398.436 423.199 398.796 422.761 399.317 422.425C399.838 422.089 400.425 421.92 401.078 421.92C401.201 421.92 401.355 421.923 401.54 421.928C401.724 421.932 401.864 421.939 401.959 421.949V423.653C401.902 423.639 401.772 423.618 401.568 423.589C401.369 423.556 401.159 423.54 400.936 423.54C400.406 423.54 399.932 423.651 399.516 423.874C399.104 424.091 398.777 424.394 398.535 424.783C398.299 425.166 398.18 425.604 398.18 426.097V433H396.504ZM41.3106 460.091V454.324H41.1686C41.0455 454.523 40.8703 454.774 40.643 455.077C40.4158 455.375 40.0914 455.643 39.67 455.879C39.2486 456.111 38.6875 456.227 37.9868 456.227C37.0777 456.227 36.2751 455.998 35.5791 455.538C34.8831 455.074 34.3386 454.421 33.9456 453.578C33.5526 452.731 33.3561 451.729 33.3561 450.574C33.3561 449.428 33.5526 448.434 33.9456 447.591C34.3386 446.748 34.8855 446.097 35.5862 445.638C36.287 445.179 37.0966 444.949 38.0152 444.949C38.7254 444.949 39.2865 445.067 39.6984 445.304C40.1151 445.536 40.4323 445.801 40.6501 446.099C40.8727 446.393 41.0455 446.634 41.1686 446.824H41.3675V445.091H42.9868V460.091H41.3106ZM38.2141 454.722C38.8864 454.722 39.4546 454.546 39.9186 454.196C40.3826 453.841 40.7354 453.351 40.9768 452.726C41.2183 452.096 41.3391 451.369 41.3391 450.545C41.3391 449.731 41.2207 449.018 40.9839 448.408C40.7472 447.792 40.3968 447.314 39.9328 446.973C39.4688 446.627 38.8959 446.455 38.2141 446.455C37.5038 446.455 36.912 446.637 36.4385 447.001C35.9697 447.361 35.617 447.851 35.3802 448.472C35.1482 449.087 35.0322 449.778 35.0322 450.545C35.0322 451.322 35.1506 452.027 35.3874 452.662C35.6288 453.292 35.9839 453.794 36.4527 454.168C36.9262 454.537 37.5133 454.722 38.2141 454.722ZM52.93 451.54V445.091H54.6061V456H52.93V454.153H52.8163C52.5606 454.707 52.1629 455.179 51.6231 455.567C51.0834 455.95 50.4016 456.142 49.5777 456.142C48.8959 456.142 48.2898 455.993 47.7595 455.695C47.2292 455.392 46.8125 454.937 46.5095 454.331C46.2065 453.72 46.055 452.951 46.055 452.023V445.091H47.7311V451.909C47.7311 452.705 47.9536 453.339 48.3987 453.812C48.8485 454.286 49.4214 454.523 50.1175 454.523C50.5341 454.523 50.9579 454.416 51.3888 454.203C51.8244 453.99 52.189 453.663 52.4825 453.223C52.7808 452.783 52.93 452.222 52.93 451.54ZM60.8863 456.256C60.195 456.256 59.5676 456.125 59.0042 455.865C58.4407 455.6 57.9933 455.219 57.6619 454.722C57.3304 454.22 57.1647 453.614 57.1647 452.903C57.1647 452.278 57.2878 451.772 57.534 451.384C57.7802 450.991 58.1093 450.683 58.5212 450.46C58.9332 450.238 59.3877 450.072 59.8849 449.963C60.3868 449.849 60.891 449.759 61.3976 449.693C62.0605 449.608 62.5979 449.544 63.0099 449.501C63.4265 449.454 63.7296 449.376 63.919 449.267C64.1131 449.158 64.2101 448.969 64.2101 448.699V448.642C64.2101 447.941 64.0184 447.397 63.6349 447.009C63.2561 446.62 62.6808 446.426 61.909 446.426C61.1088 446.426 60.4815 446.601 60.0269 446.952C59.5724 447.302 59.2528 447.676 59.0681 448.074L57.4772 447.506C57.7613 446.843 58.1401 446.327 58.6136 445.957C59.0918 445.583 59.6126 445.323 60.1761 445.176C60.7442 445.025 61.303 444.949 61.8522 444.949C62.2026 444.949 62.605 444.991 63.0596 445.077C63.5189 445.157 63.9616 445.325 64.3877 445.581C64.8186 445.837 65.1761 446.223 65.4601 446.739C65.7442 447.255 65.8863 447.946 65.8863 448.812V456H64.2101V454.523H64.1249C64.0113 454.759 63.8219 455.013 63.5567 455.283C63.2916 455.553 62.9388 455.782 62.4985 455.972C62.0582 456.161 61.5208 456.256 60.8863 456.256ZM61.142 454.75C61.8048 454.75 62.3636 454.62 62.8181 454.359C63.2774 454.099 63.623 453.763 63.855 453.351C64.0918 452.939 64.2101 452.506 64.2101 452.051V450.517C64.1391 450.602 63.9829 450.68 63.7414 450.751C63.5047 450.818 63.23 450.877 62.9175 450.929C62.6098 450.976 62.3091 451.019 62.0155 451.057C61.7267 451.09 61.4923 451.118 61.3124 451.142C60.8768 451.199 60.4696 451.291 60.0908 451.419C59.7168 451.542 59.4137 451.729 59.1817 451.98C58.9545 452.226 58.8408 452.562 58.8408 452.989C58.8408 453.571 59.0563 454.011 59.4871 454.31C59.9227 454.603 60.4744 454.75 61.142 454.75ZM70.6217 441.455V456H68.9456V441.455H70.6217ZM73.6917 456V445.091H75.3678V456H73.6917ZM74.544 443.273C74.2173 443.273 73.9355 443.161 73.6988 442.939C73.4668 442.716 73.3508 442.449 73.3508 442.136C73.3508 441.824 73.4668 441.556 73.6988 441.334C73.9355 441.111 74.2173 441 74.544 441C74.8707 441 75.15 441.111 75.382 441.334C75.6188 441.556 75.7371 441.824 75.7371 442.136C75.7371 442.449 75.6188 442.716 75.382 442.939C75.15 443.161 74.8707 443.273 74.544 443.273ZM83.1821 445.091V446.511H77.5287V445.091H83.1821ZM79.1764 442.477H80.8526V452.875C80.8526 453.348 80.9212 453.704 81.0585 453.94C81.2006 454.172 81.3805 454.329 81.5983 454.409C81.8208 454.485 82.0552 454.523 82.3014 454.523C82.4861 454.523 82.6376 454.513 82.756 454.494C82.8743 454.471 82.969 454.452 83.0401 454.438L83.381 455.943C83.2673 455.986 83.1087 456.028 82.9051 456.071C82.7015 456.118 82.4435 456.142 82.131 456.142C81.6575 456.142 81.1935 456.04 80.7389 455.837C80.2891 455.633 79.9151 455.323 79.6168 454.906C79.3232 454.49 79.1764 453.964 79.1764 453.33V442.477ZM88.9136 456.256C88.2223 456.256 87.595 456.125 87.0315 455.865C86.4681 455.6 86.0206 455.219 85.6892 454.722C85.3578 454.22 85.192 453.614 85.192 452.903C85.192 452.278 85.3151 451.772 85.5614 451.384C85.8076 450.991 86.1366 450.683 86.5486 450.46C86.9605 450.238 87.4151 450.072 87.9122 449.963C88.4141 449.849 88.9184 449.759 89.425 449.693C90.0879 449.608 90.6253 449.544 91.0372 449.501C91.4539 449.454 91.7569 449.376 91.9463 449.267C92.1404 449.158 92.2375 448.969 92.2375 448.699V448.642C92.2375 447.941 92.0457 447.397 91.6622 447.009C91.2834 446.62 90.7081 446.426 89.9364 446.426C89.1362 446.426 88.5088 446.601 88.0543 446.952C87.5997 447.302 87.2801 447.676 87.0954 448.074L85.5045 447.506C85.7886 446.843 86.1674 446.327 86.6409 445.957C87.1191 445.583 87.64 445.323 88.2034 445.176C88.7716 445.025 89.3303 444.949 89.8795 444.949C90.2299 444.949 90.6324 444.991 91.0869 445.077C91.5462 445.157 91.9889 445.325 92.4151 445.581C92.8459 445.837 93.2034 446.223 93.4875 446.739C93.7716 447.255 93.9136 447.946 93.9136 448.812V456H92.2375V454.523H92.1523C92.0386 454.759 91.8492 455.013 91.5841 455.283C91.3189 455.553 90.9662 455.782 90.5258 455.972C90.0855 456.161 89.5481 456.256 88.9136 456.256ZM89.1693 454.75C89.8322 454.75 90.3909 454.62 90.8454 454.359C91.3047 454.099 91.6504 453.763 91.8824 453.351C92.1191 452.939 92.2375 452.506 92.2375 452.051V450.517C92.1665 450.602 92.0102 450.68 91.7687 450.751C91.532 450.818 91.2574 450.877 90.9449 450.929C90.6371 450.976 90.3365 451.019 90.0429 451.057C89.7541 451.09 89.5197 451.118 89.3398 451.142C88.9042 451.199 88.497 451.291 88.1182 451.419C87.7441 451.542 87.4411 451.729 87.2091 451.98C86.9818 452.226 86.8682 452.562 86.8682 452.989C86.8682 453.571 87.0836 454.011 87.5145 454.31C87.9501 454.603 88.5017 454.75 89.1693 454.75ZM101.717 445.091V446.511H96.0638V445.091H101.717ZM97.7116 442.477H99.3877V452.875C99.3877 453.348 99.4564 453.704 99.5937 453.94C99.7357 454.172 99.9156 454.329 100.133 454.409C100.356 454.485 100.59 454.523 100.837 454.523C101.021 454.523 101.173 454.513 101.291 454.494C101.409 454.471 101.504 454.452 101.575 454.438L101.916 455.943C101.802 455.986 101.644 456.028 101.44 456.071C101.237 456.118 100.979 456.142 100.666 456.142C100.193 456.142 99.7286 456.04 99.2741 455.837C98.8243 455.633 98.4502 455.323 98.1519 454.906C97.8584 454.49 97.7116 453.964 97.7116 453.33V442.477ZM104.239 456V445.091H105.915V456H104.239ZM105.091 443.273C104.764 443.273 104.482 443.161 104.246 442.939C104.014 442.716 103.898 442.449 103.898 442.136C103.898 441.824 104.014 441.556 104.246 441.334C104.482 441.111 104.764 441 105.091 441C105.418 441 105.697 441.111 105.929 441.334C106.166 441.556 106.284 441.824 106.284 442.136C106.284 442.449 106.166 442.716 105.929 442.939C105.697 443.161 105.418 443.273 105.091 443.273ZM117.905 445.091L113.871 456H112.166L108.132 445.091H109.951L112.962 453.784H113.076L116.087 445.091H117.905ZM124.301 456.227C123.25 456.227 122.343 455.995 121.581 455.531C120.823 455.062 120.238 454.409 119.826 453.571C119.419 452.728 119.215 451.748 119.215 450.631C119.215 449.513 119.419 448.528 119.826 447.676C120.238 446.819 120.811 446.152 121.545 445.673C122.284 445.19 123.145 444.949 124.13 444.949C124.698 444.949 125.26 445.044 125.813 445.233C126.367 445.422 126.872 445.73 127.326 446.156C127.781 446.578 128.143 447.136 128.413 447.832C128.683 448.528 128.818 449.385 128.818 450.403V451.114H120.409V449.665H127.113C127.113 449.049 126.99 448.5 126.744 448.017C126.502 447.534 126.157 447.153 125.707 446.874C125.262 446.594 124.736 446.455 124.13 446.455C123.463 446.455 122.885 446.62 122.397 446.952C121.914 447.278 121.543 447.705 121.282 448.23C121.022 448.756 120.892 449.319 120.892 449.92V450.886C120.892 451.71 121.034 452.409 121.318 452.982C121.607 453.55 122.007 453.983 122.518 454.281C123.029 454.575 123.624 454.722 124.301 454.722C124.741 454.722 125.139 454.66 125.494 454.537C125.854 454.409 126.164 454.22 126.424 453.969C126.685 453.713 126.886 453.396 127.028 453.017L128.647 453.472C128.477 454.021 128.19 454.504 127.788 454.92C127.385 455.332 126.888 455.654 126.296 455.886C125.705 456.114 125.039 456.227 124.301 456.227ZM136.992 456V445.091H138.669V456H136.992ZM137.845 443.273C137.518 443.273 137.236 443.161 137 442.939C136.768 442.716 136.652 442.449 136.652 442.136C136.652 441.824 136.768 441.556 137 441.334C137.236 441.111 137.518 441 137.845 441C138.171 441 138.451 441.111 138.683 441.334C138.92 441.556 139.038 441.824 139.038 442.136C139.038 442.449 138.92 442.716 138.683 442.939C138.451 443.161 138.171 443.273 137.845 443.273ZM143.415 449.438V456H141.739V445.091H143.358V446.795H143.5C143.756 446.241 144.144 445.796 144.665 445.46C145.186 445.119 145.858 444.949 146.682 444.949C147.42 444.949 148.067 445.1 148.621 445.403C149.175 445.702 149.606 446.156 149.913 446.767C150.221 447.373 150.375 448.14 150.375 449.068V456H148.699V449.182C148.699 448.325 148.476 447.657 148.031 447.179C147.586 446.696 146.975 446.455 146.199 446.455C145.664 446.455 145.186 446.571 144.764 446.803C144.347 447.035 144.018 447.373 143.777 447.818C143.535 448.263 143.415 448.803 143.415 449.438ZM161.165 447.534L159.659 447.96C159.565 447.709 159.425 447.465 159.24 447.229C159.06 446.987 158.814 446.788 158.502 446.632C158.189 446.476 157.789 446.398 157.301 446.398C156.634 446.398 156.077 446.552 155.632 446.859C155.192 447.162 154.972 447.548 154.972 448.017C154.972 448.434 155.123 448.763 155.426 449.004C155.729 449.246 156.203 449.447 156.847 449.608L158.466 450.006C159.442 450.242 160.168 450.605 160.647 451.092C161.125 451.575 161.364 452.198 161.364 452.96C161.364 453.585 161.184 454.144 160.824 454.636C160.469 455.129 159.972 455.517 159.333 455.801C158.693 456.085 157.95 456.227 157.103 456.227C155.99 456.227 155.069 455.986 154.34 455.503C153.611 455.02 153.149 454.314 152.955 453.386L154.546 452.989C154.697 453.576 154.984 454.016 155.405 454.31C155.831 454.603 156.388 454.75 157.074 454.75C157.855 454.75 158.476 454.584 158.935 454.253C159.399 453.917 159.631 453.514 159.631 453.045C159.631 452.667 159.498 452.349 159.233 452.094C158.968 451.833 158.561 451.639 158.012 451.511L156.193 451.085C155.194 450.848 154.461 450.482 153.992 449.984C153.528 449.482 153.296 448.855 153.296 448.102C153.296 447.487 153.469 446.942 153.814 446.469C154.165 445.995 154.64 445.624 155.242 445.354C155.848 445.084 156.534 444.949 157.301 444.949C158.381 444.949 159.228 445.186 159.844 445.659C160.464 446.133 160.905 446.758 161.165 447.534ZM163.887 456V445.091H165.563V456H163.887ZM164.739 443.273C164.413 443.273 164.131 443.161 163.894 442.939C163.662 442.716 163.546 442.449 163.546 442.136C163.546 441.824 163.662 441.556 163.894 441.334C164.131 441.111 164.413 441 164.739 441C165.066 441 165.345 441.111 165.577 441.334C165.814 441.556 165.932 441.824 165.932 442.136C165.932 442.449 165.814 442.716 165.577 442.939C165.345 443.161 165.066 443.273 164.739 443.273ZM173.036 460.318C172.227 460.318 171.531 460.214 170.948 460.006C170.366 459.802 169.881 459.532 169.492 459.196C169.109 458.865 168.804 458.509 168.576 458.131L169.911 457.193C170.063 457.392 170.255 457.619 170.487 457.875C170.719 458.135 171.036 458.36 171.438 458.55C171.846 458.744 172.378 458.841 173.036 458.841C173.917 458.841 174.644 458.628 175.217 458.202C175.79 457.776 176.076 457.108 176.076 456.199V453.983H175.934C175.811 454.182 175.636 454.428 175.409 454.722C175.186 455.01 174.864 455.268 174.443 455.496C174.026 455.718 173.463 455.83 172.752 455.83C171.872 455.83 171.081 455.621 170.38 455.205C169.684 454.788 169.133 454.182 168.725 453.386C168.323 452.591 168.122 451.625 168.122 450.489C168.122 449.371 168.318 448.398 168.711 447.57C169.104 446.736 169.651 446.092 170.352 445.638C171.053 445.179 171.862 444.949 172.781 444.949C173.491 444.949 174.054 445.067 174.471 445.304C174.893 445.536 175.215 445.801 175.437 446.099C175.664 446.393 175.84 446.634 175.963 446.824H176.133V445.091H177.752V456.312C177.752 457.25 177.539 458.012 177.113 458.599C176.692 459.191 176.124 459.625 175.409 459.899C174.698 460.179 173.908 460.318 173.036 460.318ZM172.98 454.324C173.652 454.324 174.22 454.17 174.684 453.862C175.148 453.554 175.501 453.112 175.742 452.534C175.984 451.956 176.105 451.265 176.105 450.46C176.105 449.674 175.986 448.981 175.75 448.379C175.513 447.778 175.162 447.307 174.698 446.966C174.234 446.625 173.661 446.455 172.98 446.455C172.269 446.455 171.678 446.634 171.204 446.994C170.735 447.354 170.383 447.837 170.146 448.443C169.914 449.049 169.798 449.722 169.798 450.46C169.798 451.218 169.916 451.888 170.153 452.47C170.394 453.048 170.75 453.502 171.218 453.834C171.692 454.161 172.279 454.324 172.98 454.324ZM182.497 449.438V456H180.821V441.455H182.497V446.795H182.639C182.894 446.232 183.278 445.785 183.789 445.453C184.305 445.117 184.992 444.949 185.849 444.949C186.592 444.949 187.243 445.098 187.802 445.396C188.361 445.69 188.794 446.142 189.102 446.753C189.414 447.359 189.571 448.131 189.571 449.068V456H187.894V449.182C187.894 448.315 187.67 447.645 187.22 447.172C186.775 446.694 186.157 446.455 185.366 446.455C184.817 446.455 184.324 446.571 183.889 446.803C183.458 447.035 183.117 447.373 182.866 447.818C182.62 448.263 182.497 448.803 182.497 449.438ZM197.381 445.091V446.511H191.728V445.091H197.381ZM193.376 442.477H195.052V452.875C195.052 453.348 195.12 453.704 195.258 453.94C195.4 454.172 195.58 454.329 195.798 454.409C196.02 454.485 196.254 454.523 196.501 454.523C196.685 454.523 196.837 454.513 196.955 454.494C197.074 454.471 197.168 454.452 197.239 454.438L197.58 455.943C197.467 455.986 197.308 456.028 197.104 456.071C196.901 456.118 196.643 456.142 196.33 456.142C195.857 456.142 195.393 456.04 194.938 455.837C194.488 455.633 194.114 455.323 193.816 454.906C193.522 454.49 193.376 453.964 193.376 453.33V442.477ZM207.435 447.534L205.929 447.96C205.834 447.709 205.695 447.465 205.51 447.229C205.33 446.987 205.084 446.788 204.771 446.632C204.459 446.476 204.059 446.398 203.571 446.398C202.903 446.398 202.347 446.552 201.902 446.859C201.462 447.162 201.241 447.548 201.241 448.017C201.241 448.434 201.393 448.763 201.696 449.004C201.999 449.246 202.472 449.447 203.116 449.608L204.736 450.006C205.711 450.242 206.438 450.605 206.916 451.092C207.394 451.575 207.633 452.198 207.633 452.96C207.633 453.585 207.454 454.144 207.094 454.636C206.739 455.129 206.241 455.517 205.602 455.801C204.963 456.085 204.22 456.227 203.372 456.227C202.259 456.227 201.338 455.986 200.609 455.503C199.88 455.02 199.418 454.314 199.224 453.386L200.815 452.989C200.967 453.576 201.253 454.016 201.675 454.31C202.101 454.603 202.657 454.75 203.344 454.75C204.125 454.75 204.745 454.584 205.204 454.253C205.668 453.917 205.9 453.514 205.9 453.045C205.9 452.667 205.768 452.349 205.503 452.094C205.238 451.833 204.83 451.639 204.281 451.511L202.463 451.085C201.464 450.848 200.73 450.482 200.261 449.984C199.797 449.482 199.565 448.855 199.565 448.102C199.565 447.487 199.738 446.942 200.084 446.469C200.434 445.995 200.91 445.624 201.511 445.354C202.117 445.084 202.804 444.949 203.571 444.949C204.65 444.949 205.498 445.186 206.114 445.659C206.734 446.133 207.174 446.758 207.435 447.534ZM211.378 456.114C211.028 456.114 210.727 455.988 210.476 455.737C210.225 455.486 210.1 455.186 210.1 454.835C210.1 454.485 210.225 454.184 210.476 453.933C210.727 453.682 211.028 453.557 211.378 453.557C211.728 453.557 212.029 453.682 212.28 453.933C212.531 454.184 212.657 454.485 212.657 454.835C212.657 455.067 212.597 455.28 212.479 455.474C212.365 455.669 212.211 455.825 212.017 455.943C211.828 456.057 211.615 456.114 211.378 456.114Z" fill="black"/>
</svg>
