<svg width="444" height="532" viewBox="0 0 444 532" fill="none" xmlns="http://www.w3.org/2000/svg">
<path d="M0.666656 32C0.666656 14.3269 14.9935 0 32.6667 0H411.333C429.006 0 443.333 14.3269 443.333 32V500C443.333 517.673 429.006 532 411.333 532H32.6666C14.9935 532 0.666656 517.673 0.666656 500V32Z" fill="#ECFEFF"/>
<path d="M34.5842 52V34.5455H37.2178V49.733H45.1269V52H34.5842ZM51.7362 52.2898C50.9067 52.2898 50.1567 52.1364 49.4862 51.8295C48.8158 51.517 48.2845 51.0653 47.8925 50.4744C47.5061 49.8835 47.3129 49.1591 47.3129 48.3011C47.3129 47.5625 47.455 46.9545 47.7391 46.4773C48.0232 46 48.4067 45.6222 48.8896 45.3438C49.3726 45.0653 49.9124 44.8551 50.509 44.7131C51.1055 44.571 51.7135 44.4631 52.3328 44.3892C53.1169 44.2983 53.7533 44.2244 54.2419 44.1676C54.7305 44.1051 55.0857 44.0057 55.3073 43.8693C55.5288 43.733 55.6396 43.5114 55.6396 43.2045V43.1449C55.6396 42.4006 55.4294 41.8239 55.009 41.4148C54.5942 41.0057 53.9749 40.8011 53.151 40.8011C52.293 40.8011 51.6169 40.9915 51.1226 41.3722C50.634 41.7472 50.2959 42.1648 50.1084 42.625L47.7135 42.0795C47.9976 41.2841 48.4124 40.642 48.9578 40.1534C49.509 39.6591 50.1425 39.3011 50.8584 39.0795C51.5743 38.8523 52.3271 38.7386 53.1169 38.7386C53.6396 38.7386 54.1936 38.8011 54.7788 38.9261C55.3698 39.0455 55.9209 39.267 56.4323 39.5909C56.9493 39.9148 57.3726 40.3778 57.7021 40.9801C58.0317 41.5767 58.1965 42.3523 58.1965 43.3068V52H55.7078V50.2102H55.6055C55.4408 50.5398 55.1936 50.8636 54.8641 51.1818C54.5345 51.5 54.1112 51.7642 53.5942 51.9744C53.0771 52.1847 52.4578 52.2898 51.7362 52.2898ZM52.2902 50.2443C52.9948 50.2443 53.597 50.1051 54.097 49.8267C54.6027 49.5483 54.9862 49.1847 55.2476 48.7358C55.5146 48.2812 55.6482 47.7955 55.6482 47.2784V45.5909C55.5573 45.6818 55.3811 45.767 55.1198 45.8466C54.8641 45.9205 54.5715 45.9858 54.2419 46.0426C53.9124 46.0937 53.5913 46.142 53.2788 46.1875C52.9663 46.2273 52.705 46.2614 52.4948 46.2898C52.0004 46.3523 51.5487 46.4574 51.1396 46.6051C50.7362 46.7528 50.4124 46.9659 50.168 47.2443C49.9294 47.517 49.8101 47.8807 49.8101 48.3352C49.8101 48.9659 50.043 49.4432 50.509 49.767C50.9749 50.0852 51.5686 50.2443 52.2902 50.2443ZM69.8832 46.571V38.9091H72.4401V52H69.9344V49.733H69.798C69.4969 50.4318 69.0139 51.0142 68.3492 51.4801C67.6901 51.9403 66.869 52.1705 65.8861 52.1705C65.0452 52.1705 64.3009 51.9858 63.6531 51.6165C63.0111 51.2415 62.5054 50.6875 62.1361 49.9545C61.7724 49.2216 61.5906 48.3153 61.5906 47.2358V38.9091H64.1389V46.929C64.1389 47.821 64.3861 48.5312 64.8804 49.0597C65.3747 49.5881 66.0168 49.8523 66.8065 49.8523C67.2838 49.8523 67.7582 49.733 68.2298 49.4943C68.7071 49.2557 69.102 48.8949 69.4145 48.4119C69.7327 47.929 69.8889 47.3153 69.8832 46.571ZM78.4124 44.2273V52H75.8641V38.9091H78.3101V41.0398H78.472C78.7732 40.3466 79.2448 39.7898 79.8868 39.3693C80.5345 38.9489 81.3499 38.7386 82.3328 38.7386C83.2249 38.7386 84.0061 38.9261 84.6766 39.3011C85.347 39.6705 85.8669 40.2216 86.2362 40.9545C86.6055 41.6875 86.7902 42.5937 86.7902 43.6733V52H84.2419V43.9801C84.2419 43.0312 83.9948 42.2898 83.5004 41.7557C83.0061 41.2159 82.3271 40.946 81.4635 40.946C80.8726 40.946 80.347 41.0739 79.8868 41.3295C79.4323 41.5852 79.0715 41.9602 78.8044 42.4545C78.543 42.9432 78.4124 43.5341 78.4124 44.2273ZM95.722 52.2642C94.455 52.2642 93.3641 51.9773 92.4493 51.4034C91.5402 50.8239 90.8413 50.0256 90.3527 49.0085C89.8641 47.9915 89.6198 46.8267 89.6198 45.5142C89.6198 44.1847 89.8698 43.0114 90.3698 41.9943C90.8698 40.9716 91.5743 40.1733 92.4834 39.5994C93.3925 39.0256 94.4635 38.7386 95.6965 38.7386C96.6908 38.7386 97.5771 38.9233 98.3555 39.2926C99.134 39.6562 99.7618 40.1676 100.239 40.8267C100.722 41.4858 101.009 42.2557 101.1 43.1364H98.6198C98.4834 42.5227 98.1709 41.9943 97.6823 41.5511C97.1993 41.108 96.5516 40.8864 95.7391 40.8864C95.0288 40.8864 94.4067 41.0739 93.8726 41.4489C93.3442 41.8182 92.9323 42.3466 92.6368 43.0341C92.3413 43.7159 92.1936 44.5227 92.1936 45.4545C92.1936 46.4091 92.3385 47.233 92.6283 47.9261C92.918 48.6193 93.3271 49.1562 93.8555 49.5369C94.3896 49.9176 95.0175 50.108 95.7391 50.108C96.222 50.108 96.6595 50.0199 97.0516 49.8438C97.4493 49.6619 97.7817 49.4034 98.0487 49.0682C98.3215 48.733 98.5118 48.3295 98.6198 47.858H101.1C101.009 48.7045 100.733 49.4602 100.273 50.125C99.8129 50.7898 99.1965 51.3125 98.4237 51.6932C97.6567 52.0739 96.7561 52.2642 95.722 52.2642ZM106.373 44.2273V52H103.825V34.5455H106.339V41.0398H106.501C106.808 40.3352 107.277 39.7756 107.907 39.3608C108.538 38.946 109.362 38.7386 110.379 38.7386C111.277 38.7386 112.061 38.9233 112.731 39.2926C113.407 39.6619 113.93 40.2131 114.299 40.946C114.674 41.6733 114.862 42.5824 114.862 43.6733V52H112.314V43.9801C112.314 43.0199 112.066 42.2756 111.572 41.7472C111.078 41.2131 110.39 40.946 109.51 40.946C108.907 40.946 108.368 41.0739 107.89 41.3295C107.419 41.5852 107.047 41.9602 106.774 42.4545C106.507 42.9432 106.373 43.5341 106.373 44.2273ZM126.293 52H123.498L129.779 34.5455H132.821L139.103 52H136.307L131.373 37.7159H131.236L126.293 52ZM126.762 45.1648H135.83V47.3807H126.762V45.1648ZM144.257 34.5455V52H141.623V34.5455H144.257ZM153.583 36.8125V34.5455H167.091V36.8125H161.645V52H159.02V36.8125H153.583ZM173.615 52.2642C172.326 52.2642 171.215 51.9886 170.283 51.4375C169.357 50.8807 168.641 50.0994 168.135 49.0938C167.635 48.0824 167.385 46.8977 167.385 45.5398C167.385 44.1989 167.635 43.017 168.135 41.9943C168.641 40.9716 169.346 40.1733 170.249 39.5994C171.158 39.0256 172.221 38.7386 173.437 38.7386C174.175 38.7386 174.891 38.8608 175.584 39.1051C176.277 39.3494 176.9 39.733 177.451 40.2557C178.002 40.7784 178.437 41.4574 178.755 42.2926C179.073 43.1222 179.232 44.1307 179.232 45.3182V46.2216H168.826V44.3125H176.735C176.735 43.642 176.598 43.0483 176.326 42.5312C176.053 42.0085 175.669 41.5966 175.175 41.2955C174.687 40.9943 174.113 40.8438 173.454 40.8438C172.738 40.8438 172.113 41.0199 171.579 41.3722C171.05 41.7187 170.641 42.1733 170.351 42.7358C170.067 43.2926 169.925 43.8977 169.925 44.5511V46.0426C169.925 46.9176 170.079 47.6619 170.385 48.2756C170.698 48.8892 171.133 49.358 171.689 49.6818C172.246 50 172.897 50.1591 173.641 50.1591C174.124 50.1591 174.564 50.0909 174.962 49.9545C175.36 49.8125 175.704 49.6023 175.993 49.3239C176.283 49.0455 176.505 48.7017 176.658 48.2926L179.07 48.7273C178.877 49.4375 178.53 50.0597 178.03 50.5938C177.536 51.1222 176.914 51.5341 176.164 51.8295C175.419 52.1193 174.57 52.2642 173.615 52.2642ZM191.869 42.1051L189.559 42.5142C189.463 42.2187 189.309 41.9375 189.099 41.6705C188.895 41.4034 188.616 41.1847 188.264 41.0142C187.912 40.8437 187.471 40.7585 186.943 40.7585C186.221 40.7585 185.619 40.9205 185.136 41.2443C184.653 41.5625 184.412 41.9744 184.412 42.4801C184.412 42.9176 184.574 43.2699 184.897 43.5369C185.221 43.804 185.744 44.0227 186.466 44.1932L188.545 44.6705C189.75 44.9489 190.647 45.3778 191.238 45.9574C191.829 46.5369 192.125 47.2898 192.125 48.2159C192.125 49 191.897 49.6989 191.443 50.3125C190.994 50.9205 190.366 51.3977 189.559 51.7443C188.758 52.0909 187.829 52.2642 186.772 52.2642C185.307 52.2642 184.111 51.9517 183.184 51.3267C182.258 50.696 181.69 49.8011 181.48 48.642L183.943 48.267C184.096 48.9091 184.412 49.3949 184.889 49.7244C185.366 50.0483 185.988 50.2102 186.755 50.2102C187.591 50.2102 188.258 50.0369 188.758 49.6903C189.258 49.3381 189.508 48.9091 189.508 48.4034C189.508 47.9943 189.355 47.6506 189.048 47.3722C188.747 47.0937 188.284 46.8835 187.659 46.7415L185.443 46.2557C184.221 45.9773 183.318 45.5341 182.733 44.9261C182.153 44.3182 181.863 43.5483 181.863 42.6165C181.863 41.8437 182.079 41.1676 182.511 40.5881C182.943 40.0085 183.539 39.5568 184.301 39.233C185.062 38.9034 185.934 38.7386 186.917 38.7386C188.332 38.7386 189.446 39.0455 190.258 39.6591C191.071 40.267 191.608 41.0824 191.869 42.1051ZM201.037 38.9091V40.9545H193.887V38.9091H201.037ZM195.804 35.7727H198.353V48.1562C198.353 48.6506 198.427 49.0227 198.574 49.2727C198.722 49.517 198.912 49.6847 199.145 49.7756C199.384 49.8608 199.642 49.9034 199.921 49.9034C200.125 49.9034 200.304 49.8892 200.458 49.8608C200.611 49.8324 200.731 49.8097 200.816 49.7926L201.276 51.8977C201.128 51.9545 200.918 52.0114 200.645 52.0682C200.373 52.1307 200.032 52.1648 199.623 52.1705C198.952 52.1818 198.327 52.0625 197.748 51.8125C197.168 51.5625 196.699 51.1761 196.341 50.6534C195.983 50.1307 195.804 49.4744 195.804 48.6847V35.7727ZM213.455 42.1051L211.145 42.5142C211.049 42.2187 210.895 41.9375 210.685 41.6705C210.481 41.4034 210.202 41.1847 209.85 41.0142C209.498 40.8437 209.057 40.7585 208.529 40.7585C207.807 40.7585 207.205 40.9205 206.722 41.2443C206.239 41.5625 205.998 41.9744 205.998 42.4801C205.998 42.9176 206.16 43.2699 206.483 43.5369C206.807 43.804 207.33 44.0227 208.052 44.1932L210.131 44.6705C211.336 44.9489 212.233 45.3778 212.824 45.9574C213.415 46.5369 213.711 47.2898 213.711 48.2159C213.711 49 213.483 49.6989 213.029 50.3125C212.58 50.9205 211.952 51.3977 211.145 51.7443C210.344 52.0909 209.415 52.2642 208.358 52.2642C206.892 52.2642 205.696 51.9517 204.77 51.3267C203.844 50.696 203.276 49.8011 203.066 48.642L205.529 48.267C205.682 48.9091 205.998 49.3949 206.475 49.7244C206.952 50.0483 207.574 50.2102 208.341 50.2102C209.177 50.2102 209.844 50.0369 210.344 49.6903C210.844 49.3381 211.094 48.9091 211.094 48.4034C211.094 47.9943 210.941 47.6506 210.634 47.3722C210.333 47.0937 209.87 46.8835 209.245 46.7415L207.029 46.2557C205.807 45.9773 204.904 45.5341 204.319 44.9261C203.739 44.3182 203.449 43.5483 203.449 42.6165C203.449 41.8437 203.665 41.1676 204.097 40.5881C204.529 40.0085 205.125 39.5568 205.887 39.233C206.648 38.9034 207.52 38.7386 208.503 38.7386C209.918 38.7386 211.032 39.0455 211.844 39.6591C212.657 40.267 213.194 41.0824 213.455 42.1051Z" fill="black"/>
<rect x="32.6666" y="88" width="373" height="294" rx="23.2525" fill="white"/>
<path d="M46.6182 113.66C46.6182 107.912 51.2776 103.252 57.0252 103.252C62.7729 103.252 67.4323 107.912 67.4323 113.66C67.4323 119.407 62.7729 124.067 57.0252 124.067C51.2776 124.067 46.6182 119.407 46.6182 113.66Z" fill="#F87171"/>
<path d="M80.4412 113.66C80.4412 107.912 85.1006 103.252 90.8482 103.252C96.5959 103.252 101.255 107.912 101.255 113.66C101.255 119.407 96.5959 124.067 90.8482 124.067C85.1006 124.067 80.4412 119.407 80.4412 113.66Z" fill="#FACC15"/>
<path d="M114.264 113.66C114.264 107.912 118.924 103.252 124.671 103.252C130.419 103.252 135.078 107.912 135.078 113.66C135.078 119.407 130.419 124.067 124.671 124.067C118.924 124.067 114.264 119.407 114.264 113.66Z" fill="#4ADE80"/>
<path d="M148.087 113.66C148.087 107.193 153.329 101.952 159.795 101.952H380.007C386.473 101.952 391.715 107.193 391.715 113.66C391.715 120.126 386.473 125.368 380.007 125.368H159.795C153.329 125.368 148.087 120.126 148.087 113.66Z" fill="#F5F5F5"/>
<rect x="46.6182" y="139.319" width="345.097" height="228.73" rx="9.30101" fill="#F5F5F5"/>
<path d="M62.2288 160.133C62.2288 157.259 64.5585 154.929 67.4323 154.929H99.9544C102.828 154.929 105.158 157.259 105.158 160.133C105.158 163.007 102.828 165.336 99.9544 165.336H67.4323C64.5585 165.336 62.2288 163.007 62.2288 160.133Z" fill="#E5E5E5"/>
<path d="M62.2288 178.345C62.2288 175.471 64.5585 173.142 67.4323 173.142H99.9544C102.828 173.142 105.158 175.471 105.158 178.345C105.158 181.219 102.828 183.549 99.9544 183.549H67.4323C64.5585 183.549 62.2288 181.219 62.2288 178.345Z" fill="#E5E5E5"/>
<path d="M62.2288 196.558C62.2288 193.684 64.5585 191.354 67.4323 191.354H99.9544C102.828 191.354 105.158 193.684 105.158 196.558C105.158 199.431 102.828 201.761 99.9544 201.761H67.4323C64.5585 201.761 62.2288 199.431 62.2288 196.558Z" fill="#E5E5E5"/>
<path d="M123.494 161.414C123.494 157.833 126.398 154.929 129.98 154.929H265.09C268.672 154.929 271.575 157.833 271.575 161.414V187.356C271.575 190.937 268.672 193.841 265.09 193.841H129.98C126.398 193.841 123.494 190.937 123.494 187.356V161.414Z" fill="#E5E5E5"/>
<path d="M283.201 161.414C283.201 157.833 286.105 154.929 289.687 154.929H369.619C373.201 154.929 376.104 157.833 376.104 161.414V187.356C376.104 190.937 373.201 193.841 369.619 193.841H289.687C286.105 193.841 283.201 190.937 283.201 187.356V161.414Z" fill="#2563EB"/>
<path d="M298.453 180.385V168.548H302.673C303.59 168.548 304.351 168.706 304.956 169.022C305.565 169.338 306.02 169.775 306.32 170.334C306.621 170.889 306.771 171.53 306.771 172.258C306.771 172.983 306.619 173.621 306.314 174.172C306.014 174.719 305.559 175.145 304.95 175.449C304.345 175.753 303.584 175.906 302.667 175.906H299.471V174.368H302.505C303.083 174.368 303.553 174.285 303.916 174.12C304.282 173.954 304.55 173.713 304.719 173.397C304.889 173.081 304.973 172.702 304.973 172.258C304.973 171.811 304.887 171.424 304.713 171.097C304.544 170.769 304.276 170.519 303.91 170.345C303.548 170.168 303.072 170.079 302.482 170.079H300.24V180.385H298.453ZM304.297 175.044L307.222 180.385H305.187L302.32 175.044H304.297ZM314.43 176.703V171.507H316.164V180.385H314.464V178.848H314.372C314.168 179.322 313.84 179.717 313.389 180.033C312.942 180.345 312.385 180.501 311.719 180.501C311.149 180.501 310.644 180.376 310.204 180.125C309.769 179.871 309.426 179.495 309.176 178.998C308.929 178.501 308.806 177.886 308.806 177.154V171.507H310.534V176.946C310.534 177.551 310.702 178.033 311.037 178.391C311.372 178.749 311.807 178.929 312.343 178.929C312.667 178.929 312.989 178.848 313.308 178.686C313.632 178.524 313.9 178.279 314.112 177.952C314.328 177.624 314.434 177.208 314.43 176.703ZM320.214 175.114V180.385H318.486V171.507H320.145V172.952H320.255C320.459 172.482 320.779 172.104 321.214 171.819C321.653 171.534 322.206 171.391 322.873 171.391C323.478 171.391 324.008 171.519 324.463 171.773C324.917 172.023 325.27 172.397 325.52 172.894C325.771 173.391 325.896 174.006 325.896 174.738V180.385H324.168V174.946C324.168 174.303 324 173.8 323.665 173.438C323.33 173.071 322.869 172.888 322.283 172.888C321.883 172.888 321.526 172.975 321.214 173.149C320.906 173.322 320.661 173.576 320.48 173.912C320.303 174.243 320.214 174.644 320.214 175.114ZM336.666 171.507V172.894H331.816V171.507H336.666ZM333.117 169.38H334.845V177.778C334.845 178.114 334.895 178.366 334.995 178.536C335.095 178.701 335.225 178.815 335.383 178.877C335.544 178.934 335.72 178.963 335.909 178.963C336.047 178.963 336.169 178.954 336.273 178.934C336.377 178.915 336.458 178.9 336.515 178.888L336.828 180.316C336.727 180.354 336.585 180.393 336.4 180.431C336.215 180.474 335.984 180.497 335.706 180.501C335.252 180.509 334.828 180.428 334.435 180.258C334.042 180.089 333.724 179.827 333.481 179.472C333.238 179.117 333.117 178.672 333.117 178.137V169.38ZM342.309 180.564C341.434 180.564 340.681 180.378 340.049 180.004C339.42 179.626 338.935 179.096 338.592 178.414C338.253 177.728 338.083 176.925 338.083 176.004C338.083 175.095 338.253 174.293 338.592 173.599C338.935 172.906 339.413 172.364 340.025 171.975C340.642 171.586 341.363 171.391 342.187 171.391C342.688 171.391 343.174 171.474 343.644 171.64C344.114 171.806 344.536 172.066 344.91 172.42C345.283 172.775 345.578 173.235 345.794 173.802C346.01 174.364 346.118 175.048 346.118 175.854V176.466H339.06V175.172H344.424C344.424 174.717 344.332 174.314 344.147 173.964C343.962 173.609 343.702 173.33 343.366 173.125C343.035 172.921 342.646 172.819 342.199 172.819C341.713 172.819 341.289 172.939 340.927 173.177C340.569 173.413 340.291 173.721 340.095 174.102C339.902 174.48 339.806 174.89 339.806 175.333V176.345C339.806 176.938 339.91 177.443 340.118 177.859C340.33 178.276 340.625 178.593 341.002 178.813C341.38 179.029 341.821 179.137 342.326 179.137C342.653 179.137 342.952 179.091 343.222 178.998C343.492 178.902 343.725 178.759 343.921 178.57C344.118 178.381 344.268 178.148 344.372 177.871L346.008 178.166C345.877 178.647 345.642 179.069 345.303 179.432C344.967 179.79 344.545 180.069 344.037 180.27C343.532 180.466 342.956 180.564 342.309 180.564ZM354.688 173.675L353.122 173.952C353.056 173.752 352.952 173.561 352.81 173.38C352.671 173.199 352.482 173.05 352.243 172.935C352.004 172.819 351.706 172.761 351.347 172.761C350.858 172.761 350.449 172.871 350.122 173.091C349.794 173.307 349.631 173.586 349.631 173.929C349.631 174.226 349.74 174.465 349.96 174.646C350.18 174.827 350.534 174.975 351.024 175.091L352.434 175.414C353.251 175.603 353.86 175.894 354.26 176.287C354.661 176.68 354.862 177.191 354.862 177.819C354.862 178.351 354.707 178.825 354.399 179.241C354.095 179.653 353.669 179.977 353.122 180.212C352.578 180.447 351.948 180.564 351.232 180.564C350.237 180.564 349.426 180.352 348.798 179.929C348.17 179.501 347.785 178.894 347.642 178.108L349.313 177.854C349.417 178.289 349.631 178.618 349.954 178.842C350.278 179.062 350.7 179.171 351.22 179.171C351.786 179.171 352.239 179.054 352.578 178.819C352.917 178.58 353.087 178.289 353.087 177.946C353.087 177.669 352.983 177.435 352.775 177.247C352.571 177.058 352.257 176.915 351.833 176.819L350.33 176.489C349.501 176.301 348.889 176 348.492 175.588C348.099 175.175 347.902 174.653 347.902 174.021C347.902 173.497 348.049 173.039 348.342 172.646C348.634 172.253 349.039 171.946 349.555 171.727C350.072 171.503 350.663 171.391 351.33 171.391C352.289 171.391 353.045 171.599 353.596 172.016C354.147 172.428 354.511 172.981 354.688 173.675ZM360.906 171.507V172.894H356.057V171.507H360.906ZM357.357 169.38H359.085V177.778C359.085 178.114 359.135 178.366 359.236 178.536C359.336 178.701 359.465 178.815 359.623 178.877C359.785 178.934 359.96 178.963 360.149 178.963C360.288 178.963 360.409 178.954 360.513 178.934C360.617 178.915 360.698 178.9 360.756 178.888L361.068 180.316C360.968 180.354 360.825 180.393 360.64 180.431C360.455 180.474 360.224 180.497 359.947 180.501C359.492 180.509 359.068 180.428 358.675 180.258C358.282 180.089 357.964 179.827 357.721 179.472C357.478 179.117 357.357 178.672 357.357 178.137V169.38Z" fill="#FAFAFA"/>
<path d="M125.972 222.297C125.972 219.423 128.302 217.093 131.176 217.093H198.942C201.816 217.093 204.146 219.423 204.146 222.297C204.146 225.171 201.816 227.5 198.942 227.5H131.176C128.302 227.5 125.972 225.171 125.972 222.297Z" fill="#E5E5E5"/>
<path d="M211.951 222.297C211.951 219.423 214.281 217.093 217.155 217.093H284.922C287.795 217.093 290.125 219.423 290.125 222.297C290.125 225.171 287.795 227.5 284.922 227.5H217.155C214.281 227.5 211.951 225.171 211.951 222.297Z" fill="#E5E5E5"/>
<path d="M297.931 222.297C297.931 219.423 300.26 217.093 303.134 217.093H370.901C373.775 217.093 376.104 219.423 376.104 222.297C376.104 225.171 373.775 227.5 370.901 227.5H303.134C300.26 227.5 297.931 225.171 297.931 222.297Z" fill="#E5E5E5"/>
<path d="M125.972 255.956C125.972 253.083 128.302 250.753 131.176 250.753H198.942C201.816 250.753 204.146 253.083 204.146 255.956C204.146 258.83 201.816 261.16 198.942 261.16H131.176C128.302 261.16 125.972 258.83 125.972 255.956Z" fill="#E5E5E5"/>
<path d="M211.951 255.956C211.951 253.083 214.281 250.753 217.155 250.753H284.922C287.795 250.753 290.125 253.083 290.125 255.956C290.125 258.83 287.795 261.16 284.922 261.16H217.155C214.281 261.16 211.951 258.83 211.951 255.956Z" fill="#E5E5E5"/>
<path d="M297.931 255.956C297.931 253.083 300.26 250.753 303.134 250.753H370.901C373.775 250.753 376.104 253.083 376.104 255.956C376.104 258.83 373.775 261.16 370.901 261.16H303.134C300.26 261.16 297.931 258.83 297.931 255.956Z" fill="#E5E5E5"/>
<path d="M125.972 289.616C125.972 286.742 128.302 284.413 131.176 284.413H198.942C201.816 284.413 204.146 286.742 204.146 289.616C204.146 292.49 201.816 294.82 198.942 294.82H131.176C128.302 294.82 125.972 292.49 125.972 289.616Z" fill="#E5E5E5"/>
<path d="M211.951 289.616C211.951 286.742 214.281 284.413 217.155 284.413H284.922C287.795 284.413 290.125 286.742 290.125 289.616C290.125 292.49 287.795 294.82 284.922 294.82H217.155C214.281 294.82 211.951 292.49 211.951 289.616Z" fill="#E5E5E5"/>
<path d="M297.931 289.616C297.931 286.742 300.26 284.413 303.134 284.413H370.901C373.775 284.413 376.104 286.742 376.104 289.616C376.104 292.49 373.775 294.82 370.901 294.82H303.134C300.26 294.82 297.931 292.49 297.931 289.616Z" fill="#E5E5E5"/>
<path d="M42.3825 422.091C42.2973 421.371 41.9517 420.812 41.3456 420.415C40.7395 420.017 39.9962 419.818 39.1155 419.818C38.4716 419.818 37.9081 419.922 37.4251 420.131C36.9469 420.339 36.5729 420.625 36.303 420.99C36.0378 421.355 35.9053 421.769 35.9053 422.233C35.9053 422.621 35.9976 422.955 36.1823 423.234C36.3716 423.509 36.6131 423.739 36.9067 423.923C37.2002 424.103 37.508 424.252 37.83 424.371C38.1519 424.484 38.4479 424.577 38.7178 424.648L40.195 425.045C40.5738 425.145 40.9952 425.282 41.4592 425.457C41.928 425.633 42.3754 425.872 42.8016 426.175C43.2324 426.473 43.5876 426.857 43.8669 427.325C44.1463 427.794 44.2859 428.369 44.2859 429.051C44.2859 429.837 44.08 430.547 43.668 431.182C43.2608 431.816 42.6643 432.321 41.8783 432.695C41.097 433.069 40.1477 433.256 39.0303 433.256C37.9886 433.256 37.0866 433.088 36.3243 432.751C35.5667 432.415 34.9701 431.946 34.5345 431.345C34.1037 430.744 33.8598 430.045 33.803 429.25H35.6212C35.6685 429.799 35.8532 430.254 36.1751 430.614C36.5019 430.969 36.9138 431.234 37.4109 431.409C37.9128 431.58 38.4526 431.665 39.0303 431.665C39.7026 431.665 40.3063 431.556 40.8413 431.338C41.3764 431.116 41.8001 430.808 42.1126 430.415C42.4251 430.017 42.5814 429.553 42.5814 429.023C42.5814 428.54 42.4465 428.147 42.1766 427.844C41.9067 427.541 41.5516 427.295 41.1112 427.105C40.6709 426.916 40.195 426.75 39.6837 426.608L37.8939 426.097C36.7575 425.77 35.8579 425.304 35.195 424.697C34.5322 424.091 34.2007 423.298 34.2007 422.318C34.2007 421.504 34.4209 420.794 34.8612 420.188C35.3063 419.577 35.9029 419.103 36.651 418.767C37.4038 418.426 38.2443 418.256 39.1723 418.256C40.1098 418.256 40.9431 418.424 41.6723 418.76C42.4015 419.091 42.9791 419.546 43.4053 420.124C43.8361 420.701 44.0634 421.357 44.0871 422.091H42.3825ZM46.9546 437.091V422.091H48.5739V423.824H48.7728C48.8959 423.634 49.0664 423.393 49.2842 423.099C49.5067 422.801 49.8239 422.536 50.2359 422.304C50.6525 422.067 51.216 421.949 51.9262 421.949C52.8448 421.949 53.6544 422.179 54.3552 422.638C55.0559 423.097 55.6028 423.748 55.9958 424.591C56.3888 425.434 56.5853 426.428 56.5853 427.574C56.5853 428.729 56.3888 429.731 55.9958 430.578C55.6028 431.421 55.0583 432.074 54.3623 432.538C53.6663 432.998 52.8637 433.227 51.9546 433.227C51.2539 433.227 50.6928 433.111 50.2714 432.879C49.85 432.643 49.5256 432.375 49.2984 432.077C49.0711 431.774 48.8959 431.523 48.7728 431.324H48.6308V437.091H46.9546ZM48.6024 427.545C48.6024 428.369 48.7231 429.096 48.9646 429.726C49.206 430.351 49.5588 430.841 50.0228 431.196C50.4868 431.546 51.055 431.722 51.7274 431.722C52.4281 431.722 53.0129 431.537 53.4816 431.168C53.9551 430.794 54.3102 430.292 54.547 429.662C54.7884 429.027 54.9092 428.322 54.9092 427.545C54.9092 426.778 54.7908 426.087 54.5541 425.472C54.322 424.851 53.9693 424.361 53.4958 424.001C53.0271 423.637 52.4376 423.455 51.7274 423.455C51.0455 423.455 50.4726 423.627 50.0086 423.973C49.5446 424.314 49.1942 424.792 48.9575 425.408C48.7207 426.018 48.6024 426.731 48.6024 427.545ZM59.1421 433V422.091H60.8183V433H59.1421ZM59.9944 420.273C59.6677 420.273 59.386 420.161 59.1492 419.939C58.9172 419.716 58.8012 419.449 58.8012 419.136C58.8012 418.824 58.9172 418.556 59.1492 418.334C59.386 418.111 59.6677 418 59.9944 418C60.3211 418 60.6005 418.111 60.8325 418.334C61.0692 418.556 61.1876 418.824 61.1876 419.136C61.1876 419.449 61.0692 419.716 60.8325 419.939C60.6005 420.161 60.3211 420.273 59.9944 420.273ZM65.5644 426.438V433H63.8882V422.091H65.5075V423.795H65.6496C65.9053 423.241 66.2935 422.796 66.8144 422.46C67.3352 422.119 68.0075 421.949 68.8314 421.949C69.57 421.949 70.2163 422.1 70.7703 422.403C71.3243 422.702 71.7552 423.156 72.0629 423.767C72.3707 424.373 72.5246 425.14 72.5246 426.068V433H70.8484V426.182C70.8484 425.325 70.6259 424.657 70.1808 424.179C69.7358 423.696 69.125 423.455 68.3484 423.455C67.8134 423.455 67.3352 423.571 66.9138 423.803C66.4971 424.035 66.168 424.373 65.9266 424.818C65.6851 425.263 65.5644 425.803 65.5644 426.438ZM88.0874 428.54V422.091H89.7636V433H88.0874V431.153H87.9738C87.7181 431.707 87.3204 432.179 86.7806 432.567C86.2408 432.95 85.559 433.142 84.7352 433.142C84.0533 433.142 83.4473 432.993 82.917 432.695C82.3867 432.392 81.97 431.937 81.667 431.331C81.364 430.72 81.2124 429.951 81.2124 429.023V422.091H82.8886V428.909C82.8886 429.705 83.1111 430.339 83.5562 430.812C84.006 431.286 84.5789 431.523 85.2749 431.523C85.6916 431.523 86.1154 431.416 86.5462 431.203C86.9818 430.99 87.3464 430.663 87.64 430.223C87.9383 429.783 88.0874 429.222 88.0874 428.54ZM92.8335 437.091V422.091H94.4528V423.824H94.6517C94.7748 423.634 94.9453 423.393 95.1631 423.099C95.3856 422.801 95.7028 422.536 96.1148 422.304C96.5314 422.067 97.0949 421.949 97.8051 421.949C98.7237 421.949 99.5333 422.179 100.234 422.638C100.935 423.097 101.482 423.748 101.875 424.591C102.268 425.434 102.464 426.428 102.464 427.574C102.464 428.729 102.268 429.731 101.875 430.578C101.482 431.421 100.937 432.074 100.241 432.538C99.5452 432.998 98.7426 433.227 97.8335 433.227C97.1328 433.227 96.5717 433.111 96.1503 432.879C95.7289 432.643 95.4046 432.375 95.1773 432.077C94.95 431.774 94.7748 431.523 94.6517 431.324H94.5097V437.091H92.8335ZM94.4813 427.545C94.4813 428.369 94.602 429.096 94.8435 429.726C95.0849 430.351 95.4377 430.841 95.9017 431.196C96.3657 431.546 96.9339 431.722 97.6063 431.722C98.307 431.722 98.8918 431.537 99.3605 431.168C99.834 430.794 100.189 430.292 100.426 429.662C100.667 429.027 100.788 428.322 100.788 427.545C100.788 426.778 100.67 426.087 100.433 425.472C100.201 424.851 99.8482 424.361 99.3747 424.001C98.906 423.637 98.3165 423.455 97.6063 423.455C96.9244 423.455 96.3515 423.627 95.8875 423.973C95.4235 424.314 95.0731 424.792 94.8364 425.408C94.5996 426.018 94.4813 426.731 94.4813 427.545ZM111.47 433H109.623L114.964 418.455H116.782L122.123 433H120.277L115.93 420.756H115.816L111.47 433ZM112.152 427.318H119.595V428.881H112.152V427.318ZM126.15 418.455V433H124.389V418.455H126.15ZM135.08 437.091V422.091H136.699V423.824H136.898C137.021 423.634 137.191 423.393 137.409 423.099C137.632 422.801 137.949 422.536 138.361 422.304C138.778 422.067 139.341 421.949 140.051 421.949C140.97 421.949 141.779 422.179 142.48 422.638C143.181 423.097 143.728 423.748 144.121 424.591C144.514 425.434 144.71 426.428 144.71 427.574C144.71 428.729 144.514 429.731 144.121 430.578C143.728 431.421 143.183 432.074 142.487 432.538C141.791 432.998 140.989 433.227 140.08 433.227C139.379 433.227 138.818 433.111 138.396 432.879C137.975 432.643 137.651 432.375 137.423 432.077C137.196 431.774 137.021 431.523 136.898 431.324H136.756V437.091H135.08ZM136.727 427.545C136.727 428.369 136.848 429.096 137.09 429.726C137.331 430.351 137.684 430.841 138.148 431.196C138.612 431.546 139.18 431.722 139.852 431.722C140.553 431.722 141.138 431.537 141.607 431.168C142.08 430.794 142.435 430.292 142.672 429.662C142.913 429.027 143.034 428.322 143.034 427.545C143.034 426.778 142.916 426.087 142.679 425.472C142.447 424.851 142.094 424.361 141.621 424.001C141.152 423.637 140.563 423.455 139.852 423.455C139.171 423.455 138.598 423.627 138.134 423.973C137.67 424.314 137.319 424.792 137.082 425.408C136.846 426.018 136.727 426.731 136.727 427.545ZM151.841 433.227C150.79 433.227 149.883 432.995 149.121 432.531C148.363 432.062 147.778 431.409 147.367 430.571C146.959 429.728 146.756 428.748 146.756 427.631C146.756 426.513 146.959 425.528 147.367 424.676C147.778 423.819 148.351 423.152 149.085 422.673C149.824 422.19 150.686 421.949 151.671 421.949C152.239 421.949 152.8 422.044 153.354 422.233C153.908 422.422 154.412 422.73 154.867 423.156C155.321 423.578 155.683 424.136 155.953 424.832C156.223 425.528 156.358 426.385 156.358 427.403V428.114H147.949V426.665H154.653C154.653 426.049 154.53 425.5 154.284 425.017C154.043 424.534 153.697 424.153 153.247 423.874C152.802 423.594 152.277 423.455 151.671 423.455C151.003 423.455 150.425 423.62 149.938 423.952C149.455 424.278 149.083 424.705 148.823 425.23C148.562 425.756 148.432 426.319 148.432 426.92V427.886C148.432 428.71 148.574 429.409 148.858 429.982C149.147 430.55 149.547 430.983 150.058 431.281C150.57 431.575 151.164 431.722 151.841 431.722C152.281 431.722 152.679 431.66 153.034 431.537C153.394 431.409 153.704 431.22 153.965 430.969C154.225 430.713 154.426 430.396 154.568 430.017L156.188 430.472C156.017 431.021 155.731 431.504 155.328 431.92C154.926 432.332 154.429 432.654 153.837 432.886C153.245 433.114 152.58 433.227 151.841 433.227ZM158.908 433V422.091H160.527V423.739H160.641C160.84 423.199 161.199 422.761 161.72 422.425C162.241 422.089 162.828 421.92 163.482 421.92C163.605 421.92 163.759 421.923 163.943 421.928C164.128 421.932 164.268 421.939 164.362 421.949V423.653C164.305 423.639 164.175 423.618 163.972 423.589C163.773 423.556 163.562 423.54 163.34 423.54C162.809 423.54 162.336 423.651 161.919 423.874C161.507 424.091 161.18 424.394 160.939 424.783C160.702 425.166 160.584 425.604 160.584 426.097V433H158.908ZM174.076 424.534L172.571 424.96C172.476 424.709 172.336 424.465 172.152 424.229C171.972 423.987 171.726 423.788 171.413 423.632C171.101 423.476 170.7 423.398 170.213 423.398C169.545 423.398 168.989 423.552 168.544 423.859C168.103 424.162 167.883 424.548 167.883 425.017C167.883 425.434 168.035 425.763 168.338 426.004C168.641 426.246 169.114 426.447 169.758 426.608L171.378 427.006C172.353 427.242 173.08 427.605 173.558 428.092C174.036 428.575 174.275 429.198 174.275 429.96C174.275 430.585 174.095 431.144 173.736 431.636C173.38 432.129 172.883 432.517 172.244 432.801C171.605 433.085 170.861 433.227 170.014 433.227C168.901 433.227 167.98 432.986 167.251 432.503C166.522 432.02 166.06 431.314 165.866 430.386L167.457 429.989C167.609 430.576 167.895 431.016 168.316 431.31C168.743 431.603 169.299 431.75 169.986 431.75C170.767 431.75 171.387 431.584 171.846 431.253C172.31 430.917 172.542 430.514 172.542 430.045C172.542 429.667 172.41 429.349 172.145 429.094C171.879 428.833 171.472 428.639 170.923 428.511L169.105 428.085C168.106 427.848 167.372 427.482 166.903 426.984C166.439 426.482 166.207 425.855 166.207 425.102C166.207 424.487 166.38 423.942 166.726 423.469C167.076 422.995 167.552 422.624 168.153 422.354C168.759 422.084 169.446 421.949 170.213 421.949C171.292 421.949 172.14 422.186 172.755 422.659C173.376 423.133 173.816 423.758 174.076 424.534ZM181.23 433.227C180.245 433.227 179.381 432.993 178.638 432.524C177.899 432.055 177.322 431.4 176.905 430.557C176.493 429.714 176.287 428.729 176.287 427.602C176.287 426.466 176.493 425.474 176.905 424.626C177.322 423.779 177.899 423.121 178.638 422.652C179.381 422.183 180.245 421.949 181.23 421.949C182.215 421.949 183.077 422.183 183.815 422.652C184.559 423.121 185.136 423.779 185.548 424.626C185.965 425.474 186.173 426.466 186.173 427.602C186.173 428.729 185.965 429.714 185.548 430.557C185.136 431.4 184.559 432.055 183.815 432.524C183.077 432.993 182.215 433.227 181.23 433.227ZM181.23 431.722C181.978 431.722 182.594 431.53 183.077 431.146C183.56 430.763 183.917 430.259 184.149 429.634C184.381 429.009 184.497 428.331 184.497 427.602C184.497 426.873 184.381 426.194 184.149 425.564C183.917 424.934 183.56 424.425 183.077 424.037C182.594 423.649 181.978 423.455 181.23 423.455C180.482 423.455 179.867 423.649 179.384 424.037C178.901 424.425 178.543 424.934 178.311 425.564C178.079 426.194 177.963 426.873 177.963 427.602C177.963 428.331 178.079 429.009 178.311 429.634C178.543 430.259 178.901 430.763 179.384 431.146C179.867 431.53 180.482 431.722 181.23 431.722ZM190.408 426.438V433H188.732V422.091H190.351V423.795H190.493C190.749 423.241 191.137 422.796 191.658 422.46C192.179 422.119 192.851 421.949 193.675 421.949C194.414 421.949 195.06 422.1 195.614 422.403C196.168 422.702 196.599 423.156 196.907 423.767C197.214 424.373 197.368 425.14 197.368 426.068V433H195.692V426.182C195.692 425.325 195.47 424.657 195.025 424.179C194.58 423.696 193.969 423.455 193.192 423.455C192.657 423.455 192.179 423.571 191.758 423.803C191.341 424.035 191.012 424.373 190.77 424.818C190.529 425.263 190.408 425.803 190.408 426.438ZM203.641 433.256C202.95 433.256 202.323 433.125 201.759 432.865C201.196 432.6 200.748 432.219 200.417 431.722C200.086 431.22 199.92 430.614 199.92 429.903C199.92 429.278 200.043 428.772 200.289 428.384C200.535 427.991 200.864 427.683 201.276 427.46C201.688 427.238 202.143 427.072 202.64 426.963C203.142 426.849 203.646 426.759 204.153 426.693C204.816 426.608 205.353 426.544 205.765 426.501C206.182 426.454 206.485 426.376 206.674 426.267C206.868 426.158 206.965 425.969 206.965 425.699V425.642C206.965 424.941 206.774 424.397 206.39 424.009C206.011 423.62 205.436 423.426 204.664 423.426C203.864 423.426 203.237 423.601 202.782 423.952C202.327 424.302 202.008 424.676 201.823 425.074L200.232 424.506C200.516 423.843 200.895 423.327 201.369 422.957C201.847 422.583 202.368 422.323 202.931 422.176C203.499 422.025 204.058 421.949 204.607 421.949C204.958 421.949 205.36 421.991 205.815 422.077C206.274 422.157 206.717 422.325 207.143 422.581C207.574 422.837 207.931 423.223 208.215 423.739C208.499 424.255 208.641 424.946 208.641 425.812V433H206.965V431.523H206.88C206.766 431.759 206.577 432.013 206.312 432.283C206.047 432.553 205.694 432.782 205.254 432.972C204.813 433.161 204.276 433.256 203.641 433.256ZM203.897 431.75C204.56 431.75 205.119 431.62 205.573 431.359C206.033 431.099 206.378 430.763 206.61 430.351C206.847 429.939 206.965 429.506 206.965 429.051V427.517C206.894 427.602 206.738 427.68 206.497 427.751C206.26 427.818 205.985 427.877 205.673 427.929C205.365 427.976 205.064 428.019 204.771 428.057C204.482 428.09 204.247 428.118 204.068 428.142C203.632 428.199 203.225 428.291 202.846 428.419C202.472 428.542 202.169 428.729 201.937 428.98C201.71 429.226 201.596 429.562 201.596 429.989C201.596 430.571 201.811 431.011 202.242 431.31C202.678 431.603 203.229 431.75 203.897 431.75ZM219.428 424.534L217.922 424.96C217.828 424.709 217.688 424.465 217.503 424.229C217.323 423.987 217.077 423.788 216.765 423.632C216.452 423.476 216.052 423.398 215.564 423.398C214.897 423.398 214.34 423.552 213.895 423.859C213.455 424.162 213.235 424.548 213.235 425.017C213.235 425.434 213.386 425.763 213.689 426.004C213.992 426.246 214.466 426.447 215.11 426.608L216.729 427.006C217.705 427.242 218.431 427.605 218.91 428.092C219.388 428.575 219.627 429.198 219.627 429.96C219.627 430.585 219.447 431.144 219.087 431.636C218.732 432.129 218.235 432.517 217.596 432.801C216.956 433.085 216.213 433.227 215.365 433.227C214.253 433.227 213.332 432.986 212.603 432.503C211.874 432.02 211.412 431.314 211.218 430.386L212.809 429.989C212.96 430.576 213.247 431.016 213.668 431.31C214.094 431.603 214.651 431.75 215.337 431.75C216.118 431.75 216.739 431.584 217.198 431.253C217.662 430.917 217.894 430.514 217.894 430.045C217.894 429.667 217.761 429.349 217.496 429.094C217.231 428.833 216.824 428.639 216.275 428.511L214.456 428.085C213.457 427.848 212.723 427.482 212.255 426.984C211.791 426.482 211.559 425.855 211.559 425.102C211.559 424.487 211.731 423.942 212.077 423.469C212.428 422.995 212.903 422.624 213.505 422.354C214.111 422.084 214.797 421.949 215.564 421.949C216.644 421.949 217.491 422.186 218.107 422.659C218.727 423.133 219.168 423.758 219.428 424.534ZM232.519 422.091V423.511H226.866V422.091H232.519ZM228.514 419.477H230.19V429.875C230.19 430.348 230.258 430.704 230.396 430.94C230.538 431.172 230.718 431.329 230.935 431.409C231.158 431.485 231.392 431.523 231.639 431.523C231.823 431.523 231.975 431.513 232.093 431.494C232.211 431.471 232.306 431.452 232.377 431.438L232.718 432.943C232.604 432.986 232.446 433.028 232.242 433.071C232.039 433.118 231.781 433.142 231.468 433.142C230.995 433.142 230.531 433.04 230.076 432.837C229.626 432.633 229.252 432.323 228.954 431.906C228.66 431.49 228.514 430.964 228.514 430.33V419.477ZM239.355 433.227C238.37 433.227 237.506 432.993 236.763 432.524C236.024 432.055 235.447 431.4 235.03 430.557C234.618 429.714 234.412 428.729 234.412 427.602C234.412 426.466 234.618 425.474 235.03 424.626C235.447 423.779 236.024 423.121 236.763 422.652C237.506 422.183 238.37 421.949 239.355 421.949C240.34 421.949 241.202 422.183 241.94 422.652C242.684 423.121 243.261 423.779 243.673 424.626C244.09 425.474 244.298 426.466 244.298 427.602C244.298 428.729 244.09 429.714 243.673 430.557C243.261 431.4 242.684 432.055 241.94 432.524C241.202 432.993 240.34 433.227 239.355 433.227ZM239.355 431.722C240.103 431.722 240.719 431.53 241.202 431.146C241.685 430.763 242.042 430.259 242.274 429.634C242.506 429.009 242.622 428.331 242.622 427.602C242.622 426.873 242.506 426.194 242.274 425.564C242.042 424.934 241.685 424.425 241.202 424.037C240.719 423.649 240.103 423.455 239.355 423.455C238.607 423.455 237.992 423.649 237.509 424.037C237.026 424.425 236.668 424.934 236.436 425.564C236.204 426.194 236.088 426.873 236.088 427.602C236.088 428.331 236.204 429.009 236.436 429.634C236.668 430.259 237.026 430.763 237.509 431.146C237.992 431.53 238.607 431.722 239.355 431.722ZM254.158 426.438V433H252.482V422.091H254.101V423.795H254.243C254.499 423.241 254.887 422.796 255.408 422.46C255.929 422.119 256.601 421.949 257.425 421.949C258.164 421.949 258.81 422.1 259.364 422.403C259.918 422.702 260.349 423.156 260.657 423.767C260.964 424.373 261.118 425.14 261.118 426.068V433H259.442V426.182C259.442 425.325 259.22 424.657 258.775 424.179C258.33 423.696 257.719 423.455 256.942 423.455C256.407 423.455 255.929 423.571 255.508 423.803C255.091 424.035 254.762 424.373 254.52 424.818C254.279 425.263 254.158 425.803 254.158 426.438ZM267.391 433.256C266.7 433.256 266.073 433.125 265.509 432.865C264.946 432.6 264.498 432.219 264.167 431.722C263.836 431.22 263.67 430.614 263.67 429.903C263.67 429.278 263.793 428.772 264.039 428.384C264.285 427.991 264.614 427.683 265.026 427.46C265.438 427.238 265.893 427.072 266.39 426.963C266.892 426.849 267.396 426.759 267.903 426.693C268.566 426.608 269.103 426.544 269.515 426.501C269.932 426.454 270.235 426.376 270.424 426.267C270.618 426.158 270.715 425.969 270.715 425.699V425.642C270.715 424.941 270.524 424.397 270.14 424.009C269.761 423.62 269.186 423.426 268.414 423.426C267.614 423.426 266.987 423.601 266.532 423.952C266.077 424.302 265.758 424.676 265.573 425.074L263.982 424.506C264.266 423.843 264.645 423.327 265.119 422.957C265.597 422.583 266.118 422.323 266.681 422.176C267.249 422.025 267.808 421.949 268.357 421.949C268.708 421.949 269.11 421.991 269.565 422.077C270.024 422.157 270.467 422.325 270.893 422.581C271.324 422.837 271.681 423.223 271.965 423.739C272.249 424.255 272.391 424.946 272.391 425.812V433H270.715V431.523H270.63C270.516 431.759 270.327 432.013 270.062 432.283C269.797 432.553 269.444 432.782 269.004 432.972C268.563 433.161 268.026 433.256 267.391 433.256ZM267.647 431.75C268.31 431.75 268.869 431.62 269.323 431.359C269.783 431.099 270.128 430.763 270.36 430.351C270.597 429.939 270.715 429.506 270.715 429.051V427.517C270.644 427.602 270.488 427.68 270.247 427.751C270.01 427.818 269.735 427.877 269.423 427.929C269.115 427.976 268.814 428.019 268.521 428.057C268.232 428.09 267.997 428.118 267.818 428.142C267.382 428.199 266.975 428.291 266.596 428.419C266.222 428.542 265.919 428.729 265.687 428.98C265.46 429.226 265.346 429.562 265.346 429.989C265.346 430.571 265.561 431.011 265.992 431.31C266.428 431.603 266.979 431.75 267.647 431.75ZM283.981 422.091L279.946 433H278.242L274.208 422.091H276.026L279.037 430.784H279.151L282.162 422.091H283.981ZM286.193 433V422.091H287.869V433H286.193ZM287.045 420.273C286.718 420.273 286.437 420.161 286.2 419.939C285.968 419.716 285.852 419.449 285.852 419.136C285.852 418.824 285.968 418.556 286.2 418.334C286.437 418.111 286.718 418 287.045 418C287.372 418 287.651 418.111 287.883 418.334C288.12 418.556 288.238 418.824 288.238 419.136C288.238 419.449 288.12 419.716 287.883 419.939C287.651 420.161 287.372 420.273 287.045 420.273ZM295.342 437.318C294.533 437.318 293.837 437.214 293.254 437.006C292.672 436.802 292.187 436.532 291.798 436.196C291.415 435.865 291.109 435.509 290.882 435.131L292.217 434.193C292.369 434.392 292.561 434.619 292.793 434.875C293.025 435.135 293.342 435.36 293.744 435.55C294.152 435.744 294.684 435.841 295.342 435.841C296.223 435.841 296.95 435.628 297.523 435.202C298.096 434.776 298.382 434.108 298.382 433.199V430.983H298.24C298.117 431.182 297.942 431.428 297.715 431.722C297.492 432.01 297.17 432.268 296.749 432.496C296.332 432.718 295.769 432.83 295.058 432.83C294.178 432.83 293.387 432.621 292.686 432.205C291.99 431.788 291.439 431.182 291.031 430.386C290.629 429.591 290.428 428.625 290.428 427.489C290.428 426.371 290.624 425.398 291.017 424.57C291.41 423.736 291.957 423.092 292.658 422.638C293.359 422.179 294.168 421.949 295.087 421.949C295.797 421.949 296.36 422.067 296.777 422.304C297.198 422.536 297.52 422.801 297.743 423.099C297.97 423.393 298.145 423.634 298.269 423.824H298.439V422.091H300.058V433.312C300.058 434.25 299.845 435.012 299.419 435.599C298.998 436.191 298.43 436.625 297.715 436.899C297.004 437.179 296.214 437.318 295.342 437.318ZM295.286 431.324C295.958 431.324 296.526 431.17 296.99 430.862C297.454 430.554 297.807 430.112 298.048 429.534C298.29 428.956 298.411 428.265 298.411 427.46C298.411 426.674 298.292 425.981 298.055 425.379C297.819 424.778 297.468 424.307 297.004 423.966C296.54 423.625 295.967 423.455 295.286 423.455C294.575 423.455 293.984 423.634 293.51 423.994C293.041 424.354 292.689 424.837 292.452 425.443C292.22 426.049 292.104 426.722 292.104 427.46C292.104 428.218 292.222 428.888 292.459 429.47C292.7 430.048 293.055 430.502 293.524 430.834C293.998 431.161 294.585 431.324 295.286 431.324ZM306.337 433.256C305.645 433.256 305.018 433.125 304.455 432.865C303.891 432.6 303.444 432.219 303.112 431.722C302.781 431.22 302.615 430.614 302.615 429.903C302.615 429.278 302.738 428.772 302.984 428.384C303.231 427.991 303.56 427.683 303.972 427.46C304.384 427.238 304.838 427.072 305.335 426.963C305.837 426.849 306.341 426.759 306.848 426.693C307.511 426.608 308.048 426.544 308.46 426.501C308.877 426.454 309.18 426.376 309.369 426.267C309.564 426.158 309.661 425.969 309.661 425.699V425.642C309.661 424.941 309.469 424.397 309.085 424.009C308.707 423.62 308.131 423.426 307.359 423.426C306.559 423.426 305.932 423.601 305.477 423.952C305.023 424.302 304.703 424.676 304.519 425.074L302.928 424.506C303.212 423.843 303.591 423.327 304.064 422.957C304.542 422.583 305.063 422.323 305.626 422.176C306.195 422.025 306.753 421.949 307.303 421.949C307.653 421.949 308.055 421.991 308.51 422.077C308.969 422.157 309.412 422.325 309.838 422.581C310.269 422.837 310.626 423.223 310.911 423.739C311.195 424.255 311.337 424.946 311.337 425.812V433H309.661V431.523H309.575C309.462 431.759 309.272 432.013 309.007 432.283C308.742 432.553 308.389 432.782 307.949 432.972C307.509 433.161 306.971 433.256 306.337 433.256ZM306.592 431.75C307.255 431.75 307.814 431.62 308.269 431.359C308.728 431.099 309.073 430.763 309.305 430.351C309.542 429.939 309.661 429.506 309.661 429.051V427.517C309.59 427.602 309.433 427.68 309.192 427.751C308.955 427.818 308.68 427.877 308.368 427.929C308.06 427.976 307.76 428.019 307.466 428.057C307.177 428.09 306.943 428.118 306.763 428.142C306.327 428.199 305.92 428.291 305.541 428.419C305.167 428.542 304.864 428.729 304.632 428.98C304.405 429.226 304.291 429.562 304.291 429.989C304.291 430.571 304.507 431.011 304.938 431.31C305.373 431.603 305.925 431.75 306.592 431.75ZM319.14 422.091V423.511H313.487V422.091H319.14ZM315.135 419.477H316.811V429.875C316.811 430.348 316.879 430.704 317.017 430.94C317.159 431.172 317.339 431.329 317.557 431.409C317.779 431.485 318.013 431.523 318.26 431.523C318.444 431.523 318.596 431.513 318.714 431.494C318.833 431.471 318.927 431.452 318.998 431.438L319.339 432.943C319.226 432.986 319.067 433.028 318.863 433.071C318.66 433.118 318.402 433.142 318.089 433.142C317.616 433.142 317.152 433.04 316.697 432.837C316.247 432.633 315.873 432.323 315.575 431.906C315.281 431.49 315.135 430.964 315.135 430.33V419.477ZM326.118 433.227C325.067 433.227 324.16 432.995 323.398 432.531C322.641 432.062 322.056 431.409 321.644 430.571C321.237 429.728 321.033 428.748 321.033 427.631C321.033 426.513 321.237 425.528 321.644 424.676C322.056 423.819 322.629 423.152 323.363 422.673C324.101 422.19 324.963 421.949 325.948 421.949C326.516 421.949 327.077 422.044 327.631 422.233C328.185 422.422 328.689 422.73 329.144 423.156C329.598 423.578 329.961 424.136 330.231 424.832C330.5 425.528 330.635 426.385 330.635 427.403V428.114H322.226V426.665H328.931C328.931 426.049 328.808 425.5 328.562 425.017C328.32 424.534 327.974 424.153 327.525 423.874C327.08 423.594 326.554 423.455 325.948 423.455C325.28 423.455 324.703 423.62 324.215 423.952C323.732 424.278 323.36 424.705 323.1 425.23C322.839 425.756 322.709 426.319 322.709 426.92V427.886C322.709 428.71 322.851 429.409 323.135 429.982C323.424 430.55 323.824 430.983 324.336 431.281C324.847 431.575 325.441 431.722 326.118 431.722C326.559 431.722 326.956 431.66 327.312 431.537C327.671 431.409 327.981 431.22 328.242 430.969C328.502 430.713 328.704 430.396 328.846 430.017L330.465 430.472C330.294 431.021 330.008 431.504 329.606 431.92C329.203 432.332 328.706 432.654 328.114 432.886C327.522 433.114 326.857 433.227 326.118 433.227ZM339.89 437.091C339.606 437.091 339.352 437.067 339.13 437.02C338.907 436.977 338.753 436.935 338.668 436.892L339.094 435.415C339.501 435.519 339.861 435.557 340.174 435.528C340.486 435.5 340.763 435.36 341.005 435.109C341.251 434.863 341.476 434.463 341.679 433.909L341.992 433.057L337.958 422.091H339.776L342.787 430.784H342.901L345.912 422.091H347.731L343.1 434.591C342.892 435.154 342.633 435.621 342.326 435.99C342.018 436.364 341.66 436.641 341.253 436.821C340.851 437.001 340.396 437.091 339.89 437.091ZM353.984 433.227C352.999 433.227 352.135 432.993 351.392 432.524C350.653 432.055 350.075 431.4 349.659 430.557C349.247 429.714 349.041 428.729 349.041 427.602C349.041 426.466 349.247 425.474 349.659 424.626C350.075 423.779 350.653 423.121 351.392 422.652C352.135 422.183 352.999 421.949 353.984 421.949C354.969 421.949 355.831 422.183 356.569 422.652C357.313 423.121 357.89 423.779 358.302 424.626C358.719 425.474 358.927 426.466 358.927 427.602C358.927 428.729 358.719 429.714 358.302 430.557C357.89 431.4 357.313 432.055 356.569 432.524C355.831 432.993 354.969 433.227 353.984 433.227ZM353.984 431.722C354.732 431.722 355.348 431.53 355.831 431.146C356.314 430.763 356.671 430.259 356.903 429.634C357.135 429.009 357.251 428.331 357.251 427.602C357.251 426.873 357.135 426.194 356.903 425.564C356.671 424.934 356.314 424.425 355.831 424.037C355.348 423.649 354.732 423.455 353.984 423.455C353.236 423.455 352.62 423.649 352.138 424.037C351.655 424.425 351.297 424.934 351.065 425.564C350.833 426.194 350.717 426.873 350.717 427.602C350.717 428.331 350.833 429.009 351.065 429.634C351.297 430.259 351.655 430.763 352.138 431.146C352.62 431.53 353.236 431.722 353.984 431.722ZM368.361 428.54V422.091H370.037V433H368.361V431.153H368.247C367.992 431.707 367.594 432.179 367.054 432.567C366.514 432.95 365.832 433.142 365.009 433.142C364.327 433.142 363.721 432.993 363.19 432.695C362.66 432.392 362.243 431.937 361.94 431.331C361.637 430.72 361.486 429.951 361.486 429.023V422.091H363.162V428.909C363.162 429.705 363.385 430.339 363.83 430.812C364.279 431.286 364.852 431.523 365.548 431.523C365.965 431.523 366.389 431.416 366.82 431.203C367.255 430.99 367.62 430.663 367.913 430.223C368.212 429.783 368.361 429.222 368.361 428.54ZM373.107 433V422.091H374.726V423.739H374.84C375.039 423.199 375.399 422.761 375.919 422.425C376.44 422.089 377.027 421.92 377.681 421.92C377.804 421.92 377.958 421.923 378.142 421.928C378.327 421.932 378.467 421.939 378.562 421.949V423.653C378.505 423.639 378.374 423.618 378.171 423.589C377.972 423.556 377.761 423.54 377.539 423.54C377.008 423.54 376.535 423.651 376.118 423.874C375.706 424.091 375.38 424.394 375.138 424.783C374.901 425.166 374.783 425.604 374.783 426.097V433H373.107ZM36.6723 456L33.3484 445.091H35.1098L37.4678 453.443H37.5814L39.9109 445.091H41.7007L44.0019 453.415H44.1155L46.4734 445.091H48.2348L44.9109 456H43.2632L40.8769 447.619H40.7064L38.32 456H36.6723ZM54.6535 456.227C53.6024 456.227 52.6956 455.995 51.9333 455.531C51.1757 455.062 50.591 454.409 50.1791 453.571C49.7719 452.728 49.5683 451.748 49.5683 450.631C49.5683 449.513 49.7719 448.528 50.1791 447.676C50.591 446.819 51.1639 446.152 51.8978 445.673C52.6364 445.19 53.4982 444.949 54.483 444.949C55.0512 444.949 55.6123 445.044 56.1663 445.233C56.7202 445.422 57.2245 445.73 57.6791 446.156C58.1336 446.578 58.4958 447.136 58.7657 447.832C59.0356 448.528 59.1705 449.385 59.1705 450.403V451.114H50.7614V449.665H57.466C57.466 449.049 57.3429 448.5 57.0967 448.017C56.8552 447.534 56.5095 447.153 56.0597 446.874C55.6147 446.594 55.0891 446.455 54.483 446.455C53.8154 446.455 53.2378 446.62 52.7501 446.952C52.2671 447.278 51.8954 447.705 51.635 448.23C51.3746 448.756 51.2444 449.319 51.2444 449.92V450.886C51.2444 451.71 51.3864 452.409 51.6705 452.982C51.9594 453.55 52.3595 453.983 52.8708 454.281C53.3822 454.575 53.9764 454.722 54.6535 454.722C55.0938 454.722 55.4916 454.66 55.8467 454.537C56.2065 454.409 56.5166 454.22 56.7771 453.969C57.0375 453.713 57.2387 453.396 57.3808 453.017L59.0001 453.472C58.8296 454.021 58.5432 454.504 58.1407 454.92C57.7382 455.332 57.2411 455.654 56.6492 455.886C56.0574 456.114 55.3921 456.227 54.6535 456.227ZM61.9475 456V441.455H63.6237V446.824H63.7657C63.8888 446.634 64.0593 446.393 64.2771 446.099C64.4996 445.801 64.8168 445.536 65.2288 445.304C65.6454 445.067 66.2089 444.949 66.9191 444.949C67.8377 444.949 68.6473 445.179 69.3481 445.638C70.0488 446.097 70.5957 446.748 70.9887 447.591C71.3817 448.434 71.5782 449.428 71.5782 450.574C71.5782 451.729 71.3817 452.731 70.9887 453.578C70.5957 454.421 70.0512 455.074 69.3552 455.538C68.6592 455.998 67.8566 456.227 66.9475 456.227C66.2468 456.227 65.6857 456.111 65.2643 455.879C64.8429 455.643 64.5185 455.375 64.2913 455.077C64.064 454.774 63.8888 454.523 63.7657 454.324H63.5668V456H61.9475ZM63.5952 450.545C63.5952 451.369 63.716 452.096 63.9575 452.726C64.1989 453.351 64.5517 453.841 65.0157 454.196C65.4797 454.546 66.0479 454.722 66.7202 454.722C67.421 454.722 68.0058 454.537 68.4745 454.168C68.948 453.794 69.3031 453.292 69.5399 452.662C69.7813 452.027 69.9021 451.322 69.9021 450.545C69.9021 449.778 69.7837 449.087 69.547 448.472C69.3149 447.851 68.9622 447.361 68.4887 447.001C68.02 446.637 67.4305 446.455 66.7202 446.455C66.0384 446.455 65.4655 446.627 65.0015 446.973C64.5375 447.314 64.1871 447.792 63.9504 448.408C63.7136 449.018 63.5952 449.731 63.5952 450.545ZM82.9774 456.256C82.2861 456.256 81.6587 456.125 81.0952 455.865C80.5318 455.6 80.0844 455.219 79.7529 454.722C79.4215 454.22 79.2558 453.614 79.2558 452.903C79.2558 452.278 79.3789 451.772 79.6251 451.384C79.8713 450.991 80.2004 450.683 80.6123 450.46C81.0242 450.238 81.4788 450.072 81.9759 449.963C82.4778 449.849 82.9821 449.759 83.4887 449.693C84.1516 449.608 84.689 449.544 85.1009 449.501C85.5176 449.454 85.8206 449.376 86.01 449.267C86.2041 449.158 86.3012 448.969 86.3012 448.699V448.642C86.3012 447.941 86.1095 447.397 85.7259 447.009C85.3471 446.62 84.7719 446.426 84.0001 446.426C83.1999 446.426 82.5725 446.601 82.118 446.952C81.6634 447.302 81.3438 447.676 81.1592 448.074L79.5683 447.506C79.8524 446.843 80.2311 446.327 80.7046 445.957C81.1828 445.583 81.7037 445.323 82.2671 445.176C82.8353 445.025 83.394 444.949 83.9433 444.949C84.2936 444.949 84.6961 444.991 85.1506 445.077C85.6099 445.157 86.0526 445.325 86.4788 445.581C86.9096 445.837 87.2671 446.223 87.5512 446.739C87.8353 447.255 87.9774 447.946 87.9774 448.812V456H86.3012V454.523H86.216C86.1024 454.759 85.913 455.013 85.6478 455.283C85.3827 455.553 85.0299 455.782 84.5896 455.972C84.1492 456.161 83.6118 456.256 82.9774 456.256ZM83.233 454.75C83.8959 454.75 84.4546 454.62 84.9092 454.359C85.3684 454.099 85.7141 453.763 85.9461 453.351C86.1828 452.939 86.3012 452.506 86.3012 452.051V450.517C86.2302 450.602 86.0739 450.68 85.8325 450.751C85.5957 450.818 85.3211 450.877 85.0086 450.929C84.7008 450.976 84.4002 451.019 84.1066 451.057C83.8178 451.09 83.5834 451.118 83.4035 451.142C82.9679 451.199 82.5607 451.291 82.1819 451.419C81.8078 451.542 81.5048 451.729 81.2728 451.98C81.0455 452.226 80.9319 452.562 80.9319 452.989C80.9319 453.571 81.1473 454.011 81.5782 454.31C82.0138 454.603 82.5654 454.75 83.233 454.75ZM91.0367 460.091V445.091H92.656V446.824H92.8548C92.9779 446.634 93.1484 446.393 93.3662 446.099C93.5887 445.801 93.906 445.536 94.3179 445.304C94.7346 445.067 95.298 444.949 96.0082 444.949C96.9268 444.949 97.7365 445.179 98.4372 445.638C99.138 446.097 99.6849 446.748 100.078 447.591C100.471 448.434 100.667 449.428 100.667 450.574C100.667 451.729 100.471 452.731 100.078 453.578C99.6849 454.421 99.1403 455.074 98.4443 455.538C97.7483 455.998 96.9457 456.227 96.0367 456.227C95.3359 456.227 94.7748 456.111 94.3534 455.879C93.932 455.643 93.6077 455.375 93.3804 455.077C93.1531 454.774 92.9779 454.523 92.8548 454.324H92.7128V460.091H91.0367ZM92.6844 450.545C92.6844 451.369 92.8051 452.096 93.0466 452.726C93.2881 453.351 93.6408 453.841 94.1048 454.196C94.5689 454.546 95.137 454.722 95.8094 454.722C96.5101 454.722 97.0949 454.537 97.5636 454.168C98.0371 453.794 98.3922 453.292 98.629 452.662C98.8705 452.027 98.9912 451.322 98.9912 450.545C98.9912 449.778 98.8728 449.087 98.6361 448.472C98.4041 447.851 98.0513 447.361 97.5778 447.001C97.1091 446.637 96.5196 446.455 95.8094 446.455C95.1276 446.455 94.5546 446.627 94.0906 446.973C93.6266 447.314 93.2762 447.792 93.0395 448.408C92.8028 449.018 92.6844 449.731 92.6844 450.545ZM103.224 460.091V445.091H104.843V446.824H105.042C105.165 446.634 105.336 446.393 105.554 446.099C105.776 445.801 106.093 445.536 106.505 445.304C106.922 445.067 107.486 444.949 108.196 444.949C109.114 444.949 109.924 445.179 110.625 445.638C111.325 446.097 111.872 446.748 112.265 447.591C112.658 448.434 112.855 449.428 112.855 450.574C112.855 451.729 112.658 452.731 112.265 453.578C111.872 454.421 111.328 455.074 110.632 455.538C109.936 455.998 109.133 456.227 108.224 456.227C107.523 456.227 106.962 456.111 106.541 455.879C106.12 455.643 105.795 455.375 105.568 455.077C105.341 454.774 105.165 454.523 105.042 454.324H104.9V460.091H103.224ZM104.872 450.545C104.872 451.369 104.993 452.096 105.234 452.726C105.476 453.351 105.828 453.841 106.292 454.196C106.756 454.546 107.325 454.722 107.997 454.722C108.698 454.722 109.282 454.537 109.751 454.168C110.225 453.794 110.58 453.292 110.816 452.662C111.058 452.027 111.179 451.322 111.179 450.545C111.179 449.778 111.06 449.087 110.824 448.472C110.592 447.851 110.239 447.361 109.765 447.001C109.297 446.637 108.707 446.455 107.997 446.455C107.315 446.455 106.742 446.627 106.278 446.973C105.814 447.314 105.464 447.792 105.227 448.408C104.99 449.018 104.872 449.731 104.872 450.545ZM117.912 454.011L117.798 454.778C117.718 455.318 117.594 455.896 117.429 456.511C117.268 457.127 117.1 457.707 116.924 458.251C116.749 458.796 116.605 459.229 116.491 459.551H115.213C115.274 459.248 115.355 458.848 115.454 458.351C115.554 457.854 115.653 457.297 115.753 456.682C115.857 456.071 115.942 455.446 116.008 454.807L116.093 454.011H117.912ZM131.074 456.227C130.051 456.227 129.171 455.986 128.432 455.503C127.693 455.02 127.125 454.355 126.727 453.507C126.33 452.66 126.131 451.691 126.131 450.602C126.131 449.494 126.334 448.517 126.742 447.669C127.153 446.817 127.726 446.152 128.46 445.673C129.199 445.19 130.061 444.949 131.046 444.949C131.813 444.949 132.504 445.091 133.119 445.375C133.735 445.659 134.239 446.057 134.632 446.568C135.025 447.08 135.269 447.676 135.364 448.358H133.688C133.56 447.861 133.276 447.42 132.835 447.037C132.4 446.649 131.813 446.455 131.074 446.455C130.421 446.455 129.848 446.625 129.355 446.966C128.868 447.302 128.486 447.778 128.212 448.393C127.942 449.004 127.807 449.722 127.807 450.545C127.807 451.388 127.939 452.122 128.205 452.747C128.475 453.372 128.853 453.857 129.341 454.203C129.833 454.549 130.411 454.722 131.074 454.722C131.51 454.722 131.905 454.646 132.26 454.494C132.615 454.343 132.916 454.125 133.162 453.841C133.408 453.557 133.583 453.216 133.688 452.818H135.364C135.269 453.462 135.035 454.042 134.661 454.558C134.291 455.07 133.801 455.477 133.19 455.78C132.584 456.078 131.879 456.227 131.074 456.227ZM141.024 456.256C140.333 456.256 139.706 456.125 139.142 455.865C138.579 455.6 138.131 455.219 137.8 454.722C137.468 454.22 137.303 453.614 137.303 452.903C137.303 452.278 137.426 451.772 137.672 451.384C137.918 450.991 138.247 450.683 138.659 450.46C139.071 450.238 139.526 450.072 140.023 449.963C140.525 449.849 141.029 449.759 141.536 449.693C142.198 449.608 142.736 449.544 143.148 449.501C143.564 449.454 143.868 449.376 144.057 449.267C144.251 449.158 144.348 448.969 144.348 448.699V448.642C144.348 447.941 144.156 447.397 143.773 447.009C143.394 446.62 142.819 446.426 142.047 446.426C141.247 446.426 140.619 446.601 140.165 446.952C139.71 447.302 139.391 447.676 139.206 448.074L137.615 447.506C137.899 446.843 138.278 446.327 138.751 445.957C139.23 445.583 139.751 445.323 140.314 445.176C140.882 445.025 141.441 444.949 141.99 444.949C142.341 444.949 142.743 444.991 143.198 445.077C143.657 445.157 144.1 445.325 144.526 445.581C144.957 445.837 145.314 446.223 145.598 446.739C145.882 447.255 146.024 447.946 146.024 448.812V456H144.348V454.523H144.263C144.149 454.759 143.96 455.013 143.695 455.283C143.43 455.553 143.077 455.782 142.636 455.972C142.196 456.161 141.659 456.256 141.024 456.256ZM141.28 454.75C141.943 454.75 142.501 454.62 142.956 454.359C143.415 454.099 143.761 453.763 143.993 453.351C144.23 452.939 144.348 452.506 144.348 452.051V450.517C144.277 450.602 144.121 450.68 143.879 450.751C143.643 450.818 143.368 450.877 143.055 450.929C142.748 450.976 142.447 451.019 142.153 451.057C141.865 451.09 141.63 451.118 141.45 451.142C141.015 451.199 140.608 451.291 140.229 451.419C139.855 451.542 139.552 451.729 139.32 451.98C139.092 452.226 138.979 452.562 138.979 452.989C138.979 453.571 139.194 454.011 139.625 454.31C140.061 454.603 140.612 454.75 141.28 454.75ZM149.084 460.091V445.091H150.703V446.824H150.902C151.025 446.634 151.195 446.393 151.413 446.099C151.636 445.801 151.953 445.536 152.365 445.304C152.781 445.067 153.345 444.949 154.055 444.949C154.974 444.949 155.783 445.179 156.484 445.638C157.185 446.097 157.732 446.748 158.125 447.591C158.518 448.434 158.714 449.428 158.714 450.574C158.714 451.729 158.518 452.731 158.125 453.578C157.732 454.421 157.187 455.074 156.491 455.538C155.795 455.998 154.993 456.227 154.084 456.227C153.383 456.227 152.822 456.111 152.4 455.879C151.979 455.643 151.655 455.375 151.427 455.077C151.2 454.774 151.025 454.523 150.902 454.324H150.76V460.091H149.084ZM150.731 450.545C150.731 451.369 150.852 452.096 151.093 452.726C151.335 453.351 151.688 453.841 152.152 454.196C152.616 454.546 153.184 454.722 153.856 454.722C154.557 454.722 155.142 454.537 155.611 454.168C156.084 453.794 156.439 453.292 156.676 452.662C156.917 452.027 157.038 451.322 157.038 450.545C157.038 449.778 156.92 449.087 156.683 448.472C156.451 447.851 156.098 447.361 155.625 447.001C155.156 446.637 154.566 446.455 153.856 446.455C153.174 446.455 152.602 446.627 152.138 446.973C151.673 447.314 151.323 447.792 151.086 448.408C150.85 449.018 150.731 449.731 150.731 450.545ZM166.015 445.091V446.511H160.362V445.091H166.015ZM162.01 442.477H163.686V452.875C163.686 453.348 163.754 453.704 163.892 453.94C164.034 454.172 164.214 454.329 164.432 454.409C164.654 454.485 164.888 454.523 165.135 454.523C165.319 454.523 165.471 454.513 165.589 454.494C165.708 454.471 165.802 454.452 165.873 454.438L166.214 455.943C166.101 455.986 165.942 456.028 165.738 456.071C165.535 456.118 165.277 456.142 164.964 456.142C164.491 456.142 164.027 456.04 163.572 455.837C163.122 455.633 162.748 455.323 162.45 454.906C162.156 454.49 162.01 453.964 162.01 453.33V442.477ZM175.412 451.54V445.091H177.088V456H175.412V454.153H175.298C175.042 454.707 174.645 455.179 174.105 455.567C173.565 455.95 172.883 456.142 172.059 456.142C171.378 456.142 170.772 455.993 170.241 455.695C169.711 455.392 169.294 454.937 168.991 454.331C168.688 453.72 168.537 452.951 168.537 452.023V445.091H170.213V451.909C170.213 452.705 170.435 453.339 170.88 453.812C171.33 454.286 171.903 454.523 172.599 454.523C173.016 454.523 173.44 454.416 173.87 454.203C174.306 453.99 174.671 453.663 174.964 453.223C175.263 452.783 175.412 452.222 175.412 451.54ZM180.158 456V445.091H181.777V446.739H181.891C182.09 446.199 182.449 445.761 182.97 445.425C183.491 445.089 184.078 444.92 184.732 444.92C184.855 444.92 185.009 444.923 185.193 444.928C185.378 444.932 185.518 444.939 185.612 444.949V446.653C185.555 446.639 185.425 446.618 185.222 446.589C185.023 446.556 184.812 446.54 184.59 446.54C184.059 446.54 183.586 446.651 183.169 446.874C182.757 447.091 182.43 447.394 182.189 447.783C181.952 448.166 181.834 448.604 181.834 449.097V456H180.158ZM191.841 456.227C190.79 456.227 189.883 455.995 189.121 455.531C188.363 455.062 187.778 454.409 187.367 453.571C186.959 452.728 186.756 451.748 186.756 450.631C186.756 449.513 186.959 448.528 187.367 447.676C187.778 446.819 188.351 446.152 189.085 445.673C189.824 445.19 190.686 444.949 191.671 444.949C192.239 444.949 192.8 445.044 193.354 445.233C193.908 445.422 194.412 445.73 194.867 446.156C195.321 446.578 195.683 447.136 195.953 447.832C196.223 448.528 196.358 449.385 196.358 450.403V451.114H187.949V449.665H194.653C194.653 449.049 194.53 448.5 194.284 448.017C194.043 447.534 193.697 447.153 193.247 446.874C192.802 446.594 192.277 446.455 191.671 446.455C191.003 446.455 190.425 446.62 189.938 446.952C189.455 447.278 189.083 447.705 188.823 448.23C188.562 448.756 188.432 449.319 188.432 449.92V450.886C188.432 451.71 188.574 452.409 188.858 452.982C189.147 453.55 189.547 453.983 190.058 454.281C190.57 454.575 191.164 454.722 191.841 454.722C192.281 454.722 192.679 454.66 193.034 454.537C193.394 454.409 193.704 454.22 193.965 453.969C194.225 453.713 194.426 453.396 194.568 453.017L196.188 453.472C196.017 454.021 195.731 454.504 195.328 454.92C194.926 455.332 194.429 455.654 193.837 455.886C193.245 456.114 192.58 456.227 191.841 456.227ZM212.26 447.534L210.754 447.96C210.66 447.709 210.52 447.465 210.335 447.229C210.155 446.987 209.909 446.788 209.597 446.632C209.284 446.476 208.884 446.398 208.396 446.398C207.729 446.398 207.172 446.552 206.727 446.859C206.287 447.162 206.067 447.548 206.067 448.017C206.067 448.434 206.218 448.763 206.521 449.004C206.824 449.246 207.298 449.447 207.942 449.608L209.561 450.006C210.537 450.242 211.263 450.605 211.742 451.092C212.22 451.575 212.459 452.198 212.459 452.96C212.459 453.585 212.279 454.144 211.919 454.636C211.564 455.129 211.067 455.517 210.428 455.801C209.788 456.085 209.045 456.227 208.198 456.227C207.085 456.227 206.164 455.986 205.435 455.503C204.706 455.02 204.244 454.314 204.05 453.386L205.641 452.989C205.792 453.576 206.079 454.016 206.5 454.31C206.926 454.603 207.483 454.75 208.169 454.75C208.95 454.75 209.571 454.584 210.03 454.253C210.494 453.917 210.726 453.514 210.726 453.045C210.726 452.667 210.593 452.349 210.328 452.094C210.063 451.833 209.656 451.639 209.107 451.511L207.288 451.085C206.289 450.848 205.555 450.482 205.087 449.984C204.623 449.482 204.391 448.855 204.391 448.102C204.391 447.487 204.564 446.942 204.909 446.469C205.26 445.995 205.735 445.624 206.337 445.354C206.943 445.084 207.629 444.949 208.396 444.949C209.476 444.949 210.323 445.186 210.939 445.659C211.559 446.133 212 446.758 212.26 447.534ZM219.414 456.227C218.391 456.227 217.51 455.986 216.772 455.503C216.033 455.02 215.465 454.355 215.067 453.507C214.669 452.66 214.471 451.691 214.471 450.602C214.471 449.494 214.674 448.517 215.081 447.669C215.493 446.817 216.066 446.152 216.8 445.673C217.539 445.19 218.401 444.949 219.385 444.949C220.152 444.949 220.844 445.091 221.459 445.375C222.075 445.659 222.579 446.057 222.972 446.568C223.365 447.08 223.609 447.676 223.704 448.358H222.027C221.9 447.861 221.615 447.42 221.175 447.037C220.74 446.649 220.152 446.455 219.414 446.455C218.76 446.455 218.187 446.625 217.695 446.966C217.207 447.302 216.826 447.778 216.552 448.393C216.282 449.004 216.147 449.722 216.147 450.545C216.147 451.388 216.279 452.122 216.544 452.747C216.814 453.372 217.193 453.857 217.681 454.203C218.173 454.549 218.751 454.722 219.414 454.722C219.849 454.722 220.245 454.646 220.6 454.494C220.955 454.343 221.256 454.125 221.502 453.841C221.748 453.557 221.923 453.216 222.027 452.818H223.704C223.609 453.462 223.374 454.042 223 454.558C222.631 455.07 222.141 455.477 221.53 455.78C220.924 456.078 220.219 456.227 219.414 456.227ZM226.154 456V445.091H227.773V446.739H227.887C228.086 446.199 228.446 445.761 228.966 445.425C229.487 445.089 230.074 444.92 230.728 444.92C230.851 444.92 231.005 444.923 231.189 444.928C231.374 444.932 231.514 444.939 231.608 444.949V446.653C231.552 446.639 231.421 446.618 231.218 446.589C231.019 446.556 230.808 446.54 230.586 446.54C230.055 446.54 229.582 446.651 229.165 446.874C228.753 447.091 228.427 447.394 228.185 447.783C227.948 448.166 227.83 448.604 227.83 449.097V456H226.154ZM237.837 456.227C236.786 456.227 235.879 455.995 235.117 455.531C234.359 455.062 233.775 454.409 233.363 453.571C232.955 452.728 232.752 451.748 232.752 450.631C232.752 449.513 232.955 448.528 233.363 447.676C233.775 446.819 234.347 446.152 235.081 445.673C235.82 445.19 236.682 444.949 237.667 444.949C238.235 444.949 238.796 445.044 239.35 445.233C239.904 445.422 240.408 445.73 240.863 446.156C241.317 446.578 241.679 447.136 241.949 447.832C242.219 448.528 242.354 449.385 242.354 450.403V451.114H233.945V449.665H240.65C240.65 449.049 240.526 448.5 240.28 448.017C240.039 447.534 239.693 447.153 239.243 446.874C238.798 446.594 238.273 446.455 237.667 446.455C236.999 446.455 236.421 446.62 235.934 446.952C235.451 447.278 235.079 447.705 234.819 448.23C234.558 448.756 234.428 449.319 234.428 449.92V450.886C234.428 451.71 234.57 452.409 234.854 452.982C235.143 453.55 235.543 453.983 236.054 454.281C236.566 454.575 237.16 454.722 237.837 454.722C238.277 454.722 238.675 454.66 239.03 454.537C239.39 454.409 239.7 454.22 239.961 453.969C240.221 453.713 240.422 453.396 240.564 453.017L242.184 453.472C242.013 454.021 241.727 454.504 241.324 454.92C240.922 455.332 240.425 455.654 239.833 455.886C239.241 456.114 238.576 456.227 237.837 456.227ZM249.478 456.227C248.427 456.227 247.52 455.995 246.758 455.531C246 455.062 245.415 454.409 245.003 453.571C244.596 452.728 244.392 451.748 244.392 450.631C244.392 449.513 244.596 448.528 245.003 447.676C245.415 446.819 245.988 446.152 246.722 445.673C247.461 445.19 248.322 444.949 249.307 444.949C249.875 444.949 250.437 445.044 250.99 445.233C251.544 445.422 252.049 445.73 252.503 446.156C252.958 446.578 253.32 447.136 253.59 447.832C253.86 448.528 253.995 449.385 253.995 450.403V451.114H245.586V449.665H252.29C252.29 449.049 252.167 448.5 251.921 448.017C251.679 447.534 251.334 447.153 250.884 446.874C250.439 446.594 249.913 446.455 249.307 446.455C248.64 446.455 248.062 446.62 247.574 446.952C247.091 447.278 246.72 447.705 246.459 448.23C246.199 448.756 246.069 449.319 246.069 449.92V450.886C246.069 451.71 246.211 452.409 246.495 452.982C246.784 453.55 247.184 453.983 247.695 454.281C248.206 454.575 248.801 454.722 249.478 454.722C249.918 454.722 250.316 454.66 250.671 454.537C251.031 454.409 251.341 454.22 251.601 453.969C251.862 453.713 252.063 453.396 252.205 453.017L253.824 453.472C253.654 454.021 253.367 454.504 252.965 454.92C252.562 455.332 252.065 455.654 251.473 455.886C250.882 456.114 250.216 456.227 249.478 456.227ZM258.221 449.438V456H256.544V445.091H258.164V446.795H258.306C258.562 446.241 258.95 445.796 259.471 445.46C259.991 445.119 260.664 444.949 261.488 444.949C262.226 444.949 262.873 445.1 263.427 445.403C263.981 445.702 264.411 446.156 264.719 446.767C265.027 447.373 265.181 448.14 265.181 449.068V456H263.505V449.182C263.505 448.325 263.282 447.657 262.837 447.179C262.392 446.696 261.781 446.455 261.005 446.455C260.47 446.455 259.991 446.571 259.57 446.803C259.153 447.035 258.824 447.373 258.583 447.818C258.341 448.263 258.221 448.803 258.221 449.438ZM275.971 447.534L274.465 447.96C274.371 447.709 274.231 447.465 274.046 447.229C273.866 446.987 273.62 446.788 273.308 446.632C272.995 446.476 272.595 446.398 272.107 446.398C271.44 446.398 270.883 446.552 270.438 446.859C269.998 447.162 269.778 447.548 269.778 448.017C269.778 448.434 269.929 448.763 270.232 449.004C270.535 449.246 271.009 449.447 271.653 449.608L273.272 450.006C274.247 450.242 274.974 450.605 275.452 451.092C275.931 451.575 276.17 452.198 276.17 452.96C276.17 453.585 275.99 454.144 275.63 454.636C275.275 455.129 274.778 455.517 274.139 455.801C273.499 456.085 272.756 456.227 271.908 456.227C270.796 456.227 269.875 455.986 269.146 455.503C268.417 455.02 267.955 454.314 267.761 453.386L269.352 452.989C269.503 453.576 269.79 454.016 270.211 454.31C270.637 454.603 271.193 454.75 271.88 454.75C272.661 454.75 273.282 454.584 273.741 454.253C274.205 453.917 274.437 453.514 274.437 453.045C274.437 452.667 274.304 452.349 274.039 452.094C273.774 451.833 273.367 451.639 272.818 451.511L270.999 451.085C270 450.848 269.266 450.482 268.798 449.984C268.334 449.482 268.102 448.855 268.102 448.102C268.102 447.487 268.274 446.942 268.62 446.469C268.97 445.995 269.446 445.624 270.048 445.354C270.654 445.084 271.34 444.949 272.107 444.949C273.187 444.949 274.034 445.186 274.65 445.659C275.27 446.133 275.711 446.758 275.971 447.534ZM280.369 449.438V456H278.693V441.455H280.369V446.795H280.511C280.767 446.232 281.15 445.785 281.662 445.453C282.178 445.117 282.864 444.949 283.721 444.949C284.465 444.949 285.116 445.098 285.674 445.396C286.233 445.69 286.666 446.142 286.974 446.753C287.287 447.359 287.443 448.131 287.443 449.068V456H285.767V449.182C285.767 448.315 285.542 447.645 285.092 447.172C284.647 446.694 284.029 446.455 283.238 446.455C282.689 446.455 282.197 446.571 281.761 446.803C281.33 447.035 280.989 447.373 280.738 447.818C280.492 448.263 280.369 448.803 280.369 449.438ZM294.941 456.227C293.956 456.227 293.092 455.993 292.349 455.524C291.61 455.055 291.033 454.4 290.616 453.557C290.204 452.714 289.998 451.729 289.998 450.602C289.998 449.466 290.204 448.474 290.616 447.626C291.033 446.779 291.61 446.121 292.349 445.652C293.092 445.183 293.956 444.949 294.941 444.949C295.926 444.949 296.788 445.183 297.526 445.652C298.27 446.121 298.847 446.779 299.259 447.626C299.676 448.474 299.884 449.466 299.884 450.602C299.884 451.729 299.676 452.714 299.259 453.557C298.847 454.4 298.27 455.055 297.526 455.524C296.788 455.993 295.926 456.227 294.941 456.227ZM294.941 454.722C295.689 454.722 296.305 454.53 296.788 454.146C297.271 453.763 297.628 453.259 297.86 452.634C298.092 452.009 298.208 451.331 298.208 450.602C298.208 449.873 298.092 449.194 297.86 448.564C297.628 447.934 297.271 447.425 296.788 447.037C296.305 446.649 295.689 446.455 294.941 446.455C294.193 446.455 293.577 446.649 293.095 447.037C292.612 447.425 292.254 447.934 292.022 448.564C291.79 449.194 291.674 449.873 291.674 450.602C291.674 451.331 291.79 452.009 292.022 452.634C292.254 453.259 292.612 453.763 293.095 454.146C293.577 454.53 294.193 454.722 294.941 454.722ZM307.187 445.091V446.511H301.534V445.091H307.187ZM303.182 442.477H304.858V452.875C304.858 453.348 304.926 453.704 305.064 453.94C305.206 454.172 305.386 454.329 305.603 454.409C305.826 454.485 306.06 454.523 306.307 454.523C306.491 454.523 306.643 454.513 306.761 454.494C306.879 454.471 306.974 454.452 307.045 454.438L307.386 455.943C307.272 455.986 307.114 456.028 306.91 456.071C306.707 456.118 306.449 456.142 306.136 456.142C305.663 456.142 305.199 456.04 304.744 455.837C304.294 455.633 303.92 455.323 303.622 454.906C303.328 454.49 303.182 453.964 303.182 453.33V442.477ZM317.24 447.534L315.735 447.96C315.64 447.709 315.5 447.465 315.316 447.229C315.136 446.987 314.89 446.788 314.577 446.632C314.265 446.476 313.865 446.398 313.377 446.398C312.709 446.398 312.153 446.552 311.708 446.859C311.267 447.162 311.047 447.548 311.047 448.017C311.047 448.434 311.199 448.763 311.502 449.004C311.805 449.246 312.278 449.447 312.922 449.608L314.542 450.006C315.517 450.242 316.244 450.605 316.722 451.092C317.2 451.575 317.439 452.198 317.439 452.96C317.439 453.585 317.259 454.144 316.9 454.636C316.544 455.129 316.047 455.517 315.408 455.801C314.769 456.085 314.026 456.227 313.178 456.227C312.065 456.227 311.144 455.986 310.415 455.503C309.686 455.02 309.224 454.314 309.03 453.386L310.621 452.989C310.773 453.576 311.059 454.016 311.481 454.31C311.907 454.603 312.463 454.75 313.15 454.75C313.931 454.75 314.551 454.584 315.01 454.253C315.474 453.917 315.706 453.514 315.706 453.045C315.706 452.667 315.574 452.349 315.309 452.094C315.044 451.833 314.636 451.639 314.087 451.511L312.269 451.085C311.27 450.848 310.536 450.482 310.067 449.984C309.603 449.482 309.371 448.855 309.371 448.102C309.371 447.487 309.544 446.942 309.89 446.469C310.24 445.995 310.716 445.624 311.317 445.354C311.923 445.084 312.61 444.949 313.377 444.949C314.456 444.949 315.304 445.186 315.919 445.659C316.54 446.133 316.98 446.758 317.24 447.534ZM322.462 454.011L322.349 454.778C322.268 455.318 322.145 455.896 321.979 456.511C321.818 457.127 321.65 457.707 321.475 458.251C321.3 458.796 321.156 459.229 321.042 459.551H319.764C319.825 459.248 319.906 458.848 320.005 458.351C320.104 457.854 320.204 457.297 320.303 456.682C320.408 456.071 320.493 455.446 320.559 454.807L320.644 454.011H322.462ZM38.6325 479.227C37.6098 479.227 36.7291 478.986 35.9905 478.503C35.2519 478.02 34.6837 477.355 34.2859 476.507C33.8882 475.66 33.6894 474.691 33.6894 473.602C33.6894 472.494 33.893 471.517 34.3001 470.669C34.7121 469.817 35.285 469.152 36.0189 468.673C36.7575 468.19 37.6193 467.949 38.6041 467.949C39.3712 467.949 40.0625 468.091 40.678 468.375C41.2935 468.659 41.7978 469.057 42.1908 469.568C42.5838 470.08 42.8276 470.676 42.9223 471.358H41.2462C41.1183 470.861 40.8342 470.42 40.3939 470.037C39.9583 469.649 39.3712 469.455 38.6325 469.455C37.9791 469.455 37.4062 469.625 36.9138 469.966C36.4261 470.302 36.0449 470.778 35.7703 471.393C35.5004 472.004 35.3655 472.722 35.3655 473.545C35.3655 474.388 35.4981 475.122 35.7632 475.747C36.0331 476.372 36.4119 476.857 36.8996 477.203C37.392 477.549 37.9697 477.722 38.6325 477.722C39.0681 477.722 39.4635 477.646 39.8186 477.494C40.1737 477.343 40.4744 477.125 40.7206 476.841C40.9668 476.557 41.142 476.216 41.2462 475.818H42.9223C42.8276 476.462 42.5932 477.042 42.2192 477.558C41.8499 478.07 41.3598 478.477 40.749 478.78C40.143 479.078 39.4375 479.227 38.6325 479.227ZM47.0487 464.455V479H45.3726V464.455H47.0487ZM50.1187 479V468.091H51.7948V479H50.1187ZM50.971 466.273C50.6443 466.273 50.3625 466.161 50.1258 465.939C49.8938 465.716 49.7778 465.449 49.7778 465.136C49.7778 464.824 49.8938 464.556 50.1258 464.334C50.3625 464.111 50.6443 464 50.971 464C51.2977 464 51.577 464.111 51.809 464.334C52.0458 464.556 52.1641 464.824 52.1641 465.136C52.1641 465.449 52.0458 465.716 51.809 465.939C51.577 466.161 51.2977 466.273 50.971 466.273ZM59.2966 479.227C58.2739 479.227 57.3932 478.986 56.6546 478.503C55.9159 478.02 55.3477 477.355 54.95 476.507C54.5523 475.66 54.3534 474.691 54.3534 473.602C54.3534 472.494 54.557 471.517 54.9642 470.669C55.3761 469.817 55.9491 469.152 56.683 468.673C57.4216 468.19 58.2833 467.949 59.2682 467.949C60.0352 467.949 60.7265 468.091 61.3421 468.375C61.9576 468.659 62.4618 469.057 62.8548 469.568C63.2478 470.08 63.4917 470.676 63.5864 471.358H61.9102C61.7824 470.861 61.4983 470.42 61.058 470.037C60.6224 469.649 60.0352 469.455 59.2966 469.455C58.6432 469.455 58.0703 469.625 57.5778 469.966C57.0902 470.302 56.709 470.778 56.4344 471.393C56.1645 472.004 56.0296 472.722 56.0296 473.545C56.0296 474.388 56.1621 475.122 56.4273 475.747C56.6972 476.372 57.076 476.857 57.5636 477.203C58.0561 477.549 58.6337 477.722 59.2966 477.722C59.7322 477.722 60.1276 477.646 60.4827 477.494C60.8378 477.343 61.1385 477.125 61.3847 476.841C61.6309 476.557 61.8061 476.216 61.9102 475.818H63.5864C63.4917 476.462 63.2573 477.042 62.8832 477.558C62.5139 478.07 62.0239 478.477 61.4131 478.78C60.807 479.078 60.1015 479.227 59.2966 479.227ZM67.5992 475.023L67.5707 472.949H67.9117L72.6844 468.091H74.7582L69.673 473.233H69.531L67.5992 475.023ZM66.0367 479V464.455H67.7128V479H66.0367ZM72.9685 479L68.7071 473.602L69.9003 472.438L75.0992 479H72.9685ZM84.6428 470.534L83.1372 470.96C83.0425 470.709 82.9028 470.465 82.7181 470.229C82.5382 469.987 82.292 469.788 81.9795 469.632C81.667 469.476 81.2669 469.398 80.7792 469.398C80.1116 469.398 79.5552 469.552 79.1102 469.859C78.6698 470.162 78.4497 470.548 78.4497 471.017C78.4497 471.434 78.6012 471.763 78.9042 472.004C79.2072 472.246 79.6807 472.447 80.3247 472.608L81.944 473.006C82.9193 473.242 83.6461 473.605 84.1244 474.092C84.6026 474.575 84.8417 475.198 84.8417 475.96C84.8417 476.585 84.6618 477.144 84.3019 477.636C83.9468 478.129 83.4497 478.517 82.8104 478.801C82.1712 479.085 81.4279 479.227 80.5803 479.227C79.4676 479.227 78.5467 478.986 77.8175 478.503C77.0884 478.02 76.6267 477.314 76.4326 476.386L78.0235 475.989C78.175 476.576 78.4615 477.016 78.8829 477.31C79.309 477.603 79.8654 477.75 80.5519 477.75C81.3332 477.75 81.9534 477.584 82.4127 477.253C82.8767 476.917 83.1087 476.514 83.1087 476.045C83.1087 475.667 82.9762 475.349 82.711 475.094C82.4459 474.833 82.0387 474.639 81.4894 474.511L79.6712 474.085C78.6722 473.848 77.9383 473.482 77.4695 472.984C77.0055 472.482 76.7735 471.855 76.7735 471.102C76.7735 470.487 76.9463 469.942 77.292 469.469C77.6424 468.995 78.1182 468.624 78.7195 468.354C79.3256 468.084 80.0122 467.949 80.7792 467.949C81.8587 467.949 82.7063 468.186 83.3218 468.659C83.9421 469.133 84.3824 469.758 84.6428 470.534ZM92.1091 468.091V469.511H86.4557V468.091H92.1091ZM88.1034 465.477H89.7796V475.875C89.7796 476.348 89.8482 476.704 89.9855 476.94C90.1276 477.172 90.3075 477.329 90.5253 477.409C90.7478 477.485 90.9822 477.523 91.2284 477.523C91.4131 477.523 91.5646 477.513 91.683 477.494C91.8013 477.471 91.896 477.452 91.9671 477.438L92.308 478.943C92.1943 478.986 92.0357 479.028 91.8321 479.071C91.6285 479.118 91.3705 479.142 91.058 479.142C90.5845 479.142 90.1205 479.04 89.6659 478.837C89.2161 478.633 88.8421 478.323 88.5438 477.906C88.2502 477.49 88.1034 476.964 88.1034 476.33V465.477ZM94.6304 479V468.091H96.2497V469.739H96.3634C96.5622 469.199 96.9221 468.761 97.4429 468.425C97.9637 468.089 98.5509 467.92 99.2043 467.92C99.3274 467.92 99.4813 467.923 99.6659 467.928C99.8506 467.932 99.9903 467.939 100.085 467.949V469.653C100.028 469.639 99.8979 469.618 99.6943 469.589C99.4955 469.556 99.2848 469.54 99.0622 469.54C98.5319 469.54 98.0584 469.651 97.6418 469.874C97.2298 470.091 96.9031 470.394 96.6617 470.783C96.4249 471.166 96.3065 471.604 96.3065 472.097V479H94.6304ZM106.314 479.227C105.263 479.227 104.356 478.995 103.593 478.531C102.836 478.062 102.251 477.409 101.839 476.571C101.432 475.728 101.228 474.748 101.228 473.631C101.228 472.513 101.432 471.528 101.839 470.676C102.251 469.819 102.824 469.152 103.558 468.673C104.297 468.19 105.158 467.949 106.143 467.949C106.711 467.949 107.272 468.044 107.826 468.233C108.38 468.422 108.885 468.73 109.339 469.156C109.794 469.578 110.156 470.136 110.426 470.832C110.696 471.528 110.831 472.385 110.831 473.403V474.114H102.422V472.665H109.126C109.126 472.049 109.003 471.5 108.757 471.017C108.515 470.534 108.17 470.153 107.72 469.874C107.275 469.594 106.749 469.455 106.143 469.455C105.476 469.455 104.898 469.62 104.41 469.952C103.927 470.278 103.556 470.705 103.295 471.23C103.035 471.756 102.905 472.319 102.905 472.92V473.886C102.905 474.71 103.047 475.409 103.331 475.982C103.62 476.55 104.02 476.983 104.531 477.281C105.042 477.575 105.637 477.722 106.314 477.722C106.754 477.722 107.152 477.66 107.507 477.537C107.867 477.409 108.177 477.22 108.437 476.969C108.698 476.713 108.899 476.396 109.041 476.017L110.66 476.472C110.49 477.021 110.203 477.504 109.801 477.92C109.398 478.332 108.901 478.654 108.309 478.886C107.718 479.114 107.052 479.227 106.314 479.227ZM116.591 479.256C115.899 479.256 115.272 479.125 114.709 478.865C114.145 478.6 113.698 478.219 113.366 477.722C113.035 477.22 112.869 476.614 112.869 475.903C112.869 475.278 112.992 474.772 113.238 474.384C113.485 473.991 113.814 473.683 114.226 473.46C114.638 473.238 115.092 473.072 115.589 472.963C116.091 472.849 116.595 472.759 117.102 472.693C117.765 472.608 118.302 472.544 118.714 472.501C119.131 472.454 119.434 472.376 119.623 472.267C119.817 472.158 119.914 471.969 119.914 471.699V471.642C119.914 470.941 119.723 470.397 119.339 470.009C118.96 469.62 118.385 469.426 117.613 469.426C116.813 469.426 116.186 469.601 115.731 469.952C115.277 470.302 114.957 470.676 114.772 471.074L113.182 470.506C113.466 469.843 113.844 469.327 114.318 468.957C114.796 468.583 115.317 468.323 115.88 468.176C116.449 468.025 117.007 467.949 117.557 467.949C117.907 467.949 118.309 467.991 118.764 468.077C119.223 468.157 119.666 468.325 120.092 468.581C120.523 468.837 120.88 469.223 121.164 469.739C121.449 470.255 121.591 470.946 121.591 471.812V479H119.914V477.523H119.829C119.716 477.759 119.526 478.013 119.261 478.283C118.996 478.553 118.643 478.782 118.203 478.972C117.763 479.161 117.225 479.256 116.591 479.256ZM116.846 477.75C117.509 477.75 118.068 477.62 118.522 477.359C118.982 477.099 119.327 476.763 119.559 476.351C119.796 475.939 119.914 475.506 119.914 475.051V473.517C119.843 473.602 119.687 473.68 119.446 473.751C119.209 473.818 118.934 473.877 118.622 473.929C118.314 473.976 118.013 474.019 117.72 474.057C117.431 474.09 117.197 474.118 117.017 474.142C116.581 474.199 116.174 474.291 115.795 474.419C115.421 474.542 115.118 474.729 114.886 474.98C114.659 475.226 114.545 475.562 114.545 475.989C114.545 476.571 114.761 477.011 115.191 477.31C115.627 477.603 116.179 477.75 116.846 477.75ZM124.65 479V468.091H126.269V469.795H126.411C126.639 469.213 127.006 468.761 127.512 468.439C128.019 468.112 128.627 467.949 129.337 467.949C130.057 467.949 130.656 468.112 131.134 468.439C131.617 468.761 131.994 469.213 132.264 469.795H132.377C132.657 469.232 133.076 468.785 133.634 468.453C134.193 468.117 134.863 467.949 135.644 467.949C136.62 467.949 137.417 468.254 138.038 468.865C138.658 469.471 138.968 470.416 138.968 471.699V479H137.292V471.699C137.292 470.894 137.072 470.319 136.631 469.973C136.191 469.627 135.673 469.455 135.076 469.455C134.309 469.455 133.715 469.687 133.293 470.151C132.872 470.61 132.661 471.192 132.661 471.898V479H130.957V471.528C130.957 470.908 130.756 470.409 130.353 470.03C129.951 469.646 129.432 469.455 128.798 469.455C128.362 469.455 127.955 469.571 127.576 469.803C127.202 470.035 126.899 470.357 126.667 470.768C126.44 471.176 126.326 471.647 126.326 472.182V479H124.65ZM149.76 470.534L148.254 470.96C148.16 470.709 148.02 470.465 147.835 470.229C147.655 469.987 147.409 469.788 147.097 469.632C146.784 469.476 146.384 469.398 145.896 469.398C145.229 469.398 144.672 469.552 144.227 469.859C143.787 470.162 143.567 470.548 143.567 471.017C143.567 471.434 143.718 471.763 144.021 472.004C144.324 472.246 144.798 472.447 145.442 472.608L147.061 473.006C148.037 473.242 148.763 473.605 149.242 474.092C149.72 474.575 149.959 475.198 149.959 475.96C149.959 476.585 149.779 477.144 149.419 477.636C149.064 478.129 148.567 478.517 147.928 478.801C147.288 479.085 146.545 479.227 145.698 479.227C144.585 479.227 143.664 478.986 142.935 478.503C142.206 478.02 141.744 477.314 141.55 476.386L143.141 475.989C143.292 476.576 143.579 477.016 144 477.31C144.426 477.603 144.983 477.75 145.669 477.75C146.45 477.75 147.071 477.584 147.53 477.253C147.994 476.917 148.226 476.514 148.226 476.045C148.226 475.667 148.093 475.349 147.828 475.094C147.563 474.833 147.156 474.639 146.607 474.511L144.788 474.085C143.789 473.848 143.055 473.482 142.587 472.984C142.123 472.482 141.891 471.855 141.891 471.102C141.891 470.487 142.064 469.942 142.409 469.469C142.76 468.995 143.235 468.624 143.837 468.354C144.443 468.084 145.129 467.949 145.896 467.949C146.976 467.949 147.823 468.186 148.439 468.659C149.059 469.133 149.5 469.758 149.76 470.534ZM154.982 477.011L154.868 477.778C154.788 478.318 154.665 478.896 154.499 479.511C154.338 480.127 154.17 480.707 153.995 481.251C153.82 481.796 153.675 482.229 153.562 482.551H152.283C152.345 482.248 152.425 481.848 152.525 481.351C152.624 480.854 152.723 480.297 152.823 479.682C152.927 479.071 153.012 478.446 153.079 477.807L153.164 477.011H154.982ZM166.923 479.256C166.231 479.256 165.604 479.125 165.041 478.865C164.477 478.6 164.03 478.219 163.698 477.722C163.367 477.22 163.201 476.614 163.201 475.903C163.201 475.278 163.324 474.772 163.57 474.384C163.817 473.991 164.146 473.683 164.558 473.46C164.97 473.238 165.424 473.072 165.921 472.963C166.423 472.849 166.927 472.759 167.434 472.693C168.097 472.608 168.634 472.544 169.046 472.501C169.463 472.454 169.766 472.376 169.955 472.267C170.149 472.158 170.247 471.969 170.247 471.699V471.642C170.247 470.941 170.055 470.397 169.671 470.009C169.292 469.62 168.717 469.426 167.945 469.426C167.145 469.426 166.518 469.601 166.063 469.952C165.609 470.302 165.289 470.676 165.104 471.074L163.514 470.506C163.798 469.843 164.176 469.327 164.65 468.957C165.128 468.583 165.649 468.323 166.212 468.176C166.781 468.025 167.339 467.949 167.889 467.949C168.239 467.949 168.641 467.991 169.096 468.077C169.555 468.157 169.998 468.325 170.424 468.581C170.855 468.837 171.212 469.223 171.497 469.739C171.781 470.255 171.923 470.946 171.923 471.812V479H170.247V477.523H170.161C170.048 477.759 169.858 478.013 169.593 478.283C169.328 478.553 168.975 478.782 168.535 478.972C168.095 479.161 167.557 479.256 166.923 479.256ZM167.178 477.75C167.841 477.75 168.4 477.62 168.854 477.359C169.314 477.099 169.659 476.763 169.891 476.351C170.128 475.939 170.247 475.506 170.247 475.051V473.517C170.176 473.602 170.019 473.68 169.778 473.751C169.541 473.818 169.266 473.877 168.954 473.929C168.646 473.976 168.345 474.019 168.052 474.057C167.763 474.09 167.529 474.118 167.349 474.142C166.913 474.199 166.506 474.291 166.127 474.419C165.753 474.542 165.45 474.729 165.218 474.98C164.991 475.226 164.877 475.562 164.877 475.989C164.877 476.571 165.093 477.011 165.524 477.31C165.959 477.603 166.511 477.75 167.178 477.75ZM176.658 472.438V479H174.982V468.091H176.601V469.795H176.743C176.999 469.241 177.387 468.796 177.908 468.46C178.429 468.119 179.101 467.949 179.925 467.949C180.664 467.949 181.31 468.1 181.864 468.403C182.418 468.702 182.849 469.156 183.157 469.767C183.464 470.373 183.618 471.14 183.618 472.068V479H181.942V472.182C181.942 471.325 181.72 470.657 181.275 470.179C180.83 469.696 180.219 469.455 179.442 469.455C178.907 469.455 178.429 469.571 178.008 469.803C177.591 470.035 177.262 470.373 177.02 470.818C176.779 471.263 176.658 471.803 176.658 472.438ZM190.801 479.227C189.891 479.227 189.089 478.998 188.393 478.538C187.697 478.074 187.152 477.421 186.759 476.578C186.366 475.731 186.17 474.729 186.17 473.574C186.17 472.428 186.366 471.434 186.759 470.591C187.152 469.748 187.699 469.097 188.4 468.638C189.101 468.179 189.91 467.949 190.829 467.949C191.539 467.949 192.1 468.067 192.512 468.304C192.929 468.536 193.246 468.801 193.464 469.099C193.686 469.393 193.859 469.634 193.982 469.824H194.124V464.455H195.801V479H194.181V477.324H193.982C193.859 477.523 193.684 477.774 193.457 478.077C193.229 478.375 192.905 478.643 192.484 478.879C192.062 479.111 191.501 479.227 190.801 479.227ZM191.028 477.722C191.7 477.722 192.268 477.546 192.732 477.196C193.196 476.841 193.549 476.351 193.791 475.726C194.032 475.096 194.153 474.369 194.153 473.545C194.153 472.731 194.034 472.018 193.798 471.408C193.561 470.792 193.211 470.314 192.747 469.973C192.283 469.627 191.71 469.455 191.028 469.455C190.318 469.455 189.726 469.637 189.252 470.001C188.783 470.361 188.431 470.851 188.194 471.472C187.962 472.087 187.846 472.778 187.846 473.545C187.846 474.322 187.964 475.027 188.201 475.662C188.443 476.292 188.798 476.794 189.266 477.168C189.74 477.537 190.327 477.722 191.028 477.722ZM206.404 472.438V479H204.728V468.091H206.347V469.795H206.489C206.745 469.241 207.133 468.796 207.654 468.46C208.175 468.119 208.847 467.949 209.671 467.949C210.41 467.949 211.056 468.1 211.61 468.403C212.164 468.702 212.595 469.156 212.903 469.767C213.211 470.373 213.364 471.14 213.364 472.068V479H211.688V472.182C211.688 471.325 211.466 470.657 211.021 470.179C210.576 469.696 209.965 469.455 209.188 469.455C208.653 469.455 208.175 469.571 207.754 469.803C207.337 470.035 207.008 470.373 206.766 470.818C206.525 471.263 206.404 471.803 206.404 472.438ZM219.638 479.256C218.946 479.256 218.319 479.125 217.755 478.865C217.192 478.6 216.745 478.219 216.413 477.722C216.082 477.22 215.916 476.614 215.916 475.903C215.916 475.278 216.039 474.772 216.285 474.384C216.531 473.991 216.861 473.683 217.272 473.46C217.684 473.238 218.139 473.072 218.636 472.963C219.138 472.849 219.642 472.759 220.149 472.693C220.812 472.608 221.349 472.544 221.761 472.501C222.178 472.454 222.481 472.376 222.67 472.267C222.864 472.158 222.961 471.969 222.961 471.699V471.642C222.961 470.941 222.77 470.397 222.386 470.009C222.007 469.62 221.432 469.426 220.66 469.426C219.86 469.426 219.233 469.601 218.778 469.952C218.324 470.302 218.004 470.676 217.819 471.074L216.228 470.506C216.513 469.843 216.891 469.327 217.365 468.957C217.843 468.583 218.364 468.323 218.927 468.176C219.495 468.025 220.054 467.949 220.603 467.949C220.954 467.949 221.356 467.991 221.811 468.077C222.27 468.157 222.713 468.325 223.139 468.581C223.57 468.837 223.927 469.223 224.211 469.739C224.495 470.255 224.638 470.946 224.638 471.812V479H222.961V477.523H222.876C222.763 477.759 222.573 478.013 222.308 478.283C222.043 478.553 221.69 478.782 221.25 478.972C220.809 479.161 220.272 479.256 219.638 479.256ZM219.893 477.75C220.556 477.75 221.115 477.62 221.569 477.359C222.029 477.099 222.374 476.763 222.606 476.351C222.843 475.939 222.961 475.506 222.961 475.051V473.517C222.89 473.602 222.734 473.68 222.493 473.751C222.256 473.818 221.981 473.877 221.669 473.929C221.361 473.976 221.06 474.019 220.767 474.057C220.478 474.09 220.244 474.118 220.064 474.142C219.628 474.199 219.221 474.291 218.842 474.419C218.468 474.542 218.165 474.729 217.933 474.98C217.706 475.226 217.592 475.562 217.592 475.989C217.592 476.571 217.807 477.011 218.238 477.31C218.674 477.603 219.226 477.75 219.893 477.75ZM227.697 479V468.091H229.316V469.739H229.43C229.629 469.199 229.988 468.761 230.509 468.425C231.03 468.089 231.617 467.92 232.271 467.92C232.394 467.92 232.548 467.923 232.732 467.928C232.917 467.932 233.057 467.939 233.151 467.949V469.653C233.095 469.639 232.964 469.618 232.761 469.589C232.562 469.556 232.351 469.54 232.129 469.54C231.598 469.54 231.125 469.651 230.708 469.874C230.296 470.091 229.97 470.394 229.728 470.783C229.491 471.166 229.373 471.604 229.373 472.097V479H227.697ZM235.138 479V468.091H236.758V469.739H236.871C237.07 469.199 237.43 468.761 237.951 468.425C238.472 468.089 239.059 467.92 239.712 467.92C239.835 467.92 239.989 467.923 240.174 467.928C240.358 467.932 240.498 467.939 240.593 467.949V469.653C240.536 469.639 240.406 469.618 240.202 469.589C240.003 469.556 239.793 469.54 239.57 469.54C239.04 469.54 238.566 469.651 238.15 469.874C237.738 470.091 237.411 470.394 237.169 470.783C236.933 471.166 236.814 471.604 236.814 472.097V479H235.138ZM245.79 479.256C245.099 479.256 244.471 479.125 243.908 478.865C243.344 478.6 242.897 478.219 242.565 477.722C242.234 477.22 242.068 476.614 242.068 475.903C242.068 475.278 242.191 474.772 242.438 474.384C242.684 473.991 243.013 473.683 243.425 473.46C243.837 473.238 244.291 473.072 244.788 472.963C245.29 472.849 245.795 472.759 246.301 472.693C246.964 472.608 247.501 472.544 247.913 472.501C248.33 472.454 248.633 472.376 248.823 472.267C249.017 472.158 249.114 471.969 249.114 471.699V471.642C249.114 470.941 248.922 470.397 248.538 470.009C248.16 469.62 247.584 469.426 246.813 469.426C246.012 469.426 245.385 469.601 244.93 469.952C244.476 470.302 244.156 470.676 243.972 471.074L242.381 470.506C242.665 469.843 243.044 469.327 243.517 468.957C243.995 468.583 244.516 468.323 245.08 468.176C245.648 468.025 246.207 467.949 246.756 467.949C247.106 467.949 247.509 467.991 247.963 468.077C248.422 468.157 248.865 468.325 249.291 468.581C249.722 468.837 250.08 469.223 250.364 469.739C250.648 470.255 250.79 470.946 250.79 471.812V479H249.114V477.523H249.028C248.915 477.759 248.725 478.013 248.46 478.283C248.195 478.553 247.842 478.782 247.402 478.972C246.962 479.161 246.424 479.256 245.79 479.256ZM246.046 477.75C246.708 477.75 247.267 477.62 247.722 477.359C248.181 477.099 248.527 476.763 248.759 476.351C248.995 475.939 249.114 475.506 249.114 475.051V473.517C249.043 473.602 248.886 473.68 248.645 473.751C248.408 473.818 248.134 473.877 247.821 473.929C247.513 473.976 247.213 474.019 246.919 474.057C246.63 474.09 246.396 474.118 246.216 474.142C245.78 474.199 245.373 474.291 244.994 474.419C244.62 474.542 244.317 474.729 244.085 474.98C243.858 475.226 243.744 475.562 243.744 475.989C243.744 476.571 243.96 477.011 244.391 477.31C244.826 477.603 245.378 477.75 246.046 477.75ZM258.593 468.091V469.511H252.94V468.091H258.593ZM254.588 465.477H256.264V475.875C256.264 476.348 256.333 476.704 256.47 476.94C256.612 477.172 256.792 477.329 257.01 477.409C257.232 477.485 257.467 477.523 257.713 477.523C257.897 477.523 258.049 477.513 258.167 477.494C258.286 477.471 258.38 477.452 258.451 477.438L258.792 478.943C258.679 478.986 258.52 479.028 258.316 479.071C258.113 479.118 257.855 479.142 257.542 479.142C257.069 479.142 256.605 479.04 256.15 478.837C255.7 478.633 255.326 478.323 255.028 477.906C254.735 477.49 254.588 476.964 254.588 476.33V465.477ZM261.115 479V468.091H262.791V479H261.115ZM261.967 466.273C261.64 466.273 261.359 466.161 261.122 465.939C260.89 465.716 260.774 465.449 260.774 465.136C260.774 464.824 260.89 464.556 261.122 464.334C261.359 464.111 261.64 464 261.967 464C262.294 464 262.573 464.111 262.805 464.334C263.042 464.556 263.16 464.824 263.16 465.136C263.16 465.449 263.042 465.716 262.805 465.939C262.573 466.161 262.294 466.273 261.967 466.273ZM270.293 479.227C269.308 479.227 268.444 478.993 267.7 478.524C266.962 478.055 266.384 477.4 265.967 476.557C265.555 475.714 265.35 474.729 265.35 473.602C265.35 472.466 265.555 471.474 265.967 470.626C266.384 469.779 266.962 469.121 267.7 468.652C268.444 468.183 269.308 467.949 270.293 467.949C271.278 467.949 272.139 468.183 272.878 468.652C273.621 469.121 274.199 469.779 274.611 470.626C275.028 471.474 275.236 472.466 275.236 473.602C275.236 474.729 275.028 475.714 274.611 476.557C274.199 477.4 273.621 478.055 272.878 478.524C272.139 478.993 271.278 479.227 270.293 479.227ZM270.293 477.722C271.041 477.722 271.656 477.53 272.139 477.146C272.622 476.763 272.98 476.259 273.212 475.634C273.444 475.009 273.56 474.331 273.56 473.602C273.56 472.873 273.444 472.194 273.212 471.564C272.98 470.934 272.622 470.425 272.139 470.037C271.656 469.649 271.041 469.455 270.293 469.455C269.545 469.455 268.929 469.649 268.446 470.037C267.963 470.425 267.606 470.934 267.374 471.564C267.142 472.194 267.026 472.873 267.026 473.602C267.026 474.331 267.142 475.009 267.374 475.634C267.606 476.259 267.963 476.763 268.446 477.146C268.929 477.53 269.545 477.722 270.293 477.722ZM279.471 472.438V479H277.794V468.091H279.414V469.795H279.556C279.812 469.241 280.2 468.796 280.721 468.46C281.241 468.119 281.914 467.949 282.738 467.949C283.476 467.949 284.123 468.1 284.677 468.403C285.231 468.702 285.661 469.156 285.969 469.767C286.277 470.373 286.431 471.14 286.431 472.068V479H284.755V472.182C284.755 471.325 284.532 470.657 284.087 470.179C283.642 469.696 283.031 469.455 282.255 469.455C281.72 469.455 281.241 469.571 280.82 469.803C280.403 470.035 280.074 470.373 279.833 470.818C279.591 471.263 279.471 471.803 279.471 472.438ZM290.715 479.114C290.365 479.114 290.064 478.988 289.813 478.737C289.562 478.486 289.437 478.186 289.437 477.835C289.437 477.485 289.562 477.184 289.813 476.933C290.064 476.682 290.365 476.557 290.715 476.557C291.066 476.557 291.366 476.682 291.617 476.933C291.868 477.184 291.994 477.485 291.994 477.835C291.994 478.067 291.935 478.28 291.816 478.474C291.702 478.669 291.549 478.825 291.354 478.943C291.165 479.057 290.952 479.114 290.715 479.114Z" fill="black"/>
</svg>
